%
M48
M72
T01C0.01378
T02C0.03150
T03C0.03200
T04C0.03937
T05C0.04000
T06C0.07480
%
T01
X98500Y53800
X148500Y168800
T02
X26980Y164726
X23831Y160002
X30130Y160002
X33280Y164726
X36429Y160002
X71051Y179080
X78925Y179080
X86799Y179080
T03
X89647Y157619
X89751Y147620
X89856Y137620
X89961Y127621
X90066Y117621
X90170Y107622
X90275Y97622
X90380Y87623
X90484Y77623
X90589Y67624
X90694Y57624
X90799Y47625
X90903Y37626
X91008Y27626
X76685Y44950
X66685Y44950
X56445Y51821
X55445Y70135
X25445Y70135
X26445Y51821
X120797Y47939
X120902Y37940
X121006Y27940
X130555Y14821
X140555Y14821
X150795Y26561
X161740Y13265
X171740Y13265
X180870Y28006
X180870Y58006
X159650Y73635
X150795Y56561
X139650Y73635
X120483Y77938
X120378Y87937
X120273Y97936
X120169Y107936
X120064Y117935
X119959Y127935
X119854Y137934
X119750Y147934
X119645Y157933
X139630Y157191
X139630Y147191
X160870Y154246
X170870Y154246
X171185Y128506
X161185Y128506
X156945Y100061
X136945Y100061
X120587Y67938
X120692Y57939
X120945Y182821
X125945Y190321
X130945Y182821
T04
X63177Y179080
X94673Y179080
T05
X11000Y136300
X11000Y126300
X11000Y116300
X11000Y106300
X11000Y96300
X11000Y86300
X11000Y76300
X11000Y66300
X33245Y30131
X33245Y10131
X59925Y10895
X59925Y30895
X66000Y61191
X66000Y71191
X66000Y81191
X198500Y76300
X198500Y66300
X198500Y86300
X198500Y96300
X198500Y106300
X198500Y116300
X198500Y126300
X198500Y136300
X198500Y145635
X198500Y155635
X198500Y165635
X198500Y175635
X198500Y185635
T06
X15760Y180080
X44500Y180080
M30
