G75*
%MOIN*%
%OFA0B0*%
%FSLAX25Y25*%
%IPPOS*%
%LPD*%
%AMOC8*
5,1,8,0,0,1.08239X$1,22.5*
%
%ADD10C,0.00000*%
%ADD11C,0.00500*%
%ADD12C,0.01600*%
D10*
X0006000Y0001300D02*
X0006000Y0198150D01*
X0202850Y0198150D01*
X0202850Y0001300D01*
X0006000Y0001300D01*
D11*
X0004728Y0061550D02*
X0003672Y0061550D01*
X0003633Y0061552D01*
X0003594Y0061557D01*
X0003557Y0061566D01*
X0003520Y0061578D01*
X0003484Y0061594D01*
X0003450Y0061613D01*
X0003418Y0061635D01*
X0003388Y0061660D01*
X0003360Y0061688D01*
X0003335Y0061718D01*
X0003313Y0061750D01*
X0003294Y0061784D01*
X0003278Y0061820D01*
X0003266Y0061857D01*
X0003257Y0061894D01*
X0003252Y0061933D01*
X0003250Y0061972D01*
X0003250Y0062394D01*
X0003778Y0063361D02*
X0004622Y0063361D01*
X0004667Y0063363D01*
X0004711Y0063369D01*
X0004755Y0063378D01*
X0004798Y0063391D01*
X0004839Y0063408D01*
X0004880Y0063428D01*
X0004918Y0063452D01*
X0004954Y0063478D01*
X0004987Y0063508D01*
X0005018Y0063540D01*
X0005047Y0063575D01*
X0005072Y0063612D01*
X0005093Y0063651D01*
X0005112Y0063692D01*
X0005127Y0063734D01*
X0005138Y0063778D01*
X0005146Y0063822D01*
X0005150Y0063867D01*
X0005150Y0063911D01*
X0005146Y0063956D01*
X0005138Y0064000D01*
X0005127Y0064044D01*
X0005112Y0064086D01*
X0005093Y0064127D01*
X0005072Y0064166D01*
X0005047Y0064203D01*
X0005018Y0064238D01*
X0004987Y0064270D01*
X0004954Y0064300D01*
X0004918Y0064326D01*
X0004880Y0064350D01*
X0004839Y0064370D01*
X0004798Y0064387D01*
X0004755Y0064400D01*
X0004711Y0064409D01*
X0004667Y0064415D01*
X0004622Y0064417D01*
X0003778Y0064417D01*
X0003733Y0064415D01*
X0003689Y0064409D01*
X0003645Y0064400D01*
X0003602Y0064387D01*
X0003561Y0064370D01*
X0003520Y0064350D01*
X0003482Y0064326D01*
X0003446Y0064300D01*
X0003413Y0064270D01*
X0003382Y0064238D01*
X0003353Y0064203D01*
X0003328Y0064166D01*
X0003307Y0064127D01*
X0003288Y0064086D01*
X0003273Y0064044D01*
X0003262Y0064000D01*
X0003254Y0063956D01*
X0003250Y0063911D01*
X0003250Y0063867D01*
X0003254Y0063822D01*
X0003262Y0063778D01*
X0003273Y0063734D01*
X0003288Y0063692D01*
X0003307Y0063651D01*
X0003328Y0063612D01*
X0003353Y0063575D01*
X0003382Y0063540D01*
X0003413Y0063508D01*
X0003446Y0063478D01*
X0003482Y0063452D01*
X0003520Y0063428D01*
X0003561Y0063408D01*
X0003602Y0063391D01*
X0003645Y0063378D01*
X0003689Y0063369D01*
X0003733Y0063363D01*
X0003778Y0063361D01*
X0005150Y0062394D02*
X0005150Y0061972D01*
X0005148Y0061933D01*
X0005143Y0061894D01*
X0005134Y0061857D01*
X0005121Y0061820D01*
X0005106Y0061784D01*
X0005087Y0061750D01*
X0005065Y0061718D01*
X0005040Y0061688D01*
X0005012Y0061660D01*
X0004982Y0061635D01*
X0004950Y0061613D01*
X0004916Y0061594D01*
X0004880Y0061578D01*
X0004843Y0061566D01*
X0004806Y0061557D01*
X0004767Y0061552D01*
X0004728Y0061550D01*
X0005150Y0065593D02*
X0003250Y0065593D01*
X0003250Y0066649D02*
X0005150Y0066649D01*
X0005150Y0065593D02*
X0003250Y0066649D01*
X0003250Y0067897D02*
X0005150Y0067897D01*
X0003250Y0068953D01*
X0005150Y0068953D01*
X0003039Y0070019D02*
X0003039Y0070863D01*
X0003514Y0072755D02*
X0003578Y0072784D01*
X0003644Y0072811D01*
X0003711Y0072835D01*
X0003779Y0072855D01*
X0003848Y0072873D01*
X0003917Y0072887D01*
X0003988Y0072899D01*
X0004058Y0072907D01*
X0004129Y0072911D01*
X0004200Y0072913D01*
X0004200Y0071857D02*
X0004271Y0071859D01*
X0004342Y0071863D01*
X0004412Y0071871D01*
X0004483Y0071883D01*
X0004552Y0071897D01*
X0004621Y0071915D01*
X0004689Y0071935D01*
X0004756Y0071959D01*
X0004822Y0071986D01*
X0004886Y0072015D01*
X0005150Y0072385D02*
X0005148Y0072422D01*
X0005143Y0072459D01*
X0005134Y0072495D01*
X0005122Y0072531D01*
X0005106Y0072565D01*
X0005088Y0072597D01*
X0005066Y0072627D01*
X0005041Y0072655D01*
X0005014Y0072681D01*
X0004985Y0072704D01*
X0004954Y0072724D01*
X0004920Y0072741D01*
X0004886Y0072755D01*
X0004728Y0072807D02*
X0003672Y0071963D01*
X0003250Y0072385D02*
X0003252Y0072422D01*
X0003257Y0072459D01*
X0003266Y0072495D01*
X0003278Y0072531D01*
X0003294Y0072565D01*
X0003312Y0072597D01*
X0003334Y0072627D01*
X0003358Y0072655D01*
X0003386Y0072681D01*
X0003415Y0072704D01*
X0003446Y0072724D01*
X0003480Y0072741D01*
X0003514Y0072755D01*
X0003250Y0072385D02*
X0003252Y0072348D01*
X0003257Y0072311D01*
X0003266Y0072275D01*
X0003278Y0072239D01*
X0003294Y0072205D01*
X0003312Y0072173D01*
X0003334Y0072143D01*
X0003358Y0072115D01*
X0003386Y0072089D01*
X0003415Y0072066D01*
X0003446Y0072046D01*
X0003480Y0072029D01*
X0003514Y0072015D01*
X0004200Y0072913D02*
X0004271Y0072911D01*
X0004342Y0072907D01*
X0004412Y0072899D01*
X0004483Y0072887D01*
X0004552Y0072873D01*
X0004621Y0072855D01*
X0004689Y0072835D01*
X0004756Y0072811D01*
X0004822Y0072784D01*
X0004886Y0072755D01*
X0005150Y0072385D02*
X0005148Y0072348D01*
X0005143Y0072311D01*
X0005134Y0072275D01*
X0005122Y0072239D01*
X0005106Y0072205D01*
X0005088Y0072173D01*
X0005066Y0072143D01*
X0005041Y0072115D01*
X0005014Y0072089D01*
X0004985Y0072066D01*
X0004954Y0072046D01*
X0004920Y0072029D01*
X0004886Y0072015D01*
X0004200Y0071857D02*
X0004129Y0071859D01*
X0004058Y0071863D01*
X0003988Y0071871D01*
X0003917Y0071883D01*
X0003848Y0071897D01*
X0003779Y0071915D01*
X0003711Y0071935D01*
X0003644Y0071959D01*
X0003578Y0071986D01*
X0003514Y0072015D01*
X0003778Y0074017D02*
X0003733Y0074019D01*
X0003689Y0074025D01*
X0003645Y0074034D01*
X0003602Y0074047D01*
X0003561Y0074064D01*
X0003520Y0074084D01*
X0003482Y0074108D01*
X0003446Y0074134D01*
X0003413Y0074164D01*
X0003382Y0074196D01*
X0003353Y0074231D01*
X0003328Y0074268D01*
X0003307Y0074307D01*
X0003288Y0074348D01*
X0003273Y0074390D01*
X0003262Y0074434D01*
X0003254Y0074478D01*
X0003250Y0074523D01*
X0003250Y0074567D01*
X0003254Y0074612D01*
X0003262Y0074656D01*
X0003273Y0074700D01*
X0003288Y0074742D01*
X0003307Y0074783D01*
X0003328Y0074822D01*
X0003353Y0074859D01*
X0003382Y0074894D01*
X0003413Y0074926D01*
X0003446Y0074956D01*
X0003482Y0074982D01*
X0003520Y0075006D01*
X0003561Y0075026D01*
X0003602Y0075043D01*
X0003645Y0075056D01*
X0003689Y0075065D01*
X0003733Y0075071D01*
X0003778Y0075073D01*
X0003823Y0075071D01*
X0003867Y0075065D01*
X0003911Y0075056D01*
X0003954Y0075043D01*
X0003995Y0075026D01*
X0004036Y0075006D01*
X0004074Y0074982D01*
X0004110Y0074956D01*
X0004143Y0074926D01*
X0004174Y0074894D01*
X0004203Y0074859D01*
X0004228Y0074822D01*
X0004249Y0074783D01*
X0004268Y0074742D01*
X0004283Y0074700D01*
X0004294Y0074656D01*
X0004302Y0074612D01*
X0004306Y0074567D01*
X0004306Y0074523D01*
X0004302Y0074478D01*
X0004294Y0074434D01*
X0004283Y0074390D01*
X0004268Y0074348D01*
X0004249Y0074307D01*
X0004228Y0074268D01*
X0004203Y0074231D01*
X0004174Y0074196D01*
X0004143Y0074164D01*
X0004110Y0074134D01*
X0004074Y0074108D01*
X0004036Y0074084D01*
X0003995Y0074064D01*
X0003954Y0074047D01*
X0003911Y0074034D01*
X0003867Y0074025D01*
X0003823Y0074019D01*
X0003778Y0074017D01*
X0004728Y0074123D02*
X0004688Y0074125D01*
X0004648Y0074131D01*
X0004609Y0074140D01*
X0004571Y0074153D01*
X0004535Y0074170D01*
X0004500Y0074190D01*
X0004467Y0074213D01*
X0004437Y0074240D01*
X0004409Y0074269D01*
X0004384Y0074300D01*
X0004363Y0074334D01*
X0004344Y0074370D01*
X0004329Y0074407D01*
X0004318Y0074446D01*
X0004310Y0074485D01*
X0004306Y0074525D01*
X0004306Y0074565D01*
X0004310Y0074605D01*
X0004318Y0074644D01*
X0004329Y0074683D01*
X0004344Y0074720D01*
X0004363Y0074756D01*
X0004384Y0074790D01*
X0004409Y0074821D01*
X0004437Y0074850D01*
X0004467Y0074877D01*
X0004500Y0074900D01*
X0004535Y0074920D01*
X0004571Y0074937D01*
X0004609Y0074950D01*
X0004648Y0074959D01*
X0004688Y0074965D01*
X0004728Y0074967D01*
X0004768Y0074965D01*
X0004808Y0074959D01*
X0004847Y0074950D01*
X0004885Y0074937D01*
X0004921Y0074920D01*
X0004956Y0074900D01*
X0004989Y0074877D01*
X0005019Y0074850D01*
X0005047Y0074821D01*
X0005072Y0074790D01*
X0005093Y0074756D01*
X0005112Y0074720D01*
X0005127Y0074683D01*
X0005138Y0074644D01*
X0005146Y0074605D01*
X0005150Y0074565D01*
X0005150Y0074525D01*
X0005146Y0074485D01*
X0005138Y0074446D01*
X0005127Y0074407D01*
X0005112Y0074370D01*
X0005093Y0074334D01*
X0005072Y0074300D01*
X0005047Y0074269D01*
X0005019Y0074240D01*
X0004989Y0074213D01*
X0004956Y0074190D01*
X0004921Y0074170D01*
X0004885Y0074153D01*
X0004847Y0074140D01*
X0004808Y0074131D01*
X0004768Y0074125D01*
X0004728Y0074123D01*
X0016750Y0066182D02*
X0018650Y0066710D01*
X0018650Y0065654D01*
X0018439Y0065654D01*
X0018650Y0064166D02*
X0016750Y0064166D01*
X0016961Y0064324D02*
X0016969Y0064357D01*
X0016981Y0064390D01*
X0016996Y0064421D01*
X0017015Y0064450D01*
X0017036Y0064477D01*
X0017061Y0064502D01*
X0017088Y0064523D01*
X0017117Y0064542D01*
X0017148Y0064557D01*
X0017181Y0064569D01*
X0017215Y0064577D01*
X0017249Y0064581D01*
X0017284Y0064582D01*
X0017318Y0064578D01*
X0017352Y0064571D01*
X0017385Y0064561D01*
X0017417Y0064546D01*
X0017446Y0064529D01*
X0017474Y0064508D01*
X0017499Y0064484D01*
X0017522Y0064458D01*
X0017541Y0064429D01*
X0017542Y0064430D02*
X0017700Y0064166D01*
X0017858Y0063902D01*
X0017067Y0063744D02*
X0017040Y0063792D01*
X0017017Y0063841D01*
X0016997Y0063892D01*
X0016980Y0063944D01*
X0016967Y0063998D01*
X0016957Y0064052D01*
X0016951Y0064106D01*
X0016948Y0064161D01*
X0016949Y0064215D01*
X0016954Y0064270D01*
X0016962Y0064324D01*
X0018333Y0064588D02*
X0018360Y0064540D01*
X0018383Y0064491D01*
X0018403Y0064440D01*
X0018420Y0064388D01*
X0018433Y0064334D01*
X0018443Y0064280D01*
X0018449Y0064226D01*
X0018452Y0064171D01*
X0018451Y0064117D01*
X0018446Y0064062D01*
X0018438Y0064008D01*
X0018439Y0064007D02*
X0018431Y0063974D01*
X0018419Y0063941D01*
X0018404Y0063910D01*
X0018385Y0063881D01*
X0018364Y0063854D01*
X0018339Y0063829D01*
X0018312Y0063808D01*
X0018283Y0063789D01*
X0018252Y0063774D01*
X0018219Y0063762D01*
X0018185Y0063754D01*
X0018151Y0063750D01*
X0018116Y0063749D01*
X0018082Y0063753D01*
X0018048Y0063760D01*
X0018015Y0063770D01*
X0017983Y0063785D01*
X0017954Y0063802D01*
X0017926Y0063823D01*
X0017901Y0063847D01*
X0017878Y0063873D01*
X0017859Y0063902D01*
X0017278Y0062606D02*
X0018650Y0062606D01*
X0018650Y0061550D02*
X0017278Y0061550D01*
X0017233Y0061552D01*
X0017189Y0061558D01*
X0017145Y0061567D01*
X0017102Y0061580D01*
X0017061Y0061597D01*
X0017020Y0061617D01*
X0016982Y0061641D01*
X0016946Y0061667D01*
X0016913Y0061697D01*
X0016882Y0061729D01*
X0016853Y0061764D01*
X0016828Y0061801D01*
X0016807Y0061840D01*
X0016788Y0061881D01*
X0016773Y0061923D01*
X0016762Y0061967D01*
X0016754Y0062011D01*
X0016750Y0062056D01*
X0016750Y0062100D01*
X0016754Y0062145D01*
X0016762Y0062189D01*
X0016773Y0062233D01*
X0016788Y0062275D01*
X0016807Y0062316D01*
X0016828Y0062355D01*
X0016853Y0062392D01*
X0016882Y0062427D01*
X0016913Y0062459D01*
X0016946Y0062489D01*
X0016982Y0062515D01*
X0017020Y0062539D01*
X0017061Y0062559D01*
X0017102Y0062576D01*
X0017145Y0062589D01*
X0017189Y0062598D01*
X0017233Y0062604D01*
X0017278Y0062606D01*
X0014776Y0159411D02*
X0014776Y0194844D01*
X0045484Y0194844D01*
X0045484Y0159411D01*
X0014776Y0159411D01*
X0027177Y0173191D02*
X0025209Y0192876D01*
X0022256Y0192876D02*
X0024224Y0175159D01*
X0027177Y0173191D02*
X0033083Y0173191D01*
X0035051Y0192876D01*
X0038004Y0192876D02*
X0036035Y0177128D01*
X0043909Y0177128D02*
X0041941Y0192876D01*
X0038004Y0192876D01*
X0022256Y0192876D02*
X0018319Y0192876D01*
X0016350Y0175159D01*
X0190539Y0070863D02*
X0190539Y0070019D01*
X0190750Y0068953D02*
X0192650Y0068953D01*
X0192650Y0067897D02*
X0190750Y0068953D01*
X0190750Y0067897D02*
X0192650Y0067897D01*
X0192650Y0066649D02*
X0190750Y0066649D01*
X0192650Y0065593D01*
X0190750Y0065593D01*
X0191278Y0064417D02*
X0192122Y0064417D01*
X0192167Y0064415D01*
X0192211Y0064409D01*
X0192255Y0064400D01*
X0192298Y0064387D01*
X0192339Y0064370D01*
X0192380Y0064350D01*
X0192418Y0064326D01*
X0192454Y0064300D01*
X0192487Y0064270D01*
X0192518Y0064238D01*
X0192547Y0064203D01*
X0192572Y0064166D01*
X0192593Y0064127D01*
X0192612Y0064086D01*
X0192627Y0064044D01*
X0192638Y0064000D01*
X0192646Y0063956D01*
X0192650Y0063911D01*
X0192650Y0063867D01*
X0192646Y0063822D01*
X0192638Y0063778D01*
X0192627Y0063734D01*
X0192612Y0063692D01*
X0192593Y0063651D01*
X0192572Y0063612D01*
X0192547Y0063575D01*
X0192518Y0063540D01*
X0192487Y0063508D01*
X0192454Y0063478D01*
X0192418Y0063452D01*
X0192380Y0063428D01*
X0192339Y0063408D01*
X0192298Y0063391D01*
X0192255Y0063378D01*
X0192211Y0063369D01*
X0192167Y0063363D01*
X0192122Y0063361D01*
X0191278Y0063361D01*
X0191233Y0063363D01*
X0191189Y0063369D01*
X0191145Y0063378D01*
X0191102Y0063391D01*
X0191061Y0063408D01*
X0191020Y0063428D01*
X0190982Y0063452D01*
X0190946Y0063478D01*
X0190913Y0063508D01*
X0190882Y0063540D01*
X0190853Y0063575D01*
X0190828Y0063612D01*
X0190807Y0063651D01*
X0190788Y0063692D01*
X0190773Y0063734D01*
X0190762Y0063778D01*
X0190754Y0063822D01*
X0190750Y0063867D01*
X0190750Y0063911D01*
X0190754Y0063956D01*
X0190762Y0064000D01*
X0190773Y0064044D01*
X0190788Y0064086D01*
X0190807Y0064127D01*
X0190828Y0064166D01*
X0190853Y0064203D01*
X0190882Y0064238D01*
X0190913Y0064270D01*
X0190946Y0064300D01*
X0190982Y0064326D01*
X0191020Y0064350D01*
X0191061Y0064370D01*
X0191102Y0064387D01*
X0191145Y0064400D01*
X0191189Y0064409D01*
X0191233Y0064415D01*
X0191278Y0064417D01*
X0190750Y0062394D02*
X0190750Y0061972D01*
X0190752Y0061933D01*
X0190757Y0061894D01*
X0190766Y0061857D01*
X0190778Y0061820D01*
X0190794Y0061784D01*
X0190813Y0061750D01*
X0190835Y0061718D01*
X0190860Y0061688D01*
X0190888Y0061660D01*
X0190918Y0061635D01*
X0190950Y0061613D01*
X0190984Y0061594D01*
X0191020Y0061578D01*
X0191057Y0061566D01*
X0191094Y0061557D01*
X0191133Y0061552D01*
X0191172Y0061550D01*
X0192228Y0061550D01*
X0192267Y0061552D01*
X0192306Y0061557D01*
X0192343Y0061566D01*
X0192380Y0061578D01*
X0192416Y0061594D01*
X0192450Y0061613D01*
X0192482Y0061635D01*
X0192512Y0061660D01*
X0192540Y0061688D01*
X0192565Y0061718D01*
X0192587Y0061750D01*
X0192606Y0061784D01*
X0192621Y0061820D01*
X0192634Y0061857D01*
X0192643Y0061894D01*
X0192648Y0061933D01*
X0192650Y0061972D01*
X0192650Y0062394D01*
X0191014Y0072755D02*
X0191078Y0072784D01*
X0191144Y0072811D01*
X0191211Y0072835D01*
X0191279Y0072855D01*
X0191348Y0072873D01*
X0191417Y0072887D01*
X0191488Y0072899D01*
X0191558Y0072907D01*
X0191629Y0072911D01*
X0191700Y0072913D01*
X0191700Y0071857D02*
X0191771Y0071859D01*
X0191842Y0071863D01*
X0191912Y0071871D01*
X0191983Y0071883D01*
X0192052Y0071897D01*
X0192121Y0071915D01*
X0192189Y0071935D01*
X0192256Y0071959D01*
X0192322Y0071986D01*
X0192386Y0072015D01*
X0192650Y0072385D02*
X0192648Y0072422D01*
X0192643Y0072459D01*
X0192634Y0072495D01*
X0192622Y0072531D01*
X0192606Y0072565D01*
X0192588Y0072597D01*
X0192566Y0072627D01*
X0192541Y0072655D01*
X0192514Y0072681D01*
X0192485Y0072704D01*
X0192454Y0072724D01*
X0192420Y0072741D01*
X0192386Y0072755D01*
X0192228Y0072807D02*
X0191172Y0071963D01*
X0190750Y0072385D02*
X0190752Y0072422D01*
X0190757Y0072459D01*
X0190766Y0072495D01*
X0190778Y0072531D01*
X0190794Y0072565D01*
X0190812Y0072597D01*
X0190834Y0072627D01*
X0190858Y0072655D01*
X0190886Y0072681D01*
X0190915Y0072704D01*
X0190946Y0072724D01*
X0190980Y0072741D01*
X0191014Y0072755D01*
X0190750Y0072385D02*
X0190752Y0072348D01*
X0190757Y0072311D01*
X0190766Y0072275D01*
X0190778Y0072239D01*
X0190794Y0072205D01*
X0190812Y0072173D01*
X0190834Y0072143D01*
X0190858Y0072115D01*
X0190886Y0072089D01*
X0190915Y0072066D01*
X0190946Y0072046D01*
X0190980Y0072029D01*
X0191014Y0072015D01*
X0191700Y0072913D02*
X0191771Y0072911D01*
X0191842Y0072907D01*
X0191912Y0072899D01*
X0191983Y0072887D01*
X0192052Y0072873D01*
X0192121Y0072855D01*
X0192189Y0072835D01*
X0192256Y0072811D01*
X0192322Y0072784D01*
X0192386Y0072755D01*
X0192650Y0072385D02*
X0192648Y0072348D01*
X0192643Y0072311D01*
X0192634Y0072275D01*
X0192622Y0072239D01*
X0192606Y0072205D01*
X0192588Y0072173D01*
X0192566Y0072143D01*
X0192541Y0072115D01*
X0192514Y0072089D01*
X0192485Y0072066D01*
X0192454Y0072046D01*
X0192420Y0072029D01*
X0192386Y0072015D01*
X0191700Y0071857D02*
X0191629Y0071859D01*
X0191558Y0071863D01*
X0191488Y0071871D01*
X0191417Y0071883D01*
X0191348Y0071897D01*
X0191279Y0071915D01*
X0191211Y0071935D01*
X0191144Y0071959D01*
X0191078Y0071986D01*
X0191014Y0072015D01*
X0191278Y0074017D02*
X0191233Y0074019D01*
X0191189Y0074025D01*
X0191145Y0074034D01*
X0191102Y0074047D01*
X0191061Y0074064D01*
X0191020Y0074084D01*
X0190982Y0074108D01*
X0190946Y0074134D01*
X0190913Y0074164D01*
X0190882Y0074196D01*
X0190853Y0074231D01*
X0190828Y0074268D01*
X0190807Y0074307D01*
X0190788Y0074348D01*
X0190773Y0074390D01*
X0190762Y0074434D01*
X0190754Y0074478D01*
X0190750Y0074523D01*
X0190750Y0074567D01*
X0190754Y0074612D01*
X0190762Y0074656D01*
X0190773Y0074700D01*
X0190788Y0074742D01*
X0190807Y0074783D01*
X0190828Y0074822D01*
X0190853Y0074859D01*
X0190882Y0074894D01*
X0190913Y0074926D01*
X0190946Y0074956D01*
X0190982Y0074982D01*
X0191020Y0075006D01*
X0191061Y0075026D01*
X0191102Y0075043D01*
X0191145Y0075056D01*
X0191189Y0075065D01*
X0191233Y0075071D01*
X0191278Y0075073D01*
X0191323Y0075071D01*
X0191367Y0075065D01*
X0191411Y0075056D01*
X0191454Y0075043D01*
X0191495Y0075026D01*
X0191536Y0075006D01*
X0191574Y0074982D01*
X0191610Y0074956D01*
X0191643Y0074926D01*
X0191674Y0074894D01*
X0191703Y0074859D01*
X0191728Y0074822D01*
X0191749Y0074783D01*
X0191768Y0074742D01*
X0191783Y0074700D01*
X0191794Y0074656D01*
X0191802Y0074612D01*
X0191806Y0074567D01*
X0191806Y0074523D01*
X0191802Y0074478D01*
X0191794Y0074434D01*
X0191783Y0074390D01*
X0191768Y0074348D01*
X0191749Y0074307D01*
X0191728Y0074268D01*
X0191703Y0074231D01*
X0191674Y0074196D01*
X0191643Y0074164D01*
X0191610Y0074134D01*
X0191574Y0074108D01*
X0191536Y0074084D01*
X0191495Y0074064D01*
X0191454Y0074047D01*
X0191411Y0074034D01*
X0191367Y0074025D01*
X0191323Y0074019D01*
X0191278Y0074017D01*
X0192228Y0074123D02*
X0192188Y0074125D01*
X0192148Y0074131D01*
X0192109Y0074140D01*
X0192071Y0074153D01*
X0192035Y0074170D01*
X0192000Y0074190D01*
X0191967Y0074213D01*
X0191937Y0074240D01*
X0191909Y0074269D01*
X0191884Y0074300D01*
X0191863Y0074334D01*
X0191844Y0074370D01*
X0191829Y0074407D01*
X0191818Y0074446D01*
X0191810Y0074485D01*
X0191806Y0074525D01*
X0191806Y0074565D01*
X0191810Y0074605D01*
X0191818Y0074644D01*
X0191829Y0074683D01*
X0191844Y0074720D01*
X0191863Y0074756D01*
X0191884Y0074790D01*
X0191909Y0074821D01*
X0191937Y0074850D01*
X0191967Y0074877D01*
X0192000Y0074900D01*
X0192035Y0074920D01*
X0192071Y0074937D01*
X0192109Y0074950D01*
X0192148Y0074959D01*
X0192188Y0074965D01*
X0192228Y0074967D01*
X0192268Y0074965D01*
X0192308Y0074959D01*
X0192347Y0074950D01*
X0192385Y0074937D01*
X0192421Y0074920D01*
X0192456Y0074900D01*
X0192489Y0074877D01*
X0192519Y0074850D01*
X0192547Y0074821D01*
X0192572Y0074790D01*
X0192593Y0074756D01*
X0192612Y0074720D01*
X0192627Y0074683D01*
X0192638Y0074644D01*
X0192646Y0074605D01*
X0192650Y0074565D01*
X0192650Y0074525D01*
X0192646Y0074485D01*
X0192638Y0074446D01*
X0192627Y0074407D01*
X0192612Y0074370D01*
X0192593Y0074334D01*
X0192572Y0074300D01*
X0192547Y0074269D01*
X0192519Y0074240D01*
X0192489Y0074213D01*
X0192456Y0074190D01*
X0192421Y0074170D01*
X0192385Y0074153D01*
X0192347Y0074140D01*
X0192308Y0074131D01*
X0192268Y0074125D01*
X0192228Y0074123D01*
X0204778Y0066710D02*
X0204883Y0066710D01*
X0204883Y0066709D02*
X0204922Y0066707D01*
X0204961Y0066702D01*
X0204998Y0066693D01*
X0205035Y0066681D01*
X0205071Y0066665D01*
X0205105Y0066646D01*
X0205137Y0066624D01*
X0205167Y0066599D01*
X0205195Y0066571D01*
X0205220Y0066541D01*
X0205242Y0066509D01*
X0205261Y0066475D01*
X0205277Y0066439D01*
X0205289Y0066402D01*
X0205298Y0066365D01*
X0205303Y0066326D01*
X0205305Y0066287D01*
X0205306Y0066287D02*
X0205306Y0065654D01*
X0204778Y0065654D01*
X0204733Y0065656D01*
X0204689Y0065662D01*
X0204645Y0065671D01*
X0204602Y0065684D01*
X0204561Y0065701D01*
X0204520Y0065721D01*
X0204482Y0065745D01*
X0204446Y0065771D01*
X0204413Y0065801D01*
X0204382Y0065833D01*
X0204353Y0065868D01*
X0204328Y0065905D01*
X0204307Y0065944D01*
X0204288Y0065985D01*
X0204273Y0066027D01*
X0204262Y0066071D01*
X0204254Y0066115D01*
X0204250Y0066160D01*
X0204250Y0066204D01*
X0204254Y0066249D01*
X0204262Y0066293D01*
X0204273Y0066337D01*
X0204288Y0066379D01*
X0204307Y0066420D01*
X0204328Y0066459D01*
X0204353Y0066496D01*
X0204382Y0066531D01*
X0204413Y0066563D01*
X0204446Y0066593D01*
X0204482Y0066619D01*
X0204520Y0066643D01*
X0204561Y0066663D01*
X0204602Y0066680D01*
X0204645Y0066693D01*
X0204689Y0066702D01*
X0204733Y0066708D01*
X0204778Y0066710D01*
X0205306Y0065654D02*
X0205364Y0065656D01*
X0205421Y0065662D01*
X0205478Y0065672D01*
X0205534Y0065685D01*
X0205589Y0065703D01*
X0205642Y0065724D01*
X0205694Y0065749D01*
X0205745Y0065777D01*
X0205793Y0065808D01*
X0205839Y0065843D01*
X0205882Y0065881D01*
X0205923Y0065922D01*
X0205961Y0065965D01*
X0205996Y0066011D01*
X0206027Y0066059D01*
X0206055Y0066110D01*
X0206080Y0066162D01*
X0206101Y0066215D01*
X0206119Y0066270D01*
X0206132Y0066326D01*
X0206142Y0066383D01*
X0206148Y0066440D01*
X0206150Y0066498D01*
X0206150Y0064166D02*
X0204250Y0064166D01*
X0204461Y0064324D02*
X0204469Y0064357D01*
X0204481Y0064390D01*
X0204496Y0064421D01*
X0204515Y0064450D01*
X0204536Y0064477D01*
X0204561Y0064502D01*
X0204588Y0064523D01*
X0204617Y0064542D01*
X0204648Y0064557D01*
X0204681Y0064569D01*
X0204715Y0064577D01*
X0204749Y0064581D01*
X0204784Y0064582D01*
X0204818Y0064578D01*
X0204852Y0064571D01*
X0204885Y0064561D01*
X0204917Y0064546D01*
X0204946Y0064529D01*
X0204974Y0064508D01*
X0204999Y0064484D01*
X0205022Y0064458D01*
X0205041Y0064429D01*
X0205042Y0064430D02*
X0205200Y0064166D01*
X0205358Y0063902D01*
X0204567Y0063744D02*
X0204540Y0063792D01*
X0204517Y0063841D01*
X0204497Y0063892D01*
X0204480Y0063944D01*
X0204467Y0063998D01*
X0204457Y0064052D01*
X0204451Y0064106D01*
X0204448Y0064161D01*
X0204449Y0064215D01*
X0204454Y0064270D01*
X0204462Y0064324D01*
X0205833Y0064588D02*
X0205860Y0064540D01*
X0205883Y0064491D01*
X0205903Y0064440D01*
X0205920Y0064388D01*
X0205933Y0064334D01*
X0205943Y0064280D01*
X0205949Y0064226D01*
X0205952Y0064171D01*
X0205951Y0064117D01*
X0205946Y0064062D01*
X0205938Y0064008D01*
X0205939Y0064007D02*
X0205931Y0063974D01*
X0205919Y0063941D01*
X0205904Y0063910D01*
X0205885Y0063881D01*
X0205864Y0063854D01*
X0205839Y0063829D01*
X0205812Y0063808D01*
X0205783Y0063789D01*
X0205752Y0063774D01*
X0205719Y0063762D01*
X0205685Y0063754D01*
X0205651Y0063750D01*
X0205616Y0063749D01*
X0205582Y0063753D01*
X0205548Y0063760D01*
X0205515Y0063770D01*
X0205483Y0063785D01*
X0205454Y0063802D01*
X0205426Y0063823D01*
X0205401Y0063847D01*
X0205378Y0063873D01*
X0205359Y0063902D01*
X0204778Y0062606D02*
X0206150Y0062606D01*
X0206150Y0061550D02*
X0204778Y0061550D01*
X0204733Y0061552D01*
X0204689Y0061558D01*
X0204645Y0061567D01*
X0204602Y0061580D01*
X0204561Y0061597D01*
X0204520Y0061617D01*
X0204482Y0061641D01*
X0204446Y0061667D01*
X0204413Y0061697D01*
X0204382Y0061729D01*
X0204353Y0061764D01*
X0204328Y0061801D01*
X0204307Y0061840D01*
X0204288Y0061881D01*
X0204273Y0061923D01*
X0204262Y0061967D01*
X0204254Y0062011D01*
X0204250Y0062056D01*
X0204250Y0062100D01*
X0204254Y0062145D01*
X0204262Y0062189D01*
X0204273Y0062233D01*
X0204288Y0062275D01*
X0204307Y0062316D01*
X0204328Y0062355D01*
X0204353Y0062392D01*
X0204382Y0062427D01*
X0204413Y0062459D01*
X0204446Y0062489D01*
X0204482Y0062515D01*
X0204520Y0062539D01*
X0204561Y0062559D01*
X0204602Y0062576D01*
X0204645Y0062589D01*
X0204689Y0062598D01*
X0204733Y0062604D01*
X0204778Y0062606D01*
D12*
X0095854Y0171206D02*
X0061996Y0171206D01*
X0061996Y0186954D01*
X0071051Y0186954D01*
X0071051Y0194828D01*
X0086799Y0194828D01*
X0086799Y0186954D01*
X0095854Y0186954D01*
X0095854Y0171206D01*
X0086799Y0186954D02*
X0071051Y0186954D01*
M02*
