G75*
%MOIN*%
%OFA0B0*%
%FSLAX25Y25*%
%IPPOS*%
%LPD*%
%AMOC8*
5,1,8,0,0,1.08239X$1,22.5*
%
%ADD10C,0.00000*%
%ADD11OC8,0.05200*%
%ADD12C,0.05200*%
%ADD13C,0.05150*%
%ADD14C,0.11220*%
%ADD15C,0.05200*%
%ADD16C,0.05937*%
%ADD17C,0.07400*%
%ADD18C,0.00600*%
%ADD19C,0.02578*%
D10*
X0006000Y0001300D02*
X0006000Y0198150D01*
X0202850Y0198150D01*
X0202850Y0001300D01*
X0006000Y0001300D01*
D11*
X0026445Y0051821D03*
X0025445Y0070135D03*
X0055445Y0070135D03*
X0056445Y0051821D03*
X0066685Y0044950D03*
X0076685Y0044950D03*
X0130555Y0014821D03*
X0140555Y0014821D03*
X0150795Y0026561D03*
X0161740Y0013265D03*
X0171740Y0013265D03*
X0180870Y0028006D03*
X0180870Y0058006D03*
X0159650Y0073635D03*
X0150795Y0056561D03*
X0156945Y0100061D03*
X0161185Y0128506D03*
X0171185Y0128506D03*
X0170870Y0154246D03*
X0160870Y0154246D03*
X0139630Y0157191D03*
X0139630Y0147191D03*
X0130945Y0182821D03*
X0125945Y0190321D03*
X0120945Y0182821D03*
D12*
X0136945Y0100061D03*
X0139650Y0073635D03*
D13*
X0036429Y0160002D03*
X0033280Y0164726D03*
X0030130Y0160002D03*
X0026980Y0164726D03*
X0023831Y0160002D03*
X0071051Y0179080D03*
X0078925Y0179080D03*
X0086799Y0179080D03*
D14*
X0044500Y0180080D03*
X0015760Y0180080D03*
D15*
X0087047Y0157592D02*
X0092247Y0157646D01*
X0092351Y0147647D02*
X0087152Y0147592D01*
X0087256Y0137593D02*
X0092456Y0137647D01*
X0092561Y0127648D02*
X0087361Y0127593D01*
X0087466Y0117594D02*
X0092665Y0117648D01*
X0092770Y0107649D02*
X0087570Y0107595D01*
X0087675Y0097595D02*
X0092875Y0097650D01*
X0092980Y0087650D02*
X0087780Y0087596D01*
X0087885Y0077596D02*
X0093084Y0077651D01*
X0093189Y0067651D02*
X0087989Y0067597D01*
X0088094Y0057597D02*
X0093294Y0057652D01*
X0093398Y0047652D02*
X0088199Y0047598D01*
X0088303Y0037598D02*
X0093503Y0037653D01*
X0093608Y0027653D02*
X0088408Y0027599D01*
X0118406Y0027913D02*
X0123606Y0027967D01*
X0123501Y0037967D02*
X0118302Y0037913D01*
X0118197Y0047912D02*
X0123397Y0047966D01*
X0123292Y0057966D02*
X0118092Y0057911D01*
X0117988Y0067911D02*
X0123187Y0067965D01*
X0123083Y0077965D02*
X0117883Y0077910D01*
X0117778Y0087910D02*
X0122978Y0087964D01*
X0122873Y0097964D02*
X0117673Y0097909D01*
X0117569Y0107909D02*
X0122768Y0107963D01*
X0122664Y0117963D02*
X0117464Y0117908D01*
X0117359Y0127908D02*
X0122559Y0127962D01*
X0122454Y0137961D02*
X0117255Y0137907D01*
X0117150Y0147906D02*
X0122350Y0147961D01*
X0122245Y0157960D02*
X0117045Y0157906D01*
D16*
X0094673Y0179080D03*
X0063177Y0179080D03*
D17*
X0011000Y0136300D03*
X0011000Y0126300D03*
X0011000Y0116300D03*
X0011000Y0106300D03*
X0011000Y0096300D03*
X0011000Y0086300D03*
X0011000Y0076300D03*
X0011000Y0066300D03*
X0033245Y0030131D03*
X0033245Y0010131D03*
X0059925Y0010895D03*
X0059925Y0030895D03*
X0066000Y0061191D03*
X0066000Y0071191D03*
X0066000Y0081191D03*
X0198500Y0076300D03*
X0198500Y0066300D03*
X0198500Y0086300D03*
X0198500Y0096300D03*
X0198500Y0106300D03*
X0198500Y0116300D03*
X0198500Y0126300D03*
X0198500Y0136300D03*
X0198500Y0145635D03*
X0198500Y0155635D03*
X0198500Y0165635D03*
X0198500Y0175635D03*
X0198500Y0185635D03*
D18*
X0198200Y0185641D02*
X0133922Y0185641D01*
X0134521Y0185043D02*
X0193532Y0185043D01*
X0193500Y0185242D02*
X0193623Y0184465D01*
X0193866Y0183716D01*
X0194224Y0183015D01*
X0194686Y0182378D01*
X0195243Y0181822D01*
X0195879Y0181359D01*
X0196581Y0181002D01*
X0197302Y0180768D01*
X0195554Y0180044D01*
X0194092Y0178581D01*
X0193300Y0176670D01*
X0193300Y0174601D01*
X0193922Y0173100D01*
X0100254Y0173100D01*
X0088865Y0161711D01*
X0086188Y0161683D01*
X0084688Y0161043D01*
X0083547Y0159878D01*
X0082938Y0158364D01*
X0082956Y0156733D01*
X0083595Y0155233D01*
X0084761Y0154092D01*
X0086274Y0153483D01*
X0093105Y0153555D01*
X0094605Y0154195D01*
X0095746Y0155360D01*
X0096355Y0156874D01*
X0096338Y0158505D01*
X0095698Y0160005D01*
X0094532Y0161146D01*
X0093719Y0161473D01*
X0101746Y0169500D01*
X0106700Y0169500D01*
X0106700Y0147046D01*
X0096564Y0136909D01*
X0096547Y0138506D01*
X0095907Y0140006D01*
X0094742Y0141147D01*
X0093229Y0141756D01*
X0086398Y0141684D01*
X0084898Y0141044D01*
X0083756Y0139879D01*
X0083148Y0138365D01*
X0083165Y0136734D01*
X0083805Y0135234D01*
X0084970Y0134093D01*
X0086484Y0133485D01*
X0093209Y0133555D01*
X0091390Y0131736D01*
X0086503Y0131685D01*
X0085002Y0131045D01*
X0083861Y0129879D01*
X0083253Y0128366D01*
X0083270Y0126735D01*
X0083910Y0125235D01*
X0085075Y0124093D01*
X0086588Y0123485D01*
X0093209Y0123554D01*
X0091390Y0121735D01*
X0086607Y0121685D01*
X0085107Y0121045D01*
X0083966Y0119880D01*
X0083357Y0118367D01*
X0083374Y0116736D01*
X0084014Y0115235D01*
X0085180Y0114094D01*
X0086693Y0113486D01*
X0093524Y0113557D01*
X0095024Y0114197D01*
X0096165Y0115362D01*
X0096774Y0116876D01*
X0096757Y0118507D01*
X0096117Y0120007D01*
X0095428Y0120682D01*
X0111746Y0137000D01*
X0112800Y0138054D01*
X0112800Y0164500D01*
X0193342Y0164500D01*
X0194092Y0162690D01*
X0195554Y0161227D01*
X0196983Y0160635D01*
X0195554Y0160044D01*
X0194092Y0158581D01*
X0193300Y0156670D01*
X0193300Y0154601D01*
X0194092Y0152690D01*
X0195554Y0151227D01*
X0196983Y0150635D01*
X0195554Y0150044D01*
X0194092Y0148581D01*
X0193892Y0148100D01*
X0154246Y0148100D01*
X0145300Y0157046D01*
X0144246Y0158100D01*
X0143730Y0158100D01*
X0143730Y0158889D01*
X0141328Y0161291D01*
X0137932Y0161291D01*
X0137241Y0160600D01*
X0125409Y0160600D01*
X0124531Y0161460D01*
X0123017Y0162069D01*
X0116187Y0161997D01*
X0114686Y0161357D01*
X0113545Y0160192D01*
X0112937Y0158679D01*
X0112954Y0157048D01*
X0113594Y0155547D01*
X0114759Y0154406D01*
X0116273Y0153798D01*
X0123103Y0153869D01*
X0124604Y0154509D01*
X0125745Y0155674D01*
X0126278Y0157000D01*
X0135530Y0157000D01*
X0135530Y0155492D01*
X0137932Y0153091D01*
X0141328Y0153091D01*
X0142738Y0154500D01*
X0142754Y0154500D01*
X0151700Y0145554D01*
X0152754Y0144500D01*
X0193342Y0144500D01*
X0194092Y0142690D01*
X0195554Y0141227D01*
X0196181Y0140968D01*
X0195554Y0140708D01*
X0194092Y0139246D01*
X0193617Y0138100D01*
X0126553Y0138100D01*
X0126546Y0138820D01*
X0125906Y0140320D01*
X0124740Y0141461D01*
X0123227Y0142070D01*
X0116396Y0141998D01*
X0114896Y0141358D01*
X0113755Y0140193D01*
X0113146Y0138680D01*
X0113163Y0137049D01*
X0113803Y0135548D01*
X0114969Y0134407D01*
X0116482Y0133799D01*
X0123313Y0133870D01*
X0124789Y0134500D01*
X0193617Y0134500D01*
X0194092Y0133354D01*
X0195554Y0131892D01*
X0196983Y0131300D01*
X0195554Y0130708D01*
X0194092Y0129246D01*
X0193300Y0127334D01*
X0193300Y0125266D01*
X0193775Y0124120D01*
X0192754Y0123100D01*
X0159246Y0123100D01*
X0154246Y0128100D01*
X0126658Y0128100D01*
X0126650Y0128820D01*
X0126010Y0130321D01*
X0124845Y0131462D01*
X0123332Y0132070D01*
X0116501Y0131999D01*
X0115001Y0131359D01*
X0113859Y0130194D01*
X0113251Y0128680D01*
X0113268Y0127049D01*
X0113908Y0125549D01*
X0115073Y0124408D01*
X0116587Y0123799D01*
X0123417Y0123871D01*
X0124893Y0124500D01*
X0152754Y0124500D01*
X0156700Y0120554D01*
X0157754Y0119500D01*
X0194246Y0119500D01*
X0196320Y0121575D01*
X0196983Y0121300D01*
X0195554Y0120708D01*
X0194092Y0119246D01*
X0193617Y0118100D01*
X0126762Y0118100D01*
X0126755Y0118821D01*
X0126115Y0120321D01*
X0124950Y0121462D01*
X0123436Y0122071D01*
X0116606Y0121999D01*
X0115105Y0121359D01*
X0113964Y0120194D01*
X0113356Y0118681D01*
X0113373Y0117050D01*
X0114013Y0115549D01*
X0115178Y0114408D01*
X0116691Y0113800D01*
X0123522Y0113871D01*
X0124996Y0114500D01*
X0193617Y0114500D01*
X0194092Y0113354D01*
X0195554Y0111892D01*
X0196983Y0111300D01*
X0195554Y0110708D01*
X0194092Y0109246D01*
X0193617Y0108100D01*
X0180254Y0108100D01*
X0179200Y0107046D01*
X0140254Y0068100D01*
X0132754Y0068100D01*
X0131700Y0067046D01*
X0125852Y0061198D01*
X0125578Y0061466D01*
X0124065Y0062074D01*
X0117234Y0062003D01*
X0115734Y0061363D01*
X0114592Y0060197D01*
X0113984Y0058684D01*
X0114001Y0057053D01*
X0114641Y0055553D01*
X0115806Y0054411D01*
X0117320Y0053803D01*
X0123522Y0053868D01*
X0121703Y0052049D01*
X0117339Y0052003D01*
X0115838Y0051363D01*
X0114697Y0050198D01*
X0114089Y0048685D01*
X0114106Y0047054D01*
X0114746Y0045553D01*
X0115911Y0044412D01*
X0117424Y0043804D01*
X0123522Y0043867D01*
X0121703Y0042048D01*
X0117443Y0042004D01*
X0115943Y0041364D01*
X0114802Y0040198D01*
X0114193Y0038685D01*
X0114211Y0037054D01*
X0114850Y0035554D01*
X0116016Y0034413D01*
X0117529Y0033804D01*
X0124360Y0033876D01*
X0125860Y0034516D01*
X0127001Y0035681D01*
X0127610Y0037194D01*
X0127593Y0038825D01*
X0126953Y0040326D01*
X0126002Y0041257D01*
X0149246Y0064500D01*
X0179246Y0064500D01*
X0196320Y0081575D01*
X0196983Y0081300D01*
X0195554Y0080708D01*
X0194092Y0079246D01*
X0193300Y0077334D01*
X0193300Y0075266D01*
X0194092Y0073354D01*
X0195554Y0071892D01*
X0197302Y0071168D01*
X0196581Y0070934D01*
X0195879Y0070576D01*
X0195243Y0070114D01*
X0194686Y0069557D01*
X0194224Y0068921D01*
X0193866Y0068219D01*
X0193623Y0067471D01*
X0193500Y0066694D01*
X0193500Y0066600D01*
X0198200Y0066600D01*
X0198200Y0066000D01*
X0198800Y0066000D01*
X0198800Y0061300D01*
X0198894Y0061300D01*
X0199671Y0061423D01*
X0200419Y0061666D01*
X0201000Y0061962D01*
X0201000Y0002800D01*
X0007500Y0002800D01*
X0007500Y0062729D01*
X0007743Y0062486D01*
X0008379Y0062024D01*
X0009081Y0061666D01*
X0009829Y0061423D01*
X0010606Y0061300D01*
X0010700Y0061300D01*
X0010700Y0066000D01*
X0011300Y0066000D01*
X0011300Y0066600D01*
X0016000Y0066600D01*
X0016000Y0066694D01*
X0015877Y0067471D01*
X0015634Y0068219D01*
X0015276Y0068921D01*
X0014814Y0069557D01*
X0014257Y0070114D01*
X0013621Y0070576D01*
X0012919Y0070934D01*
X0012198Y0071168D01*
X0013946Y0071892D01*
X0015408Y0073354D01*
X0016200Y0075266D01*
X0016200Y0077334D01*
X0015408Y0079246D01*
X0013946Y0080708D01*
X0012517Y0081300D01*
X0013946Y0081892D01*
X0015408Y0083354D01*
X0016200Y0085266D01*
X0016200Y0087334D01*
X0015408Y0089246D01*
X0013946Y0090708D01*
X0012517Y0091300D01*
X0013946Y0091892D01*
X0015408Y0093354D01*
X0016200Y0095266D01*
X0084211Y0095266D01*
X0084224Y0095236D02*
X0085389Y0094095D01*
X0086903Y0093487D01*
X0093733Y0093558D01*
X0095234Y0094198D01*
X0096375Y0095364D01*
X0096983Y0096877D01*
X0096966Y0098508D01*
X0096326Y0100008D01*
X0095161Y0101149D01*
X0093647Y0101758D01*
X0086817Y0101686D01*
X0085316Y0101046D01*
X0084175Y0099881D01*
X0083567Y0098368D01*
X0083584Y0096737D01*
X0084224Y0095236D01*
X0083956Y0095865D02*
X0016200Y0095865D01*
X0016200Y0096463D02*
X0083700Y0096463D01*
X0083580Y0097062D02*
X0016200Y0097062D01*
X0016200Y0097334D02*
X0015408Y0099246D01*
X0013946Y0100708D01*
X0012517Y0101300D01*
X0013946Y0101892D01*
X0015408Y0103354D01*
X0016200Y0105266D01*
X0016200Y0107334D01*
X0015408Y0109246D01*
X0013946Y0110708D01*
X0012517Y0111300D01*
X0013946Y0111892D01*
X0015408Y0113354D01*
X0016200Y0115266D01*
X0016200Y0117334D01*
X0015408Y0119246D01*
X0013946Y0120708D01*
X0012517Y0121300D01*
X0013946Y0121892D01*
X0015408Y0123354D01*
X0016200Y0125266D01*
X0016200Y0127334D01*
X0015408Y0129246D01*
X0013946Y0130708D01*
X0012517Y0131300D01*
X0013946Y0131892D01*
X0015408Y0133354D01*
X0016200Y0135266D01*
X0016200Y0137334D01*
X0015408Y0139246D01*
X0013946Y0140708D01*
X0012034Y0141500D01*
X0009966Y0141500D01*
X0008054Y0140708D01*
X0007500Y0140154D01*
X0007500Y0196300D01*
X0201000Y0196300D01*
X0201000Y0189973D01*
X0200419Y0190269D01*
X0199671Y0190512D01*
X0198894Y0190635D01*
X0198800Y0190635D01*
X0198800Y0185936D01*
X0198200Y0185936D01*
X0198200Y0190635D01*
X0198106Y0190635D01*
X0197329Y0190512D01*
X0196581Y0190269D01*
X0195879Y0189912D01*
X0195243Y0189449D01*
X0194686Y0188893D01*
X0194224Y0188256D01*
X0193866Y0187555D01*
X0193623Y0186806D01*
X0193500Y0186029D01*
X0193500Y0185935D01*
X0198200Y0185935D01*
X0198200Y0185335D01*
X0193500Y0185335D01*
X0193500Y0185242D01*
X0193630Y0184444D02*
X0135045Y0184444D01*
X0135045Y0184519D02*
X0132643Y0186921D01*
X0129247Y0186921D01*
X0126845Y0184519D01*
X0126845Y0181122D01*
X0129247Y0178721D01*
X0132643Y0178721D01*
X0135045Y0181122D01*
X0135045Y0184519D01*
X0135045Y0183846D02*
X0193824Y0183846D01*
X0194105Y0183247D02*
X0135045Y0183247D01*
X0135045Y0182649D02*
X0194490Y0182649D01*
X0195014Y0182050D02*
X0135045Y0182050D01*
X0135045Y0181452D02*
X0195752Y0181452D01*
X0196064Y0180255D02*
X0134177Y0180255D01*
X0133579Y0179656D02*
X0195167Y0179656D01*
X0194568Y0179058D02*
X0132980Y0179058D01*
X0134776Y0180853D02*
X0197037Y0180853D01*
X0194041Y0178459D02*
X0099142Y0178459D01*
X0099142Y0178192D02*
X0099142Y0179969D01*
X0098461Y0181612D01*
X0097204Y0182869D01*
X0095562Y0183549D01*
X0093784Y0183549D01*
X0092142Y0182869D01*
X0090885Y0181612D01*
X0090523Y0180738D01*
X0090254Y0181389D01*
X0089107Y0182535D01*
X0087610Y0183155D01*
X0085989Y0183155D01*
X0084491Y0182535D01*
X0083345Y0181389D01*
X0082862Y0180224D01*
X0082380Y0181389D01*
X0081233Y0182535D01*
X0079736Y0183155D01*
X0078115Y0183155D01*
X0076617Y0182535D01*
X0075471Y0181389D01*
X0074988Y0180224D01*
X0074506Y0181389D01*
X0073359Y0182535D01*
X0071862Y0183155D01*
X0070241Y0183155D01*
X0068743Y0182535D01*
X0067597Y0181389D01*
X0067327Y0180738D01*
X0066965Y0181612D01*
X0065708Y0182869D01*
X0064066Y0183549D01*
X0062288Y0183549D01*
X0060646Y0182869D01*
X0059389Y0181612D01*
X0058709Y0179969D01*
X0058709Y0178192D01*
X0059389Y0176549D01*
X0060646Y0175292D01*
X0062288Y0174612D01*
X0064066Y0174612D01*
X0065708Y0175292D01*
X0066965Y0176549D01*
X0067327Y0177423D01*
X0067597Y0176772D01*
X0068743Y0175626D01*
X0070241Y0175006D01*
X0071862Y0175006D01*
X0073359Y0175626D01*
X0074506Y0176772D01*
X0074988Y0177937D01*
X0075471Y0176772D01*
X0075949Y0176294D01*
X0072754Y0173100D01*
X0047754Y0173100D01*
X0046700Y0172046D01*
X0038294Y0163640D01*
X0037354Y0164029D01*
X0037354Y0165537D01*
X0036734Y0167034D01*
X0035588Y0168180D01*
X0034090Y0168801D01*
X0032469Y0168801D01*
X0030971Y0168180D01*
X0030130Y0167339D01*
X0029288Y0168180D01*
X0027791Y0168801D01*
X0026170Y0168801D01*
X0024672Y0168180D01*
X0023526Y0167034D01*
X0022906Y0165537D01*
X0022906Y0163916D01*
X0022962Y0163780D01*
X0022700Y0163728D01*
X0021995Y0163435D01*
X0021361Y0163011D01*
X0020821Y0162472D01*
X0020397Y0161837D01*
X0020105Y0161132D01*
X0019956Y0160383D01*
X0019956Y0160302D01*
X0023531Y0160302D01*
X0023531Y0159702D01*
X0019956Y0159702D01*
X0019956Y0159620D01*
X0020105Y0158871D01*
X0020397Y0158166D01*
X0020821Y0157532D01*
X0021361Y0156992D01*
X0021995Y0156568D01*
X0022700Y0156276D01*
X0023449Y0156127D01*
X0023531Y0156127D01*
X0023531Y0159702D01*
X0024131Y0159702D01*
X0024131Y0156127D01*
X0024212Y0156127D01*
X0024961Y0156276D01*
X0025666Y0156568D01*
X0026301Y0156992D01*
X0026839Y0157530D01*
X0027822Y0156547D01*
X0029319Y0155927D01*
X0030940Y0155927D01*
X0032438Y0156547D01*
X0033280Y0157389D01*
X0034121Y0156547D01*
X0035619Y0155927D01*
X0037240Y0155927D01*
X0038737Y0156547D01*
X0039884Y0157693D01*
X0040504Y0159191D01*
X0040504Y0160758D01*
X0049246Y0169500D01*
X0074246Y0169500D01*
X0079762Y0175016D01*
X0081233Y0175626D01*
X0082380Y0176772D01*
X0082862Y0177937D01*
X0083345Y0176772D01*
X0084491Y0175626D01*
X0085989Y0175006D01*
X0087610Y0175006D01*
X0089107Y0175626D01*
X0090254Y0176772D01*
X0090523Y0177423D01*
X0090885Y0176549D01*
X0092142Y0175292D01*
X0093784Y0174612D01*
X0095562Y0174612D01*
X0097204Y0175292D01*
X0098461Y0176549D01*
X0099142Y0178192D01*
X0099005Y0177861D02*
X0193793Y0177861D01*
X0193545Y0177262D02*
X0098757Y0177262D01*
X0098509Y0176664D02*
X0193300Y0176664D01*
X0193300Y0176065D02*
X0097978Y0176065D01*
X0097379Y0175467D02*
X0193300Y0175467D01*
X0193300Y0174868D02*
X0096181Y0174868D01*
X0093165Y0174868D02*
X0079614Y0174868D01*
X0079015Y0174270D02*
X0193437Y0174270D01*
X0193685Y0173671D02*
X0078417Y0173671D01*
X0077818Y0173073D02*
X0100227Y0173073D01*
X0099629Y0172474D02*
X0077220Y0172474D01*
X0076621Y0171876D02*
X0099030Y0171876D01*
X0098432Y0171277D02*
X0076023Y0171277D01*
X0075424Y0170679D02*
X0097833Y0170679D01*
X0097235Y0170080D02*
X0074826Y0170080D01*
X0073500Y0171300D02*
X0081000Y0178800D01*
X0078925Y0179080D01*
X0081673Y0176065D02*
X0084052Y0176065D01*
X0083453Y0176664D02*
X0082271Y0176664D01*
X0082583Y0177262D02*
X0083142Y0177262D01*
X0082894Y0177861D02*
X0082831Y0177861D01*
X0082849Y0180255D02*
X0082875Y0180255D01*
X0083123Y0180853D02*
X0082601Y0180853D01*
X0082316Y0181452D02*
X0083408Y0181452D01*
X0084007Y0182050D02*
X0081718Y0182050D01*
X0080958Y0182649D02*
X0084767Y0182649D01*
X0088832Y0182649D02*
X0091922Y0182649D01*
X0091324Y0182050D02*
X0089592Y0182050D01*
X0090190Y0181452D02*
X0090819Y0181452D01*
X0090571Y0180853D02*
X0090475Y0180853D01*
X0090457Y0177262D02*
X0090590Y0177262D01*
X0090838Y0176664D02*
X0090145Y0176664D01*
X0089547Y0176065D02*
X0091369Y0176065D01*
X0091967Y0175467D02*
X0088723Y0175467D01*
X0084875Y0175467D02*
X0080849Y0175467D01*
X0075720Y0176065D02*
X0073799Y0176065D01*
X0074397Y0176664D02*
X0075579Y0176664D01*
X0075268Y0177262D02*
X0074709Y0177262D01*
X0074957Y0177861D02*
X0075020Y0177861D01*
X0074975Y0180255D02*
X0075001Y0180255D01*
X0075249Y0180853D02*
X0074727Y0180853D01*
X0074442Y0181452D02*
X0075534Y0181452D01*
X0076133Y0182050D02*
X0073844Y0182050D01*
X0073084Y0182649D02*
X0076892Y0182649D01*
X0075121Y0175467D02*
X0072975Y0175467D01*
X0073924Y0174270D02*
X0048745Y0174270D01*
X0048528Y0174053D02*
X0050528Y0176053D01*
X0051610Y0178666D01*
X0051610Y0181495D01*
X0050528Y0184108D01*
X0048528Y0186108D01*
X0045914Y0187191D01*
X0043086Y0187191D01*
X0040472Y0186108D01*
X0038472Y0184108D01*
X0037390Y0181495D01*
X0037390Y0178666D01*
X0038472Y0176053D01*
X0040472Y0174053D01*
X0043086Y0172970D01*
X0045914Y0172970D01*
X0048528Y0174053D01*
X0047607Y0173671D02*
X0073326Y0173671D01*
X0074523Y0174868D02*
X0064685Y0174868D01*
X0065883Y0175467D02*
X0069127Y0175467D01*
X0068304Y0176065D02*
X0066482Y0176065D01*
X0067013Y0176664D02*
X0067705Y0176664D01*
X0067394Y0177262D02*
X0067261Y0177262D01*
X0067279Y0180853D02*
X0067375Y0180853D01*
X0067660Y0181452D02*
X0067032Y0181452D01*
X0066527Y0182050D02*
X0068259Y0182050D01*
X0069018Y0182649D02*
X0065928Y0182649D01*
X0064794Y0183247D02*
X0093057Y0183247D01*
X0096290Y0183247D02*
X0116845Y0183247D01*
X0116845Y0182649D02*
X0097424Y0182649D01*
X0098023Y0182050D02*
X0116845Y0182050D01*
X0116845Y0181452D02*
X0098528Y0181452D01*
X0098775Y0180853D02*
X0117114Y0180853D01*
X0116845Y0181122D02*
X0119247Y0178721D01*
X0122643Y0178721D01*
X0125045Y0181122D01*
X0125045Y0184519D01*
X0122643Y0186921D01*
X0119247Y0186921D01*
X0116845Y0184519D01*
X0116845Y0181122D01*
X0117712Y0180255D02*
X0099023Y0180255D01*
X0099142Y0179656D02*
X0118311Y0179656D01*
X0118909Y0179058D02*
X0099142Y0179058D01*
X0101000Y0171300D02*
X0088500Y0158800D01*
X0089647Y0157619D01*
X0087909Y0161701D02*
X0041447Y0161701D01*
X0042045Y0162300D02*
X0089454Y0162300D01*
X0090052Y0162898D02*
X0042644Y0162898D01*
X0043242Y0163497D02*
X0090651Y0163497D01*
X0091249Y0164095D02*
X0043841Y0164095D01*
X0044439Y0164694D02*
X0091848Y0164694D01*
X0092447Y0165292D02*
X0045038Y0165292D01*
X0045636Y0165891D02*
X0093045Y0165891D01*
X0093644Y0166489D02*
X0046235Y0166489D01*
X0046833Y0167088D02*
X0094242Y0167088D01*
X0094841Y0167686D02*
X0047432Y0167686D01*
X0048030Y0168285D02*
X0095439Y0168285D01*
X0096038Y0168883D02*
X0048629Y0168883D01*
X0049227Y0169482D02*
X0096636Y0169482D01*
X0099932Y0167686D02*
X0106700Y0167686D01*
X0106700Y0167088D02*
X0099333Y0167088D01*
X0098735Y0166489D02*
X0106700Y0166489D01*
X0106700Y0165891D02*
X0098136Y0165891D01*
X0097538Y0165292D02*
X0106700Y0165292D01*
X0106700Y0164694D02*
X0096939Y0164694D01*
X0096341Y0164095D02*
X0106700Y0164095D01*
X0106700Y0163497D02*
X0095742Y0163497D01*
X0095144Y0162898D02*
X0106700Y0162898D01*
X0106700Y0162300D02*
X0094545Y0162300D01*
X0093947Y0161701D02*
X0106700Y0161701D01*
X0106700Y0161103D02*
X0094577Y0161103D01*
X0095188Y0160504D02*
X0106700Y0160504D01*
X0106700Y0159905D02*
X0095740Y0159905D01*
X0095996Y0159307D02*
X0106700Y0159307D01*
X0106700Y0158708D02*
X0096251Y0158708D01*
X0096342Y0158110D02*
X0106700Y0158110D01*
X0106700Y0157511D02*
X0096348Y0157511D01*
X0096354Y0156913D02*
X0106700Y0156913D01*
X0106700Y0156314D02*
X0096130Y0156314D01*
X0095889Y0155716D02*
X0106700Y0155716D01*
X0106700Y0155117D02*
X0095509Y0155117D01*
X0094922Y0154519D02*
X0106700Y0154519D01*
X0106700Y0153920D02*
X0093962Y0153920D01*
X0093124Y0151755D02*
X0094637Y0151147D01*
X0095803Y0150005D01*
X0096442Y0148505D01*
X0096460Y0146874D01*
X0095851Y0145361D01*
X0094710Y0144195D01*
X0093210Y0143556D01*
X0086379Y0143484D01*
X0084866Y0144092D01*
X0083700Y0145234D01*
X0083060Y0146734D01*
X0083043Y0148365D01*
X0083652Y0149878D01*
X0084793Y0151044D01*
X0086293Y0151684D01*
X0093124Y0151755D01*
X0093693Y0151526D02*
X0106700Y0151526D01*
X0106700Y0150928D02*
X0094861Y0150928D01*
X0095472Y0150329D02*
X0106700Y0150329D01*
X0106700Y0149731D02*
X0095920Y0149731D01*
X0096175Y0149132D02*
X0106700Y0149132D01*
X0106700Y0148534D02*
X0096430Y0148534D01*
X0096448Y0147935D02*
X0106700Y0147935D01*
X0106700Y0147337D02*
X0096455Y0147337D01*
X0096405Y0146738D02*
X0106393Y0146738D01*
X0105794Y0146140D02*
X0096164Y0146140D01*
X0095924Y0145541D02*
X0105196Y0145541D01*
X0104597Y0144943D02*
X0095442Y0144943D01*
X0094856Y0144344D02*
X0103999Y0144344D01*
X0103400Y0143746D02*
X0093655Y0143746D01*
X0094233Y0141352D02*
X0101006Y0141352D01*
X0101605Y0141950D02*
X0007500Y0141950D01*
X0007500Y0141352D02*
X0009608Y0141352D01*
X0008163Y0140753D02*
X0007500Y0140753D01*
X0007500Y0140155D02*
X0007501Y0140155D01*
X0007500Y0142549D02*
X0102203Y0142549D01*
X0102802Y0143147D02*
X0007500Y0143147D01*
X0007500Y0143746D02*
X0085728Y0143746D01*
X0084608Y0144344D02*
X0007500Y0144344D01*
X0007500Y0144943D02*
X0083997Y0144943D01*
X0083569Y0145541D02*
X0007500Y0145541D01*
X0007500Y0146140D02*
X0083314Y0146140D01*
X0083060Y0146738D02*
X0007500Y0146738D01*
X0007500Y0147337D02*
X0083054Y0147337D01*
X0083048Y0147935D02*
X0007500Y0147935D01*
X0007500Y0148534D02*
X0083111Y0148534D01*
X0083352Y0149132D02*
X0007500Y0149132D01*
X0007500Y0149731D02*
X0083592Y0149731D01*
X0084093Y0150329D02*
X0007500Y0150329D01*
X0007500Y0150928D02*
X0084679Y0150928D01*
X0085924Y0151526D02*
X0007500Y0151526D01*
X0007500Y0152125D02*
X0106700Y0152125D01*
X0106700Y0152723D02*
X0007500Y0152723D01*
X0007500Y0153322D02*
X0106700Y0153322D01*
X0112800Y0153322D02*
X0137700Y0153322D01*
X0137102Y0153920D02*
X0123223Y0153920D01*
X0124613Y0154519D02*
X0136503Y0154519D01*
X0135905Y0155117D02*
X0125199Y0155117D01*
X0125761Y0155716D02*
X0135530Y0155716D01*
X0135530Y0156314D02*
X0126002Y0156314D01*
X0126243Y0156913D02*
X0135530Y0156913D01*
X0138500Y0158800D02*
X0139630Y0157191D01*
X0141000Y0156300D01*
X0143500Y0156300D01*
X0153500Y0146300D01*
X0198500Y0146300D01*
X0198500Y0145635D01*
X0194831Y0141950D02*
X0123524Y0141950D01*
X0124852Y0141352D02*
X0195430Y0141352D01*
X0195663Y0140753D02*
X0125463Y0140753D01*
X0125976Y0140155D02*
X0195001Y0140155D01*
X0194402Y0139556D02*
X0126231Y0139556D01*
X0126487Y0138958D02*
X0193972Y0138958D01*
X0193724Y0138359D02*
X0126550Y0138359D01*
X0124014Y0134170D02*
X0193754Y0134170D01*
X0194002Y0133571D02*
X0108317Y0133571D01*
X0108915Y0134170D02*
X0115560Y0134170D01*
X0114600Y0134768D02*
X0109514Y0134768D01*
X0110112Y0135367D02*
X0113989Y0135367D01*
X0113626Y0135965D02*
X0110711Y0135965D01*
X0111309Y0136564D02*
X0113370Y0136564D01*
X0113162Y0137162D02*
X0111908Y0137162D01*
X0112506Y0137761D02*
X0113156Y0137761D01*
X0113150Y0138359D02*
X0112800Y0138359D01*
X0112800Y0138958D02*
X0113258Y0138958D01*
X0113499Y0139556D02*
X0112800Y0139556D01*
X0112800Y0140155D02*
X0113739Y0140155D01*
X0114303Y0140753D02*
X0112800Y0140753D01*
X0112800Y0141352D02*
X0114889Y0141352D01*
X0116283Y0141950D02*
X0112800Y0141950D01*
X0112800Y0142549D02*
X0194233Y0142549D01*
X0193902Y0143147D02*
X0112800Y0143147D01*
X0112800Y0143746D02*
X0137559Y0143746D01*
X0138014Y0143291D02*
X0135730Y0145575D01*
X0135730Y0146891D01*
X0139330Y0146891D01*
X0139330Y0147491D01*
X0139330Y0151091D01*
X0138014Y0151091D01*
X0135730Y0148806D01*
X0135730Y0147491D01*
X0139330Y0147491D01*
X0139930Y0147491D01*
X0139930Y0151091D01*
X0141245Y0151091D01*
X0143530Y0148806D01*
X0143530Y0147491D01*
X0139930Y0147491D01*
X0139930Y0146891D01*
X0143530Y0146891D01*
X0143530Y0145575D01*
X0141245Y0143291D01*
X0139930Y0143291D01*
X0139930Y0146891D01*
X0139330Y0146891D01*
X0139330Y0143291D01*
X0138014Y0143291D01*
X0139330Y0143746D02*
X0139930Y0143746D01*
X0139930Y0144344D02*
X0139330Y0144344D01*
X0139330Y0144943D02*
X0139930Y0144943D01*
X0139930Y0145541D02*
X0139330Y0145541D01*
X0139330Y0146140D02*
X0139930Y0146140D01*
X0139930Y0146738D02*
X0139330Y0146738D01*
X0139330Y0147337D02*
X0126201Y0147337D01*
X0126253Y0147618D02*
X0126111Y0146863D01*
X0125825Y0146150D01*
X0125405Y0145507D01*
X0124867Y0144958D01*
X0124233Y0144524D01*
X0123526Y0144223D01*
X0122774Y0144065D01*
X0120091Y0144037D01*
X0120053Y0147637D01*
X0120047Y0148237D01*
X0126246Y0148302D01*
X0126245Y0148386D01*
X0126088Y0149138D01*
X0125786Y0149844D01*
X0125353Y0150479D01*
X0124804Y0151016D01*
X0124161Y0151436D01*
X0123448Y0151723D01*
X0122693Y0151865D01*
X0120009Y0151837D01*
X0120047Y0148237D01*
X0119447Y0148231D01*
X0119409Y0151830D01*
X0116725Y0151802D01*
X0115973Y0151645D01*
X0115266Y0151343D01*
X0114632Y0150910D01*
X0114095Y0150361D01*
X0113675Y0149718D01*
X0113388Y0149005D01*
X0113246Y0148250D01*
X0113247Y0148166D01*
X0119447Y0148231D01*
X0119453Y0147631D01*
X0113253Y0147566D01*
X0113254Y0147482D01*
X0113412Y0146730D01*
X0113713Y0146023D01*
X0114147Y0145389D01*
X0114696Y0144851D01*
X0115339Y0144431D01*
X0116052Y0144145D01*
X0116807Y0144003D01*
X0119491Y0144031D01*
X0119453Y0147631D01*
X0120053Y0147637D01*
X0126252Y0147702D01*
X0126253Y0147618D01*
X0126061Y0146738D02*
X0135730Y0146738D01*
X0135730Y0146140D02*
X0125818Y0146140D01*
X0125427Y0145541D02*
X0135764Y0145541D01*
X0136362Y0144943D02*
X0124845Y0144943D01*
X0123811Y0144344D02*
X0136961Y0144344D01*
X0139930Y0147337D02*
X0149918Y0147337D01*
X0150516Y0146738D02*
X0143530Y0146738D01*
X0143530Y0146140D02*
X0151115Y0146140D01*
X0151700Y0145554D02*
X0151700Y0145554D01*
X0151713Y0145541D02*
X0143496Y0145541D01*
X0142897Y0144943D02*
X0152312Y0144943D01*
X0153812Y0148534D02*
X0194072Y0148534D01*
X0194643Y0149132D02*
X0153213Y0149132D01*
X0152615Y0149731D02*
X0195241Y0149731D01*
X0196244Y0150329D02*
X0162752Y0150329D01*
X0162568Y0150146D02*
X0164970Y0152547D01*
X0164970Y0155944D01*
X0162568Y0158346D01*
X0159172Y0158346D01*
X0156770Y0155944D01*
X0156770Y0152547D01*
X0159172Y0150146D01*
X0162568Y0150146D01*
X0163350Y0150928D02*
X0168673Y0150928D01*
X0169255Y0150346D02*
X0170570Y0150346D01*
X0170570Y0153946D01*
X0166970Y0153946D01*
X0166970Y0152630D01*
X0169255Y0150346D01*
X0170570Y0150928D02*
X0171170Y0150928D01*
X0171170Y0150346D02*
X0172485Y0150346D01*
X0174770Y0152630D01*
X0174770Y0153946D01*
X0171170Y0153946D01*
X0171170Y0154546D01*
X0170570Y0154546D01*
X0170570Y0158146D01*
X0169255Y0158146D01*
X0166970Y0155861D01*
X0166970Y0154546D01*
X0170570Y0154546D01*
X0170570Y0153946D01*
X0171170Y0153946D01*
X0171170Y0150346D01*
X0171170Y0151526D02*
X0170570Y0151526D01*
X0170570Y0152125D02*
X0171170Y0152125D01*
X0171170Y0152723D02*
X0170570Y0152723D01*
X0170570Y0153322D02*
X0171170Y0153322D01*
X0171170Y0153920D02*
X0170570Y0153920D01*
X0170570Y0154519D02*
X0164970Y0154519D01*
X0164970Y0155117D02*
X0166970Y0155117D01*
X0166970Y0155716D02*
X0164970Y0155716D01*
X0164600Y0156314D02*
X0167423Y0156314D01*
X0168022Y0156913D02*
X0164001Y0156913D01*
X0163403Y0157511D02*
X0168620Y0157511D01*
X0169219Y0158110D02*
X0162804Y0158110D01*
X0158936Y0158110D02*
X0143730Y0158110D01*
X0143730Y0158708D02*
X0194219Y0158708D01*
X0193897Y0158110D02*
X0172521Y0158110D01*
X0172485Y0158146D02*
X0171170Y0158146D01*
X0171170Y0154546D01*
X0174770Y0154546D01*
X0174770Y0155861D01*
X0172485Y0158146D01*
X0173120Y0157511D02*
X0193649Y0157511D01*
X0193401Y0156913D02*
X0173718Y0156913D01*
X0174317Y0156314D02*
X0193300Y0156314D01*
X0193300Y0155716D02*
X0174770Y0155716D01*
X0174770Y0155117D02*
X0193300Y0155117D01*
X0193334Y0154519D02*
X0171170Y0154519D01*
X0171170Y0155117D02*
X0170570Y0155117D01*
X0170570Y0155716D02*
X0171170Y0155716D01*
X0171170Y0156314D02*
X0170570Y0156314D01*
X0170570Y0156913D02*
X0171170Y0156913D01*
X0171170Y0157511D02*
X0170570Y0157511D01*
X0170570Y0158110D02*
X0171170Y0158110D01*
X0174770Y0153920D02*
X0193582Y0153920D01*
X0193830Y0153322D02*
X0174770Y0153322D01*
X0174770Y0152723D02*
X0194078Y0152723D01*
X0194657Y0152125D02*
X0174265Y0152125D01*
X0173666Y0151526D02*
X0195255Y0151526D01*
X0196277Y0150928D02*
X0173068Y0150928D01*
X0168074Y0151526D02*
X0163949Y0151526D01*
X0164547Y0152125D02*
X0167476Y0152125D01*
X0166970Y0152723D02*
X0164970Y0152723D01*
X0164970Y0153322D02*
X0166970Y0153322D01*
X0166970Y0153920D02*
X0164970Y0153920D01*
X0158988Y0150329D02*
X0152016Y0150329D01*
X0151418Y0150928D02*
X0158390Y0150928D01*
X0157791Y0151526D02*
X0150819Y0151526D01*
X0150221Y0152125D02*
X0157193Y0152125D01*
X0156770Y0152723D02*
X0149622Y0152723D01*
X0149024Y0153322D02*
X0156770Y0153322D01*
X0156770Y0153920D02*
X0148425Y0153920D01*
X0147827Y0154519D02*
X0156770Y0154519D01*
X0156770Y0155117D02*
X0147228Y0155117D01*
X0146630Y0155716D02*
X0156770Y0155716D01*
X0157141Y0156314D02*
X0146031Y0156314D01*
X0145433Y0156913D02*
X0157739Y0156913D01*
X0158338Y0157511D02*
X0144834Y0157511D01*
X0145300Y0157046D02*
X0145300Y0157046D01*
X0143312Y0159307D02*
X0194818Y0159307D01*
X0195416Y0159905D02*
X0142713Y0159905D01*
X0142115Y0160504D02*
X0196665Y0160504D01*
X0195855Y0161103D02*
X0141516Y0161103D01*
X0138500Y0158800D02*
X0121000Y0158800D01*
X0119645Y0157933D01*
X0115967Y0153920D02*
X0112800Y0153920D01*
X0112800Y0154519D02*
X0114644Y0154519D01*
X0114033Y0155117D02*
X0112800Y0155117D01*
X0112800Y0155716D02*
X0113522Y0155716D01*
X0113267Y0156314D02*
X0112800Y0156314D01*
X0112800Y0156913D02*
X0113011Y0156913D01*
X0112949Y0157511D02*
X0112800Y0157511D01*
X0112800Y0158110D02*
X0112943Y0158110D01*
X0112949Y0158708D02*
X0112800Y0158708D01*
X0112800Y0159307D02*
X0113189Y0159307D01*
X0113430Y0159905D02*
X0112800Y0159905D01*
X0112800Y0160504D02*
X0113851Y0160504D01*
X0114437Y0161103D02*
X0112800Y0161103D01*
X0112800Y0161701D02*
X0115492Y0161701D01*
X0112800Y0162300D02*
X0194482Y0162300D01*
X0194005Y0162898D02*
X0112800Y0162898D01*
X0112800Y0163497D02*
X0193758Y0163497D01*
X0193510Y0164095D02*
X0112800Y0164095D01*
X0111000Y0166300D02*
X0198500Y0166300D01*
X0198500Y0165635D01*
X0195081Y0161701D02*
X0123932Y0161701D01*
X0124896Y0161103D02*
X0137744Y0161103D01*
X0142158Y0153920D02*
X0143334Y0153920D01*
X0143933Y0153322D02*
X0141559Y0153322D01*
X0141408Y0150928D02*
X0146327Y0150928D01*
X0146925Y0150329D02*
X0142007Y0150329D01*
X0142605Y0149731D02*
X0147524Y0149731D01*
X0148122Y0149132D02*
X0143204Y0149132D01*
X0143530Y0148534D02*
X0148721Y0148534D01*
X0149319Y0147935D02*
X0143530Y0147935D01*
X0139930Y0147935D02*
X0139330Y0147935D01*
X0139330Y0148534D02*
X0139930Y0148534D01*
X0139930Y0149132D02*
X0139330Y0149132D01*
X0139330Y0149731D02*
X0139930Y0149731D01*
X0139930Y0150329D02*
X0139330Y0150329D01*
X0139330Y0150928D02*
X0139930Y0150928D01*
X0137852Y0150928D02*
X0124894Y0150928D01*
X0125455Y0150329D02*
X0137253Y0150329D01*
X0136655Y0149731D02*
X0125835Y0149731D01*
X0126089Y0149132D02*
X0136056Y0149132D01*
X0135730Y0148534D02*
X0126214Y0148534D01*
X0123936Y0151526D02*
X0145728Y0151526D01*
X0145130Y0152125D02*
X0112800Y0152125D01*
X0112800Y0152723D02*
X0144531Y0152723D01*
X0142299Y0144344D02*
X0193406Y0144344D01*
X0193654Y0143746D02*
X0141700Y0143746D01*
X0135730Y0147935D02*
X0120050Y0147935D01*
X0120056Y0147337D02*
X0119456Y0147337D01*
X0119450Y0147935D02*
X0112800Y0147935D01*
X0112800Y0147337D02*
X0113284Y0147337D01*
X0113410Y0146738D02*
X0112800Y0146738D01*
X0112800Y0146140D02*
X0113663Y0146140D01*
X0114043Y0145541D02*
X0112800Y0145541D01*
X0112800Y0144943D02*
X0114602Y0144943D01*
X0115555Y0144344D02*
X0112800Y0144344D01*
X0112800Y0148534D02*
X0113299Y0148534D01*
X0113439Y0149132D02*
X0112800Y0149132D01*
X0112800Y0149731D02*
X0113683Y0149731D01*
X0114074Y0150329D02*
X0112800Y0150329D01*
X0112800Y0150928D02*
X0114659Y0150928D01*
X0115696Y0151526D02*
X0112800Y0151526D01*
X0119412Y0151526D02*
X0120012Y0151526D01*
X0120018Y0150928D02*
X0119418Y0150928D01*
X0119425Y0150329D02*
X0120025Y0150329D01*
X0120031Y0149731D02*
X0119431Y0149731D01*
X0119437Y0149132D02*
X0120037Y0149132D01*
X0120043Y0148534D02*
X0119443Y0148534D01*
X0119462Y0146738D02*
X0120062Y0146738D01*
X0120068Y0146140D02*
X0119469Y0146140D01*
X0119475Y0145541D02*
X0120075Y0145541D01*
X0120081Y0144943D02*
X0119481Y0144943D01*
X0119487Y0144344D02*
X0120087Y0144344D01*
X0119854Y0137934D02*
X0121000Y0136300D01*
X0198500Y0136300D01*
X0195072Y0132374D02*
X0172832Y0132374D01*
X0172800Y0132406D02*
X0171485Y0132406D01*
X0171485Y0128806D01*
X0170885Y0128806D01*
X0170885Y0132406D01*
X0169570Y0132406D01*
X0167285Y0130121D01*
X0167285Y0128806D01*
X0170885Y0128806D01*
X0170885Y0128206D01*
X0167285Y0128206D01*
X0167285Y0126890D01*
X0169570Y0124606D01*
X0170885Y0124606D01*
X0170885Y0128206D01*
X0171485Y0128206D01*
X0171485Y0128806D01*
X0175085Y0128806D01*
X0175085Y0130121D01*
X0172800Y0132406D01*
X0173431Y0131775D02*
X0195835Y0131775D01*
X0196686Y0131177D02*
X0174029Y0131177D01*
X0174628Y0130578D02*
X0195425Y0130578D01*
X0194826Y0129980D02*
X0175085Y0129980D01*
X0175085Y0129381D02*
X0194228Y0129381D01*
X0193900Y0128783D02*
X0171485Y0128783D01*
X0171485Y0128206D02*
X0175085Y0128206D01*
X0175085Y0126890D01*
X0172800Y0124606D01*
X0171485Y0124606D01*
X0171485Y0128206D01*
X0171485Y0128184D02*
X0170885Y0128184D01*
X0170885Y0127586D02*
X0171485Y0127586D01*
X0171485Y0126987D02*
X0170885Y0126987D01*
X0170885Y0126389D02*
X0171485Y0126389D01*
X0171485Y0125790D02*
X0170885Y0125790D01*
X0170885Y0125192D02*
X0171485Y0125192D01*
X0173387Y0125192D02*
X0193331Y0125192D01*
X0193300Y0125790D02*
X0173985Y0125790D01*
X0174584Y0126389D02*
X0193300Y0126389D01*
X0193300Y0126987D02*
X0175085Y0126987D01*
X0175085Y0127586D02*
X0193404Y0127586D01*
X0193652Y0128184D02*
X0175085Y0128184D01*
X0171485Y0129381D02*
X0170885Y0129381D01*
X0170885Y0128783D02*
X0165285Y0128783D01*
X0165285Y0129381D02*
X0167285Y0129381D01*
X0167285Y0129980D02*
X0165285Y0129980D01*
X0165285Y0130204D02*
X0162883Y0132606D01*
X0159487Y0132606D01*
X0157085Y0130204D01*
X0157085Y0126807D01*
X0159487Y0124406D01*
X0162883Y0124406D01*
X0165285Y0126807D01*
X0165285Y0130204D01*
X0164910Y0130578D02*
X0167742Y0130578D01*
X0168341Y0131177D02*
X0164312Y0131177D01*
X0163713Y0131775D02*
X0168940Y0131775D01*
X0169538Y0132374D02*
X0163115Y0132374D01*
X0159255Y0132374D02*
X0107120Y0132374D01*
X0107718Y0132972D02*
X0194474Y0132972D01*
X0198500Y0126300D02*
X0193500Y0121300D01*
X0158500Y0121300D01*
X0153500Y0126300D01*
X0121000Y0126300D01*
X0119959Y0127935D01*
X0123708Y0123995D02*
X0153260Y0123995D01*
X0153858Y0123396D02*
X0098142Y0123396D01*
X0097543Y0122798D02*
X0154457Y0122798D01*
X0155055Y0122199D02*
X0096945Y0122199D01*
X0096346Y0121601D02*
X0115671Y0121601D01*
X0114756Y0121002D02*
X0095748Y0121002D01*
X0095712Y0120404D02*
X0114169Y0120404D01*
X0113808Y0119805D02*
X0096203Y0119805D01*
X0096458Y0119207D02*
X0113567Y0119207D01*
X0113356Y0118608D02*
X0096713Y0118608D01*
X0096762Y0118010D02*
X0113363Y0118010D01*
X0113369Y0117411D02*
X0096768Y0117411D01*
X0096748Y0116813D02*
X0113474Y0116813D01*
X0113729Y0116214D02*
X0096508Y0116214D01*
X0096267Y0115616D02*
X0113984Y0115616D01*
X0114556Y0115017D02*
X0095827Y0115017D01*
X0095241Y0114419D02*
X0115167Y0114419D01*
X0116641Y0113820D02*
X0094140Y0113820D01*
X0093543Y0111757D02*
X0095056Y0111149D01*
X0096221Y0110008D01*
X0096861Y0108507D01*
X0096878Y0106876D01*
X0096270Y0105363D01*
X0095129Y0104198D01*
X0093628Y0103558D01*
X0086798Y0103486D01*
X0085284Y0104095D01*
X0084119Y0105236D01*
X0083479Y0106736D01*
X0083462Y0108367D01*
X0084070Y0109880D01*
X0085212Y0111046D01*
X0086712Y0111686D01*
X0093543Y0111757D01*
X0094366Y0111426D02*
X0115365Y0111426D01*
X0115210Y0111360D02*
X0116710Y0112000D01*
X0123541Y0112071D01*
X0125054Y0111463D01*
X0126220Y0110322D01*
X0126860Y0108822D01*
X0126877Y0107191D01*
X0126268Y0105677D01*
X0125127Y0104512D01*
X0123627Y0103872D01*
X0116796Y0103800D01*
X0115283Y0104409D01*
X0114117Y0105550D01*
X0113477Y0107050D01*
X0113460Y0108681D01*
X0114069Y0110195D01*
X0115210Y0111360D01*
X0114689Y0110828D02*
X0095384Y0110828D01*
X0095995Y0110229D02*
X0114103Y0110229D01*
X0113842Y0109631D02*
X0096382Y0109631D01*
X0096638Y0109032D02*
X0113601Y0109032D01*
X0113463Y0108434D02*
X0096862Y0108434D01*
X0096868Y0107835D02*
X0113469Y0107835D01*
X0113476Y0107237D02*
X0096875Y0107237D01*
X0096783Y0106638D02*
X0113653Y0106638D01*
X0113909Y0106039D02*
X0096542Y0106039D01*
X0096301Y0105441D02*
X0114229Y0105441D01*
X0114840Y0104842D02*
X0095760Y0104842D01*
X0095174Y0104244D02*
X0115693Y0104244D01*
X0116815Y0102000D02*
X0115315Y0101361D01*
X0114174Y0100195D01*
X0113565Y0098682D01*
X0113582Y0097051D01*
X0114222Y0095551D01*
X0115387Y0094409D01*
X0116901Y0093801D01*
X0123732Y0093872D01*
X0125232Y0094512D01*
X0126373Y0095678D01*
X0126981Y0097191D01*
X0126964Y0098822D01*
X0126324Y0100322D01*
X0125159Y0101464D01*
X0123646Y0102072D01*
X0116815Y0102000D01*
X0116462Y0101850D02*
X0013845Y0101850D01*
X0014502Y0102448D02*
X0133534Y0102448D01*
X0133469Y0102383D02*
X0132845Y0100876D01*
X0132845Y0099245D01*
X0133469Y0097738D01*
X0134622Y0096585D01*
X0136129Y0095961D01*
X0137760Y0095961D01*
X0139267Y0096585D01*
X0140421Y0097738D01*
X0141045Y0099245D01*
X0141045Y0100876D01*
X0140421Y0102383D01*
X0139267Y0103536D01*
X0137760Y0104161D01*
X0136129Y0104161D01*
X0134622Y0103536D01*
X0133469Y0102383D01*
X0133248Y0101850D02*
X0124198Y0101850D01*
X0125376Y0101251D02*
X0133000Y0101251D01*
X0132845Y0100653D02*
X0125987Y0100653D01*
X0126439Y0100054D02*
X0132845Y0100054D01*
X0132845Y0099456D02*
X0126694Y0099456D01*
X0126949Y0098857D02*
X0133006Y0098857D01*
X0133253Y0098259D02*
X0126970Y0098259D01*
X0126977Y0097660D02*
X0133547Y0097660D01*
X0134145Y0097062D02*
X0126930Y0097062D01*
X0126689Y0096463D02*
X0134916Y0096463D01*
X0138974Y0096463D02*
X0155027Y0096463D01*
X0155329Y0096161D02*
X0153045Y0098445D01*
X0153045Y0099761D01*
X0156645Y0099761D01*
X0156645Y0100361D01*
X0156645Y0103961D01*
X0155329Y0103961D01*
X0153045Y0101676D01*
X0153045Y0100361D01*
X0156645Y0100361D01*
X0157245Y0100361D01*
X0157245Y0103961D01*
X0158560Y0103961D01*
X0160845Y0101676D01*
X0160845Y0100361D01*
X0157245Y0100361D01*
X0157245Y0099761D01*
X0160845Y0099761D01*
X0160845Y0098445D01*
X0158560Y0096161D01*
X0157245Y0096161D01*
X0157245Y0099761D01*
X0156645Y0099761D01*
X0156645Y0096161D01*
X0155329Y0096161D01*
X0154428Y0097062D02*
X0139744Y0097062D01*
X0140343Y0097660D02*
X0153830Y0097660D01*
X0153231Y0098259D02*
X0140636Y0098259D01*
X0140884Y0098857D02*
X0153045Y0098857D01*
X0153045Y0099456D02*
X0141045Y0099456D01*
X0141045Y0100054D02*
X0156645Y0100054D01*
X0156645Y0099456D02*
X0157245Y0099456D01*
X0157245Y0100054D02*
X0172209Y0100054D01*
X0171610Y0099456D02*
X0160845Y0099456D01*
X0160845Y0098857D02*
X0171012Y0098857D01*
X0170413Y0098259D02*
X0160658Y0098259D01*
X0160060Y0097660D02*
X0169815Y0097660D01*
X0169216Y0097062D02*
X0159461Y0097062D01*
X0158863Y0096463D02*
X0168618Y0096463D01*
X0168019Y0095865D02*
X0126448Y0095865D01*
X0125970Y0095266D02*
X0167421Y0095266D01*
X0166822Y0094668D02*
X0125384Y0094668D01*
X0124193Y0094069D02*
X0166224Y0094069D01*
X0165625Y0093471D02*
X0015457Y0093471D01*
X0015704Y0094069D02*
X0085454Y0094069D01*
X0084804Y0094668D02*
X0015952Y0094668D01*
X0016200Y0095266D02*
X0016200Y0097334D01*
X0016065Y0097660D02*
X0083574Y0097660D01*
X0083568Y0098259D02*
X0015817Y0098259D01*
X0015569Y0098857D02*
X0083764Y0098857D01*
X0084004Y0099456D02*
X0015198Y0099456D01*
X0014600Y0100054D02*
X0084345Y0100054D01*
X0084931Y0100653D02*
X0014001Y0100653D01*
X0012634Y0101251D02*
X0085797Y0101251D01*
X0086402Y0103645D02*
X0015529Y0103645D01*
X0015777Y0104244D02*
X0085132Y0104244D01*
X0084521Y0104842D02*
X0016025Y0104842D01*
X0016200Y0105441D02*
X0084032Y0105441D01*
X0083776Y0106039D02*
X0016200Y0106039D01*
X0016200Y0106638D02*
X0083521Y0106638D01*
X0083474Y0107237D02*
X0016200Y0107237D01*
X0015993Y0107835D02*
X0083468Y0107835D01*
X0083489Y0108434D02*
X0015745Y0108434D01*
X0015497Y0109032D02*
X0083729Y0109032D01*
X0083970Y0109631D02*
X0015023Y0109631D01*
X0014425Y0110229D02*
X0084412Y0110229D01*
X0084998Y0110828D02*
X0013658Y0110828D01*
X0012822Y0111426D02*
X0086103Y0111426D01*
X0085861Y0113820D02*
X0015601Y0113820D01*
X0015849Y0114419D02*
X0084848Y0114419D01*
X0084237Y0115017D02*
X0016097Y0115017D01*
X0016200Y0115616D02*
X0083852Y0115616D01*
X0083597Y0116214D02*
X0016200Y0116214D01*
X0016200Y0116813D02*
X0083374Y0116813D01*
X0083367Y0117411D02*
X0016168Y0117411D01*
X0015920Y0118010D02*
X0083361Y0118010D01*
X0083455Y0118608D02*
X0015672Y0118608D01*
X0015424Y0119207D02*
X0083695Y0119207D01*
X0083936Y0119805D02*
X0014849Y0119805D01*
X0014250Y0120404D02*
X0084479Y0120404D01*
X0085065Y0121002D02*
X0013236Y0121002D01*
X0013243Y0121601D02*
X0086409Y0121601D01*
X0085320Y0123995D02*
X0015674Y0123995D01*
X0015922Y0124593D02*
X0084565Y0124593D01*
X0083953Y0125192D02*
X0016169Y0125192D01*
X0016200Y0125790D02*
X0083673Y0125790D01*
X0083417Y0126389D02*
X0016200Y0126389D01*
X0016200Y0126987D02*
X0083267Y0126987D01*
X0083261Y0127586D02*
X0016096Y0127586D01*
X0015848Y0128184D02*
X0083255Y0128184D01*
X0083420Y0128783D02*
X0015600Y0128783D01*
X0015272Y0129381D02*
X0083661Y0129381D01*
X0083959Y0129980D02*
X0014674Y0129980D01*
X0014075Y0130578D02*
X0084546Y0130578D01*
X0085312Y0131177D02*
X0012814Y0131177D01*
X0013665Y0131775D02*
X0091430Y0131775D01*
X0092028Y0132374D02*
X0014428Y0132374D01*
X0015026Y0132972D02*
X0092627Y0132972D01*
X0091000Y0128800D02*
X0089961Y0127621D01*
X0091000Y0128800D02*
X0108500Y0146300D01*
X0108500Y0168800D01*
X0148500Y0168800D01*
X0128909Y0179058D02*
X0122980Y0179058D01*
X0123579Y0179656D02*
X0128311Y0179656D01*
X0127712Y0180255D02*
X0124177Y0180255D01*
X0124776Y0180853D02*
X0127114Y0180853D01*
X0126845Y0181452D02*
X0125045Y0181452D01*
X0125045Y0182050D02*
X0126845Y0182050D01*
X0126845Y0182649D02*
X0125045Y0182649D01*
X0125045Y0183247D02*
X0126845Y0183247D01*
X0126845Y0183846D02*
X0125045Y0183846D01*
X0125045Y0184444D02*
X0126845Y0184444D01*
X0127369Y0185043D02*
X0124521Y0185043D01*
X0123922Y0185641D02*
X0127968Y0185641D01*
X0128566Y0186240D02*
X0123324Y0186240D01*
X0123911Y0186839D02*
X0122725Y0186839D01*
X0123313Y0187437D02*
X0007500Y0187437D01*
X0007500Y0186839D02*
X0013495Y0186839D01*
X0014346Y0187191D02*
X0011732Y0186108D01*
X0009732Y0184108D01*
X0008650Y0181495D01*
X0008650Y0178666D01*
X0009732Y0176053D01*
X0011732Y0174053D01*
X0014346Y0172970D01*
X0017174Y0172970D01*
X0019787Y0174053D01*
X0021788Y0176053D01*
X0022870Y0178666D01*
X0022870Y0181495D01*
X0021788Y0184108D01*
X0019787Y0186108D01*
X0017174Y0187191D01*
X0014346Y0187191D01*
X0012051Y0186240D02*
X0007500Y0186240D01*
X0007500Y0185641D02*
X0011266Y0185641D01*
X0010667Y0185043D02*
X0007500Y0185043D01*
X0007500Y0184444D02*
X0010069Y0184444D01*
X0009624Y0183846D02*
X0007500Y0183846D01*
X0007500Y0183247D02*
X0009376Y0183247D01*
X0009128Y0182649D02*
X0007500Y0182649D01*
X0007500Y0182050D02*
X0008880Y0182050D01*
X0008650Y0181452D02*
X0007500Y0181452D01*
X0007500Y0180853D02*
X0008650Y0180853D01*
X0008650Y0180255D02*
X0007500Y0180255D01*
X0007500Y0179656D02*
X0008650Y0179656D01*
X0008650Y0179058D02*
X0007500Y0179058D01*
X0007500Y0178459D02*
X0008735Y0178459D01*
X0008983Y0177861D02*
X0007500Y0177861D01*
X0007500Y0177262D02*
X0009231Y0177262D01*
X0009479Y0176664D02*
X0007500Y0176664D01*
X0007500Y0176065D02*
X0009727Y0176065D01*
X0010318Y0175467D02*
X0007500Y0175467D01*
X0007500Y0174868D02*
X0010917Y0174868D01*
X0011515Y0174270D02*
X0007500Y0174270D01*
X0007500Y0173671D02*
X0012653Y0173671D01*
X0014098Y0173073D02*
X0007500Y0173073D01*
X0007500Y0172474D02*
X0047129Y0172474D01*
X0047727Y0173073D02*
X0046162Y0173073D01*
X0046530Y0171876D02*
X0007500Y0171876D01*
X0007500Y0171277D02*
X0045932Y0171277D01*
X0045333Y0170679D02*
X0007500Y0170679D01*
X0007500Y0170080D02*
X0044735Y0170080D01*
X0044136Y0169482D02*
X0007500Y0169482D01*
X0007500Y0168883D02*
X0043538Y0168883D01*
X0042939Y0168285D02*
X0035336Y0168285D01*
X0036082Y0167686D02*
X0042341Y0167686D01*
X0041742Y0167088D02*
X0036681Y0167088D01*
X0036960Y0166489D02*
X0041144Y0166489D01*
X0040545Y0165891D02*
X0037208Y0165891D01*
X0037354Y0165292D02*
X0039947Y0165292D01*
X0039348Y0164694D02*
X0037354Y0164694D01*
X0037354Y0164095D02*
X0038749Y0164095D01*
X0038500Y0161300D02*
X0036429Y0160002D01*
X0038500Y0161300D02*
X0048500Y0171300D01*
X0073500Y0171300D01*
X0061669Y0174868D02*
X0049343Y0174868D01*
X0049942Y0175467D02*
X0060471Y0175467D01*
X0059873Y0176065D02*
X0050533Y0176065D01*
X0050781Y0176664D02*
X0059341Y0176664D01*
X0059094Y0177262D02*
X0051029Y0177262D01*
X0051277Y0177861D02*
X0058846Y0177861D01*
X0058709Y0178459D02*
X0051525Y0178459D01*
X0051610Y0179058D02*
X0058709Y0179058D01*
X0058709Y0179656D02*
X0051610Y0179656D01*
X0051610Y0180255D02*
X0058827Y0180255D01*
X0059075Y0180853D02*
X0051610Y0180853D01*
X0051610Y0181452D02*
X0059323Y0181452D01*
X0059828Y0182050D02*
X0051380Y0182050D01*
X0051132Y0182649D02*
X0060426Y0182649D01*
X0061561Y0183247D02*
X0050884Y0183247D01*
X0050636Y0183846D02*
X0116845Y0183846D01*
X0116845Y0184444D02*
X0050191Y0184444D01*
X0049593Y0185043D02*
X0117369Y0185043D01*
X0117968Y0185641D02*
X0048994Y0185641D01*
X0048209Y0186240D02*
X0118566Y0186240D01*
X0119165Y0186839D02*
X0046764Y0186839D01*
X0042236Y0186839D02*
X0018024Y0186839D01*
X0019469Y0186240D02*
X0040791Y0186240D01*
X0040006Y0185641D02*
X0020254Y0185641D01*
X0020853Y0185043D02*
X0039407Y0185043D01*
X0038809Y0184444D02*
X0021451Y0184444D01*
X0021896Y0183846D02*
X0038364Y0183846D01*
X0038116Y0183247D02*
X0022144Y0183247D01*
X0022392Y0182649D02*
X0037868Y0182649D01*
X0037620Y0182050D02*
X0022640Y0182050D01*
X0022870Y0181452D02*
X0037390Y0181452D01*
X0037390Y0180853D02*
X0022870Y0180853D01*
X0022870Y0180255D02*
X0037390Y0180255D01*
X0037390Y0179656D02*
X0022870Y0179656D01*
X0022870Y0179058D02*
X0037390Y0179058D01*
X0037475Y0178459D02*
X0022784Y0178459D01*
X0022537Y0177861D02*
X0037723Y0177861D01*
X0037971Y0177262D02*
X0022289Y0177262D01*
X0022041Y0176664D02*
X0038219Y0176664D01*
X0038467Y0176065D02*
X0021793Y0176065D01*
X0021202Y0175467D02*
X0039058Y0175467D01*
X0039657Y0174868D02*
X0020603Y0174868D01*
X0020005Y0174270D02*
X0040255Y0174270D01*
X0041393Y0173671D02*
X0018867Y0173671D01*
X0017422Y0173073D02*
X0042838Y0173073D01*
X0040848Y0161103D02*
X0084827Y0161103D01*
X0084160Y0160504D02*
X0040504Y0160504D01*
X0040504Y0159905D02*
X0083574Y0159905D01*
X0083317Y0159307D02*
X0040504Y0159307D01*
X0040304Y0158708D02*
X0083077Y0158708D01*
X0082941Y0158110D02*
X0040056Y0158110D01*
X0039702Y0157511D02*
X0082947Y0157511D01*
X0082954Y0156913D02*
X0039103Y0156913D01*
X0038175Y0156314D02*
X0083134Y0156314D01*
X0083390Y0155716D02*
X0007500Y0155716D01*
X0007500Y0156314D02*
X0022607Y0156314D01*
X0023531Y0156314D02*
X0024131Y0156314D01*
X0024131Y0156913D02*
X0023531Y0156913D01*
X0023531Y0157511D02*
X0024131Y0157511D01*
X0024131Y0158110D02*
X0023531Y0158110D01*
X0023531Y0158708D02*
X0024131Y0158708D01*
X0024131Y0159307D02*
X0023531Y0159307D01*
X0023531Y0159905D02*
X0007500Y0159905D01*
X0007500Y0159307D02*
X0020018Y0159307D01*
X0020172Y0158708D02*
X0007500Y0158708D01*
X0007500Y0158110D02*
X0020434Y0158110D01*
X0020841Y0157511D02*
X0007500Y0157511D01*
X0007500Y0156913D02*
X0021479Y0156913D01*
X0025054Y0156314D02*
X0028384Y0156314D01*
X0027456Y0156913D02*
X0026183Y0156913D01*
X0026820Y0157511D02*
X0026857Y0157511D01*
X0021247Y0162898D02*
X0007500Y0162898D01*
X0007500Y0162300D02*
X0020706Y0162300D01*
X0020341Y0161701D02*
X0007500Y0161701D01*
X0007500Y0161103D02*
X0020099Y0161103D01*
X0019980Y0160504D02*
X0007500Y0160504D01*
X0007500Y0163497D02*
X0022143Y0163497D01*
X0022906Y0164095D02*
X0007500Y0164095D01*
X0007500Y0164694D02*
X0022906Y0164694D01*
X0022906Y0165292D02*
X0007500Y0165292D01*
X0007500Y0165891D02*
X0023052Y0165891D01*
X0023300Y0166489D02*
X0007500Y0166489D01*
X0007500Y0167088D02*
X0023579Y0167088D01*
X0024178Y0167686D02*
X0007500Y0167686D01*
X0007500Y0168285D02*
X0024924Y0168285D01*
X0029037Y0168285D02*
X0031223Y0168285D01*
X0030477Y0167686D02*
X0029783Y0167686D01*
X0032804Y0156913D02*
X0033755Y0156913D01*
X0034683Y0156314D02*
X0031876Y0156314D01*
X0015098Y0139556D02*
X0083627Y0139556D01*
X0083386Y0138958D02*
X0015528Y0138958D01*
X0015776Y0138359D02*
X0083148Y0138359D01*
X0083154Y0137761D02*
X0016023Y0137761D01*
X0016200Y0137162D02*
X0083161Y0137162D01*
X0083238Y0136564D02*
X0016200Y0136564D01*
X0016200Y0135965D02*
X0083493Y0135965D01*
X0083748Y0135367D02*
X0016200Y0135367D01*
X0015994Y0134768D02*
X0084281Y0134768D01*
X0084892Y0134170D02*
X0015746Y0134170D01*
X0015498Y0133571D02*
X0086269Y0133571D01*
X0084026Y0140155D02*
X0014499Y0140155D01*
X0013837Y0140753D02*
X0084613Y0140753D01*
X0085618Y0141352D02*
X0012392Y0141352D01*
X0007500Y0153920D02*
X0085187Y0153920D01*
X0084325Y0154519D02*
X0007500Y0154519D01*
X0007500Y0155117D02*
X0083714Y0155117D01*
X0095144Y0140753D02*
X0100408Y0140753D01*
X0099809Y0140155D02*
X0095756Y0140155D01*
X0096099Y0139556D02*
X0099211Y0139556D01*
X0098612Y0138958D02*
X0096354Y0138958D01*
X0096549Y0138359D02*
X0098014Y0138359D01*
X0097415Y0137761D02*
X0096555Y0137761D01*
X0096561Y0137162D02*
X0096816Y0137162D01*
X0104726Y0129980D02*
X0113774Y0129980D01*
X0113533Y0129381D02*
X0104127Y0129381D01*
X0103528Y0128783D02*
X0113292Y0128783D01*
X0113256Y0128184D02*
X0102930Y0128184D01*
X0102331Y0127586D02*
X0113262Y0127586D01*
X0113294Y0126987D02*
X0101733Y0126987D01*
X0101134Y0126389D02*
X0113550Y0126389D01*
X0113805Y0125790D02*
X0100536Y0125790D01*
X0099937Y0125192D02*
X0114273Y0125192D01*
X0114884Y0124593D02*
X0099339Y0124593D01*
X0098740Y0123995D02*
X0116100Y0123995D01*
X0114236Y0130578D02*
X0105324Y0130578D01*
X0105923Y0131177D02*
X0114822Y0131177D01*
X0115977Y0131775D02*
X0106521Y0131775D01*
X0111000Y0138800D02*
X0111000Y0166300D01*
X0106700Y0168285D02*
X0100530Y0168285D01*
X0101129Y0168883D02*
X0106700Y0168883D01*
X0106700Y0169482D02*
X0101727Y0169482D01*
X0101000Y0171300D02*
X0196000Y0171300D01*
X0198500Y0173800D01*
X0198500Y0175635D01*
X0198200Y0186240D02*
X0198800Y0186240D01*
X0198800Y0186839D02*
X0198200Y0186839D01*
X0198200Y0187437D02*
X0198800Y0187437D01*
X0198800Y0188036D02*
X0198200Y0188036D01*
X0198200Y0188634D02*
X0198800Y0188634D01*
X0198800Y0189233D02*
X0198200Y0189233D01*
X0198200Y0189831D02*
X0198800Y0189831D01*
X0198800Y0190430D02*
X0198200Y0190430D01*
X0197074Y0190430D02*
X0126245Y0190430D01*
X0126245Y0190621D02*
X0129845Y0190621D01*
X0129845Y0191936D01*
X0127560Y0194221D01*
X0126245Y0194221D01*
X0126245Y0190621D01*
X0125645Y0190621D01*
X0125645Y0194221D01*
X0124329Y0194221D01*
X0122045Y0191936D01*
X0122045Y0190621D01*
X0125645Y0190621D01*
X0125645Y0190021D01*
X0122045Y0190021D01*
X0122045Y0188705D01*
X0124329Y0186421D01*
X0125645Y0186421D01*
X0125645Y0190020D01*
X0126245Y0190020D01*
X0126245Y0186421D01*
X0127560Y0186421D01*
X0129845Y0188705D01*
X0129845Y0190021D01*
X0126245Y0190021D01*
X0126245Y0190621D01*
X0126245Y0191028D02*
X0125645Y0191028D01*
X0125645Y0190430D02*
X0007500Y0190430D01*
X0007500Y0191028D02*
X0122045Y0191028D01*
X0122045Y0191627D02*
X0007500Y0191627D01*
X0007500Y0192225D02*
X0122334Y0192225D01*
X0122933Y0192824D02*
X0007500Y0192824D01*
X0007500Y0193422D02*
X0123531Y0193422D01*
X0124130Y0194021D02*
X0007500Y0194021D01*
X0007500Y0194619D02*
X0201000Y0194619D01*
X0201000Y0194021D02*
X0127760Y0194021D01*
X0128359Y0193422D02*
X0201000Y0193422D01*
X0201000Y0192824D02*
X0128957Y0192824D01*
X0129556Y0192225D02*
X0201000Y0192225D01*
X0201000Y0191627D02*
X0129845Y0191627D01*
X0129845Y0191028D02*
X0201000Y0191028D01*
X0201000Y0190430D02*
X0199926Y0190430D01*
X0195768Y0189831D02*
X0129845Y0189831D01*
X0129845Y0189233D02*
X0195026Y0189233D01*
X0194498Y0188634D02*
X0129774Y0188634D01*
X0129175Y0188036D02*
X0194111Y0188036D01*
X0193828Y0187437D02*
X0128577Y0187437D01*
X0129165Y0186839D02*
X0127978Y0186839D01*
X0126245Y0186839D02*
X0125645Y0186839D01*
X0125645Y0187437D02*
X0126245Y0187437D01*
X0126245Y0188036D02*
X0125645Y0188036D01*
X0125645Y0188634D02*
X0126245Y0188634D01*
X0126245Y0189233D02*
X0125645Y0189233D01*
X0125645Y0189831D02*
X0126245Y0189831D01*
X0126245Y0191627D02*
X0125645Y0191627D01*
X0125645Y0192225D02*
X0126245Y0192225D01*
X0126245Y0192824D02*
X0125645Y0192824D01*
X0125645Y0193422D02*
X0126245Y0193422D01*
X0126245Y0194021D02*
X0125645Y0194021D01*
X0122045Y0189831D02*
X0007500Y0189831D01*
X0007500Y0189233D02*
X0122045Y0189233D01*
X0122116Y0188634D02*
X0007500Y0188634D01*
X0007500Y0188036D02*
X0122714Y0188036D01*
X0132725Y0186839D02*
X0193634Y0186839D01*
X0193533Y0186240D02*
X0133324Y0186240D01*
X0111000Y0138800D02*
X0091000Y0118800D01*
X0090066Y0117621D01*
X0091854Y0122199D02*
X0014253Y0122199D01*
X0014852Y0122798D02*
X0092452Y0122798D01*
X0093051Y0123396D02*
X0015426Y0123396D01*
X0015276Y0113222D02*
X0194224Y0113222D01*
X0193899Y0113820D02*
X0118632Y0113820D01*
X0119068Y0112025D02*
X0014079Y0112025D01*
X0014677Y0112623D02*
X0194823Y0112623D01*
X0195421Y0112025D02*
X0123658Y0112025D01*
X0125092Y0111426D02*
X0196678Y0111426D01*
X0195842Y0110828D02*
X0125703Y0110828D01*
X0126259Y0110229D02*
X0195075Y0110229D01*
X0194477Y0109631D02*
X0126515Y0109631D01*
X0126770Y0109032D02*
X0194003Y0109032D01*
X0193755Y0108434D02*
X0126864Y0108434D01*
X0126870Y0107835D02*
X0179989Y0107835D01*
X0179391Y0107237D02*
X0126876Y0107237D01*
X0126655Y0106638D02*
X0178792Y0106638D01*
X0178194Y0106039D02*
X0126414Y0106039D01*
X0126037Y0105441D02*
X0177595Y0105441D01*
X0176997Y0104842D02*
X0125451Y0104842D01*
X0124499Y0104244D02*
X0176398Y0104244D01*
X0175800Y0103645D02*
X0158876Y0103645D01*
X0159474Y0103047D02*
X0175201Y0103047D01*
X0174603Y0102448D02*
X0160073Y0102448D01*
X0160671Y0101850D02*
X0174004Y0101850D01*
X0173406Y0101251D02*
X0160845Y0101251D01*
X0160845Y0100653D02*
X0172807Y0100653D01*
X0173500Y0096300D02*
X0198500Y0096300D01*
X0193617Y0094500D02*
X0194092Y0093354D01*
X0195554Y0091892D01*
X0196983Y0091300D01*
X0195554Y0090708D01*
X0194092Y0089246D01*
X0193300Y0087334D01*
X0193300Y0085266D01*
X0193775Y0084120D01*
X0177754Y0068100D01*
X0147846Y0068100D01*
X0174246Y0094500D01*
X0193617Y0094500D01*
X0193796Y0094069D02*
X0173815Y0094069D01*
X0173216Y0093471D02*
X0194043Y0093471D01*
X0194574Y0092872D02*
X0172618Y0092872D01*
X0172019Y0092274D02*
X0195172Y0092274D01*
X0196077Y0091675D02*
X0171421Y0091675D01*
X0170822Y0091077D02*
X0196444Y0091077D01*
X0195324Y0090478D02*
X0170224Y0090478D01*
X0169625Y0089880D02*
X0194726Y0089880D01*
X0194127Y0089281D02*
X0169027Y0089281D01*
X0168428Y0088683D02*
X0193858Y0088683D01*
X0193611Y0088084D02*
X0167830Y0088084D01*
X0167231Y0087486D02*
X0193363Y0087486D01*
X0193300Y0086887D02*
X0166633Y0086887D01*
X0166034Y0086289D02*
X0193300Y0086289D01*
X0193300Y0085690D02*
X0165436Y0085690D01*
X0164837Y0085092D02*
X0193372Y0085092D01*
X0193620Y0084493D02*
X0164239Y0084493D01*
X0163640Y0083895D02*
X0193549Y0083895D01*
X0192950Y0083296D02*
X0163042Y0083296D01*
X0162443Y0082698D02*
X0192352Y0082698D01*
X0191753Y0082099D02*
X0161845Y0082099D01*
X0161246Y0081501D02*
X0191155Y0081501D01*
X0190556Y0080902D02*
X0160648Y0080902D01*
X0160049Y0080303D02*
X0189958Y0080303D01*
X0189359Y0079705D02*
X0159451Y0079705D01*
X0158852Y0079106D02*
X0188761Y0079106D01*
X0188162Y0078508D02*
X0158254Y0078508D01*
X0157655Y0077909D02*
X0187564Y0077909D01*
X0186965Y0077311D02*
X0161490Y0077311D01*
X0161265Y0077535D02*
X0159950Y0077535D01*
X0159950Y0073936D01*
X0159350Y0073936D01*
X0159350Y0077535D01*
X0158034Y0077535D01*
X0155750Y0075251D01*
X0155750Y0073935D01*
X0159350Y0073935D01*
X0159350Y0073335D01*
X0159950Y0073335D01*
X0159950Y0073935D01*
X0163550Y0073935D01*
X0163550Y0075251D01*
X0161265Y0077535D01*
X0162088Y0076712D02*
X0186367Y0076712D01*
X0185768Y0076114D02*
X0162687Y0076114D01*
X0163285Y0075515D02*
X0185170Y0075515D01*
X0184571Y0074917D02*
X0163550Y0074917D01*
X0163550Y0074318D02*
X0183973Y0074318D01*
X0183374Y0073720D02*
X0159950Y0073720D01*
X0159950Y0073335D02*
X0163550Y0073335D01*
X0163550Y0072020D01*
X0161265Y0069735D01*
X0159950Y0069735D01*
X0159950Y0073335D01*
X0159950Y0073121D02*
X0159350Y0073121D01*
X0159350Y0073335D02*
X0159350Y0069735D01*
X0158034Y0069735D01*
X0155750Y0072020D01*
X0155750Y0073335D01*
X0159350Y0073335D01*
X0159350Y0073720D02*
X0153465Y0073720D01*
X0152867Y0073121D02*
X0155750Y0073121D01*
X0155750Y0072523D02*
X0152268Y0072523D01*
X0151670Y0071924D02*
X0155845Y0071924D01*
X0156444Y0071326D02*
X0151071Y0071326D01*
X0150473Y0070727D02*
X0157042Y0070727D01*
X0157641Y0070129D02*
X0149874Y0070129D01*
X0149276Y0069530D02*
X0179185Y0069530D01*
X0178586Y0068932D02*
X0148677Y0068932D01*
X0148079Y0068333D02*
X0177988Y0068333D01*
X0178500Y0066300D02*
X0198500Y0086300D01*
X0196499Y0081501D02*
X0196246Y0081501D01*
X0196022Y0080902D02*
X0195648Y0080902D01*
X0195150Y0080303D02*
X0195049Y0080303D01*
X0194551Y0079705D02*
X0194451Y0079705D01*
X0194034Y0079106D02*
X0193852Y0079106D01*
X0193786Y0078508D02*
X0193254Y0078508D01*
X0193538Y0077909D02*
X0192655Y0077909D01*
X0192057Y0077311D02*
X0193300Y0077311D01*
X0193300Y0076712D02*
X0191458Y0076712D01*
X0190859Y0076114D02*
X0193300Y0076114D01*
X0193300Y0075515D02*
X0190261Y0075515D01*
X0189662Y0074917D02*
X0193444Y0074917D01*
X0193692Y0074318D02*
X0189064Y0074318D01*
X0188465Y0073720D02*
X0193940Y0073720D01*
X0194325Y0073121D02*
X0187867Y0073121D01*
X0187268Y0072523D02*
X0194923Y0072523D01*
X0195522Y0071924D02*
X0186670Y0071924D01*
X0186071Y0071326D02*
X0196920Y0071326D01*
X0196176Y0070727D02*
X0185473Y0070727D01*
X0184874Y0070129D02*
X0195263Y0070129D01*
X0194667Y0069530D02*
X0184276Y0069530D01*
X0183677Y0068932D02*
X0194232Y0068932D01*
X0193924Y0068333D02*
X0183079Y0068333D01*
X0182480Y0067735D02*
X0193709Y0067735D01*
X0193570Y0067136D02*
X0181882Y0067136D01*
X0181283Y0066538D02*
X0198200Y0066538D01*
X0198200Y0066000D02*
X0193500Y0066000D01*
X0193500Y0065906D01*
X0193623Y0065129D01*
X0193866Y0064381D01*
X0194224Y0063679D01*
X0194686Y0063043D01*
X0195243Y0062486D01*
X0195879Y0062024D01*
X0196581Y0061666D01*
X0197329Y0061423D01*
X0198106Y0061300D01*
X0198200Y0061300D01*
X0198200Y0066000D01*
X0198200Y0065939D02*
X0198800Y0065939D01*
X0198800Y0065341D02*
X0198200Y0065341D01*
X0198200Y0064742D02*
X0198800Y0064742D01*
X0198800Y0064144D02*
X0198200Y0064144D01*
X0198200Y0063545D02*
X0198800Y0063545D01*
X0198800Y0062947D02*
X0198200Y0062947D01*
X0198200Y0062348D02*
X0198800Y0062348D01*
X0198800Y0061750D02*
X0198200Y0061750D01*
X0196417Y0061750D02*
X0182641Y0061750D01*
X0182485Y0061906D02*
X0181170Y0061906D01*
X0181170Y0058306D01*
X0180570Y0058306D01*
X0180570Y0061906D01*
X0179255Y0061906D01*
X0176970Y0059621D01*
X0176970Y0058306D01*
X0180570Y0058306D01*
X0180570Y0057706D01*
X0176970Y0057706D01*
X0176970Y0056390D01*
X0179255Y0054106D01*
X0180570Y0054106D01*
X0180570Y0057706D01*
X0181170Y0057706D01*
X0181170Y0058306D01*
X0184770Y0058306D01*
X0184770Y0059621D01*
X0182485Y0061906D01*
X0183240Y0061151D02*
X0201000Y0061151D01*
X0201000Y0060553D02*
X0183838Y0060553D01*
X0184437Y0059954D02*
X0201000Y0059954D01*
X0201000Y0059356D02*
X0184770Y0059356D01*
X0184770Y0058757D02*
X0201000Y0058757D01*
X0201000Y0058159D02*
X0181170Y0058159D01*
X0181170Y0057706D02*
X0184770Y0057706D01*
X0184770Y0056390D01*
X0182485Y0054106D01*
X0181170Y0054106D01*
X0181170Y0057706D01*
X0181170Y0057560D02*
X0180570Y0057560D01*
X0180570Y0056962D02*
X0181170Y0056962D01*
X0181170Y0056363D02*
X0180570Y0056363D01*
X0180570Y0055765D02*
X0181170Y0055765D01*
X0181170Y0055166D02*
X0180570Y0055166D01*
X0180570Y0054568D02*
X0181170Y0054568D01*
X0182947Y0054568D02*
X0201000Y0054568D01*
X0201000Y0055166D02*
X0183546Y0055166D01*
X0184144Y0055765D02*
X0201000Y0055765D01*
X0201000Y0056363D02*
X0184743Y0056363D01*
X0184770Y0056962D02*
X0201000Y0056962D01*
X0201000Y0057560D02*
X0184770Y0057560D01*
X0181170Y0058757D02*
X0180570Y0058757D01*
X0180570Y0058159D02*
X0154695Y0058159D01*
X0154695Y0058176D02*
X0152411Y0060461D01*
X0151095Y0060461D01*
X0151095Y0056861D01*
X0150495Y0056861D01*
X0150495Y0060461D01*
X0149180Y0060461D01*
X0146895Y0058176D01*
X0146895Y0056861D01*
X0150495Y0056861D01*
X0150495Y0056261D01*
X0146895Y0056261D01*
X0146895Y0054945D01*
X0149180Y0052661D01*
X0150495Y0052661D01*
X0150495Y0056261D01*
X0151095Y0056261D01*
X0151095Y0056861D01*
X0154695Y0056861D01*
X0154695Y0058176D01*
X0154695Y0057560D02*
X0176970Y0057560D01*
X0176970Y0056962D02*
X0154695Y0056962D01*
X0154695Y0056261D02*
X0151095Y0056261D01*
X0151095Y0052661D01*
X0152411Y0052661D01*
X0154695Y0054945D01*
X0154695Y0056261D01*
X0154695Y0055765D02*
X0177596Y0055765D01*
X0176997Y0056363D02*
X0151095Y0056363D01*
X0151095Y0055765D02*
X0150495Y0055765D01*
X0150495Y0056363D02*
X0141109Y0056363D01*
X0141707Y0056962D02*
X0146895Y0056962D01*
X0146895Y0057560D02*
X0142306Y0057560D01*
X0142904Y0058159D02*
X0146895Y0058159D01*
X0147476Y0058757D02*
X0143503Y0058757D01*
X0144101Y0059356D02*
X0148075Y0059356D01*
X0148673Y0059954D02*
X0144700Y0059954D01*
X0145298Y0060553D02*
X0177902Y0060553D01*
X0178500Y0061151D02*
X0145897Y0061151D01*
X0146495Y0061750D02*
X0179099Y0061750D01*
X0180570Y0061750D02*
X0181170Y0061750D01*
X0181170Y0061151D02*
X0180570Y0061151D01*
X0180570Y0060553D02*
X0181170Y0060553D01*
X0181170Y0059954D02*
X0180570Y0059954D01*
X0180570Y0059356D02*
X0181170Y0059356D01*
X0177303Y0059954D02*
X0152917Y0059954D01*
X0153516Y0059356D02*
X0176970Y0059356D01*
X0176970Y0058757D02*
X0154114Y0058757D01*
X0151095Y0058757D02*
X0150495Y0058757D01*
X0150495Y0058159D02*
X0151095Y0058159D01*
X0151095Y0057560D02*
X0150495Y0057560D01*
X0150495Y0056962D02*
X0151095Y0056962D01*
X0151095Y0055166D02*
X0150495Y0055166D01*
X0150495Y0054568D02*
X0151095Y0054568D01*
X0151095Y0053969D02*
X0150495Y0053969D01*
X0150495Y0053370D02*
X0151095Y0053370D01*
X0151095Y0052772D02*
X0150495Y0052772D01*
X0149069Y0052772D02*
X0137518Y0052772D01*
X0138116Y0053370D02*
X0148470Y0053370D01*
X0147872Y0053969D02*
X0138715Y0053969D01*
X0139313Y0054568D02*
X0147273Y0054568D01*
X0146895Y0055166D02*
X0139912Y0055166D01*
X0140510Y0055765D02*
X0146895Y0055765D01*
X0150495Y0059356D02*
X0151095Y0059356D01*
X0151095Y0059954D02*
X0150495Y0059954D01*
X0147692Y0062947D02*
X0194782Y0062947D01*
X0194321Y0063545D02*
X0148291Y0063545D01*
X0148889Y0064144D02*
X0193987Y0064144D01*
X0193749Y0064742D02*
X0179488Y0064742D01*
X0180086Y0065341D02*
X0193590Y0065341D01*
X0193500Y0065939D02*
X0180685Y0065939D01*
X0178500Y0066300D02*
X0148500Y0066300D01*
X0121000Y0038800D01*
X0120902Y0037940D01*
X0122252Y0042597D02*
X0105300Y0042597D01*
X0105300Y0041999D02*
X0117432Y0041999D01*
X0116028Y0041400D02*
X0105300Y0041400D01*
X0105300Y0040802D02*
X0115393Y0040802D01*
X0114806Y0040203D02*
X0105300Y0040203D01*
X0105300Y0039605D02*
X0114563Y0039605D01*
X0114323Y0039006D02*
X0105300Y0039006D01*
X0105300Y0038408D02*
X0114196Y0038408D01*
X0114203Y0037809D02*
X0105300Y0037809D01*
X0105300Y0037211D02*
X0114209Y0037211D01*
X0114399Y0036612D02*
X0105300Y0036612D01*
X0105300Y0036014D02*
X0114654Y0036014D01*
X0114992Y0035415D02*
X0105300Y0035415D01*
X0105300Y0034817D02*
X0115603Y0034817D01*
X0116500Y0034218D02*
X0105300Y0034218D01*
X0105300Y0033620D02*
X0201000Y0033620D01*
X0201000Y0034218D02*
X0125163Y0034218D01*
X0126155Y0034817D02*
X0201000Y0034817D01*
X0201000Y0035415D02*
X0126741Y0035415D01*
X0127135Y0036014D02*
X0201000Y0036014D01*
X0201000Y0036612D02*
X0127376Y0036612D01*
X0127610Y0037211D02*
X0201000Y0037211D01*
X0201000Y0037809D02*
X0127603Y0037809D01*
X0127597Y0038408D02*
X0201000Y0038408D01*
X0201000Y0039006D02*
X0127516Y0039006D01*
X0127260Y0039605D02*
X0201000Y0039605D01*
X0201000Y0040203D02*
X0127005Y0040203D01*
X0126467Y0040802D02*
X0201000Y0040802D01*
X0201000Y0041400D02*
X0126146Y0041400D01*
X0126744Y0041999D02*
X0201000Y0041999D01*
X0201000Y0042597D02*
X0127343Y0042597D01*
X0127941Y0043196D02*
X0201000Y0043196D01*
X0201000Y0043794D02*
X0128540Y0043794D01*
X0129138Y0044393D02*
X0201000Y0044393D01*
X0201000Y0044991D02*
X0129737Y0044991D01*
X0130335Y0045590D02*
X0201000Y0045590D01*
X0201000Y0046188D02*
X0130934Y0046188D01*
X0131532Y0046787D02*
X0201000Y0046787D01*
X0201000Y0047385D02*
X0132131Y0047385D01*
X0132729Y0047984D02*
X0201000Y0047984D01*
X0201000Y0048582D02*
X0133328Y0048582D01*
X0133926Y0049181D02*
X0201000Y0049181D01*
X0201000Y0049779D02*
X0134525Y0049779D01*
X0135124Y0050378D02*
X0201000Y0050378D01*
X0201000Y0050976D02*
X0135722Y0050976D01*
X0136321Y0051575D02*
X0201000Y0051575D01*
X0201000Y0052173D02*
X0136919Y0052173D01*
X0126000Y0058800D02*
X0133500Y0066300D01*
X0141000Y0066300D01*
X0181000Y0106300D01*
X0198500Y0106300D01*
X0193651Y0114419D02*
X0124805Y0114419D01*
X0121000Y0116300D02*
X0120064Y0117935D01*
X0121000Y0116300D02*
X0198500Y0116300D01*
X0194651Y0119805D02*
X0194551Y0119805D01*
X0194076Y0119207D02*
X0126590Y0119207D01*
X0126757Y0118608D02*
X0193828Y0118608D01*
X0195149Y0120404D02*
X0195250Y0120404D01*
X0195748Y0121002D02*
X0196264Y0121002D01*
X0193051Y0123396D02*
X0158949Y0123396D01*
X0158351Y0123995D02*
X0193649Y0123995D01*
X0193578Y0124593D02*
X0163071Y0124593D01*
X0163670Y0125192D02*
X0168983Y0125192D01*
X0168385Y0125790D02*
X0164268Y0125790D01*
X0164867Y0126389D02*
X0167786Y0126389D01*
X0167285Y0126987D02*
X0165285Y0126987D01*
X0165285Y0127586D02*
X0167285Y0127586D01*
X0167285Y0128184D02*
X0165285Y0128184D01*
X0170885Y0129980D02*
X0171485Y0129980D01*
X0171485Y0130578D02*
X0170885Y0130578D01*
X0170885Y0131177D02*
X0171485Y0131177D01*
X0171485Y0131775D02*
X0170885Y0131775D01*
X0170885Y0132374D02*
X0171485Y0132374D01*
X0158657Y0131775D02*
X0124065Y0131775D01*
X0125136Y0131177D02*
X0158058Y0131177D01*
X0157460Y0130578D02*
X0125747Y0130578D01*
X0126156Y0129980D02*
X0157085Y0129980D01*
X0157085Y0129381D02*
X0126411Y0129381D01*
X0126651Y0128783D02*
X0157085Y0128783D01*
X0157085Y0128184D02*
X0126657Y0128184D01*
X0124606Y0121601D02*
X0155654Y0121601D01*
X0156252Y0121002D02*
X0125420Y0121002D01*
X0126031Y0120404D02*
X0156851Y0120404D01*
X0157449Y0119805D02*
X0126335Y0119805D01*
X0134885Y0103645D02*
X0093834Y0103645D01*
X0094907Y0101251D02*
X0115208Y0101251D01*
X0114622Y0100653D02*
X0095668Y0100653D01*
X0096279Y0100054D02*
X0114117Y0100054D01*
X0113876Y0099456D02*
X0096562Y0099456D01*
X0096817Y0098857D02*
X0113636Y0098857D01*
X0113570Y0098259D02*
X0096969Y0098259D01*
X0096975Y0097660D02*
X0113576Y0097660D01*
X0113582Y0097062D02*
X0096981Y0097062D01*
X0096817Y0096463D02*
X0113833Y0096463D01*
X0114088Y0095865D02*
X0096576Y0095865D01*
X0096279Y0095266D02*
X0114512Y0095266D01*
X0115124Y0094668D02*
X0095693Y0094668D01*
X0094931Y0094069D02*
X0116233Y0094069D01*
X0116920Y0092001D02*
X0115419Y0091361D01*
X0114278Y0090196D01*
X0113670Y0088682D01*
X0113687Y0087051D01*
X0114327Y0085551D01*
X0115492Y0084410D01*
X0117006Y0083801D01*
X0123836Y0083873D01*
X0125337Y0084513D01*
X0126478Y0085678D01*
X0127086Y0087192D01*
X0127069Y0088823D01*
X0126429Y0090323D01*
X0125264Y0091464D01*
X0123750Y0092073D01*
X0116920Y0092001D01*
X0116156Y0091675D02*
X0013423Y0091675D01*
X0013056Y0091077D02*
X0086001Y0091077D01*
X0085896Y0091032D02*
X0086603Y0091334D01*
X0087355Y0091491D01*
X0090039Y0091519D01*
X0090077Y0087920D01*
X0090676Y0087926D01*
X0090639Y0091526D01*
X0093323Y0091554D01*
X0094078Y0091412D01*
X0094791Y0091125D01*
X0095434Y0090705D01*
X0095983Y0090168D01*
X0096416Y0089533D01*
X0096718Y0088827D01*
X0096875Y0088075D01*
X0096876Y0087991D01*
X0090677Y0087926D01*
X0090683Y0087326D01*
X0096882Y0087391D01*
X0096883Y0087307D01*
X0096741Y0086552D01*
X0096455Y0085839D01*
X0096035Y0085196D01*
X0095497Y0084647D01*
X0094863Y0084213D01*
X0094156Y0083912D01*
X0093404Y0083754D01*
X0090720Y0083726D01*
X0090683Y0087326D01*
X0090083Y0087320D01*
X0083883Y0087255D01*
X0083884Y0087171D01*
X0084042Y0086419D01*
X0084343Y0085712D01*
X0084777Y0085078D01*
X0085326Y0084540D01*
X0085969Y0084120D01*
X0086682Y0083834D01*
X0087437Y0083692D01*
X0090121Y0083720D01*
X0090083Y0087320D01*
X0090076Y0087920D01*
X0083877Y0087855D01*
X0083876Y0087939D01*
X0084018Y0088694D01*
X0084305Y0089407D01*
X0084725Y0090050D01*
X0085262Y0090599D01*
X0085896Y0091032D01*
X0085144Y0090478D02*
X0014176Y0090478D01*
X0014774Y0089880D02*
X0084613Y0089880D01*
X0084254Y0089281D02*
X0015373Y0089281D01*
X0015642Y0088683D02*
X0084016Y0088683D01*
X0083903Y0088084D02*
X0015889Y0088084D01*
X0016137Y0087486D02*
X0090081Y0087486D01*
X0090075Y0088084D02*
X0090675Y0088084D01*
X0090681Y0087486D02*
X0113682Y0087486D01*
X0113676Y0088084D02*
X0096873Y0088084D01*
X0096748Y0088683D02*
X0113670Y0088683D01*
X0113911Y0089281D02*
X0096524Y0089281D01*
X0096180Y0089880D02*
X0114151Y0089880D01*
X0114555Y0090478D02*
X0095666Y0090478D01*
X0094865Y0091077D02*
X0115141Y0091077D01*
X0113757Y0086887D02*
X0096804Y0086887D01*
X0096636Y0086289D02*
X0114012Y0086289D01*
X0114268Y0085690D02*
X0096358Y0085690D01*
X0095933Y0085092D02*
X0114796Y0085092D01*
X0115407Y0084493D02*
X0095272Y0084493D01*
X0094073Y0083895D02*
X0116774Y0083895D01*
X0117024Y0082002D02*
X0115524Y0081362D01*
X0114383Y0080196D01*
X0113775Y0078683D01*
X0113792Y0077052D01*
X0114432Y0075552D01*
X0115597Y0074410D01*
X0117110Y0073802D01*
X0120913Y0073842D01*
X0121700Y0073054D01*
X0122754Y0072000D01*
X0135889Y0072000D01*
X0136174Y0071313D01*
X0137327Y0070160D01*
X0138834Y0069535D01*
X0140465Y0069535D01*
X0141972Y0070160D01*
X0143125Y0071313D01*
X0143750Y0072820D01*
X0143750Y0074451D01*
X0143125Y0075958D01*
X0141972Y0077111D01*
X0140465Y0077735D01*
X0138834Y0077735D01*
X0137327Y0077111D01*
X0136174Y0075958D01*
X0136026Y0075600D01*
X0126505Y0075600D01*
X0126583Y0075679D01*
X0127191Y0077192D01*
X0127174Y0078823D01*
X0126534Y0080323D01*
X0125369Y0081465D01*
X0123855Y0082073D01*
X0117024Y0082002D01*
X0115850Y0081501D02*
X0094500Y0081501D01*
X0093857Y0081759D02*
X0095370Y0081151D01*
X0096536Y0080009D01*
X0097175Y0078509D01*
X0097193Y0076878D01*
X0096584Y0075365D01*
X0095443Y0074199D01*
X0093943Y0073559D01*
X0087112Y0073488D01*
X0085599Y0074096D01*
X0084433Y0075237D01*
X0083793Y0076738D01*
X0083776Y0078369D01*
X0084385Y0079882D01*
X0085526Y0081047D01*
X0087026Y0081687D01*
X0093857Y0081759D01*
X0095624Y0080902D02*
X0115074Y0080902D01*
X0114488Y0080303D02*
X0096235Y0080303D01*
X0096665Y0079705D02*
X0114185Y0079705D01*
X0113945Y0079106D02*
X0096921Y0079106D01*
X0097175Y0078508D02*
X0113776Y0078508D01*
X0113783Y0077909D02*
X0097182Y0077909D01*
X0097188Y0077311D02*
X0113789Y0077311D01*
X0113936Y0076712D02*
X0097126Y0076712D01*
X0096885Y0076114D02*
X0114192Y0076114D01*
X0114469Y0075515D02*
X0096645Y0075515D01*
X0096146Y0074917D02*
X0115080Y0074917D01*
X0115826Y0074318D02*
X0095560Y0074318D01*
X0094319Y0073720D02*
X0121035Y0073720D01*
X0121633Y0073121D02*
X0070628Y0073121D01*
X0070634Y0073110D02*
X0070276Y0073811D01*
X0069814Y0074448D01*
X0069257Y0075004D01*
X0068621Y0075467D01*
X0067919Y0075824D01*
X0067198Y0076059D01*
X0068946Y0076782D01*
X0070408Y0078245D01*
X0071200Y0080156D01*
X0071200Y0082225D01*
X0070408Y0084136D01*
X0068946Y0085599D01*
X0067034Y0086391D01*
X0064966Y0086391D01*
X0063054Y0085599D01*
X0061592Y0084136D01*
X0060800Y0082225D01*
X0060800Y0080156D01*
X0061592Y0078245D01*
X0063054Y0076782D01*
X0064802Y0076059D01*
X0064081Y0075824D01*
X0063379Y0075467D01*
X0062743Y0075004D01*
X0062186Y0074448D01*
X0061724Y0073811D01*
X0061366Y0073110D01*
X0061123Y0072361D01*
X0061000Y0071584D01*
X0061000Y0071491D01*
X0065700Y0071491D01*
X0065700Y0070891D01*
X0061000Y0070891D01*
X0061000Y0070797D01*
X0061123Y0070020D01*
X0061366Y0069271D01*
X0061724Y0068570D01*
X0062186Y0067933D01*
X0062743Y0067377D01*
X0063379Y0066914D01*
X0064081Y0066557D01*
X0064802Y0066323D01*
X0063054Y0065599D01*
X0061592Y0064136D01*
X0060800Y0062225D01*
X0060800Y0060156D01*
X0061592Y0058245D01*
X0063054Y0056782D01*
X0064966Y0055991D01*
X0067034Y0055991D01*
X0068946Y0056782D01*
X0070408Y0058245D01*
X0071200Y0060156D01*
X0071200Y0062225D01*
X0070408Y0064136D01*
X0068946Y0065599D01*
X0067198Y0066323D01*
X0067919Y0066557D01*
X0068621Y0066914D01*
X0069257Y0067377D01*
X0069814Y0067933D01*
X0070276Y0068570D01*
X0070634Y0069271D01*
X0070877Y0070020D01*
X0071000Y0070797D01*
X0071000Y0070891D01*
X0066300Y0070891D01*
X0066300Y0071491D01*
X0071000Y0071491D01*
X0071000Y0071584D01*
X0070877Y0072361D01*
X0070634Y0073110D01*
X0070824Y0072523D02*
X0122232Y0072523D01*
X0123531Y0071869D02*
X0120847Y0071841D01*
X0120884Y0068241D01*
X0120284Y0068235D01*
X0120291Y0067635D01*
X0120891Y0067641D01*
X0120884Y0068241D01*
X0127084Y0068306D01*
X0127083Y0068390D01*
X0126925Y0069142D01*
X0126624Y0069849D01*
X0126190Y0070483D01*
X0125642Y0071020D01*
X0124998Y0071441D01*
X0124286Y0071727D01*
X0123531Y0071869D01*
X0125174Y0071326D02*
X0136168Y0071326D01*
X0135921Y0071924D02*
X0070946Y0071924D01*
X0070989Y0070727D02*
X0085316Y0070727D01*
X0085631Y0071048D02*
X0084489Y0069883D01*
X0083881Y0068369D01*
X0083898Y0066738D01*
X0084538Y0065238D01*
X0085703Y0064097D01*
X0087217Y0063488D01*
X0094047Y0063560D01*
X0095548Y0064200D01*
X0096689Y0065365D01*
X0097297Y0066879D01*
X0097280Y0068510D01*
X0096640Y0070010D01*
X0095475Y0071151D01*
X0093962Y0071759D01*
X0087131Y0071688D01*
X0085631Y0071048D01*
X0086282Y0071326D02*
X0066300Y0071326D01*
X0065700Y0071326D02*
X0059545Y0071326D01*
X0059545Y0071834D02*
X0059545Y0068437D01*
X0057143Y0066035D01*
X0053747Y0066035D01*
X0052782Y0067000D01*
X0050300Y0067000D01*
X0050300Y0053100D01*
X0052345Y0053100D01*
X0052345Y0053519D01*
X0054747Y0055921D01*
X0058143Y0055921D01*
X0060545Y0053519D01*
X0060545Y0050122D01*
X0058143Y0047721D01*
X0054747Y0047721D01*
X0052967Y0049500D01*
X0052800Y0049500D01*
X0052800Y0029546D01*
X0056746Y0025600D01*
X0061746Y0025600D01*
X0062800Y0024546D01*
X0062800Y0015333D01*
X0062871Y0015304D01*
X0064334Y0013841D01*
X0065125Y0011930D01*
X0065125Y0009861D01*
X0064334Y0007950D01*
X0062871Y0006487D01*
X0060960Y0005695D01*
X0058891Y0005695D01*
X0056980Y0006487D01*
X0055517Y0007950D01*
X0054725Y0009861D01*
X0054725Y0011930D01*
X0055517Y0013841D01*
X0056980Y0015304D01*
X0058891Y0016095D01*
X0059200Y0016095D01*
X0059200Y0022000D01*
X0055254Y0022000D01*
X0050300Y0026954D01*
X0050300Y0025554D01*
X0049246Y0024500D01*
X0037703Y0012957D01*
X0038445Y0011165D01*
X0038445Y0009097D01*
X0037653Y0007186D01*
X0036191Y0005723D01*
X0034279Y0004931D01*
X0032211Y0004931D01*
X0030299Y0005723D01*
X0028837Y0007186D01*
X0028045Y0009097D01*
X0028045Y0011165D01*
X0028837Y0013077D01*
X0030299Y0014539D01*
X0032211Y0015331D01*
X0034279Y0015331D01*
X0034779Y0015124D01*
X0046700Y0027046D01*
X0046700Y0069546D01*
X0047754Y0070600D01*
X0051345Y0070600D01*
X0051345Y0071834D01*
X0053747Y0074235D01*
X0057143Y0074235D01*
X0059545Y0071834D01*
X0059454Y0071924D02*
X0061054Y0071924D01*
X0061176Y0072523D02*
X0058856Y0072523D01*
X0058257Y0073121D02*
X0061372Y0073121D01*
X0061677Y0073720D02*
X0057659Y0073720D01*
X0059545Y0070727D02*
X0061011Y0070727D01*
X0061106Y0070129D02*
X0059545Y0070129D01*
X0059545Y0069530D02*
X0061282Y0069530D01*
X0061539Y0068932D02*
X0059545Y0068932D01*
X0059441Y0068333D02*
X0061896Y0068333D01*
X0062385Y0067735D02*
X0058842Y0067735D01*
X0058244Y0067136D02*
X0063074Y0067136D01*
X0064140Y0066538D02*
X0057645Y0066538D01*
X0055445Y0070135D02*
X0053500Y0068800D01*
X0048500Y0068800D01*
X0048500Y0026300D01*
X0033500Y0011300D01*
X0033245Y0010131D01*
X0029629Y0013869D02*
X0007500Y0013869D01*
X0007500Y0014467D02*
X0030227Y0014467D01*
X0031570Y0015066D02*
X0007500Y0015066D01*
X0007500Y0015664D02*
X0035319Y0015664D01*
X0035917Y0016263D02*
X0007500Y0016263D01*
X0007500Y0016861D02*
X0036516Y0016861D01*
X0037114Y0017460D02*
X0007500Y0017460D01*
X0007500Y0018058D02*
X0037713Y0018058D01*
X0038311Y0018657D02*
X0007500Y0018657D01*
X0007500Y0019255D02*
X0038910Y0019255D01*
X0039508Y0019854D02*
X0007500Y0019854D01*
X0007500Y0020452D02*
X0040107Y0020452D01*
X0040705Y0021051D02*
X0007500Y0021051D01*
X0007500Y0021649D02*
X0041304Y0021649D01*
X0041902Y0022248D02*
X0007500Y0022248D01*
X0007500Y0022846D02*
X0042501Y0022846D01*
X0043099Y0023445D02*
X0007500Y0023445D01*
X0007500Y0024043D02*
X0043698Y0024043D01*
X0044296Y0024642D02*
X0007500Y0024642D01*
X0007500Y0025240D02*
X0032161Y0025240D01*
X0032074Y0025254D02*
X0032851Y0025131D01*
X0032945Y0025131D01*
X0032945Y0029831D01*
X0033545Y0029831D01*
X0033545Y0025131D01*
X0033638Y0025131D01*
X0034416Y0025254D01*
X0035164Y0025497D01*
X0035866Y0025855D01*
X0036502Y0026317D01*
X0037059Y0026874D01*
X0037521Y0027511D01*
X0037879Y0028212D01*
X0038122Y0028960D01*
X0038245Y0029738D01*
X0038245Y0029831D01*
X0033545Y0029831D01*
X0033545Y0030431D01*
X0038245Y0030431D01*
X0038245Y0030525D01*
X0038122Y0031302D01*
X0037879Y0032050D01*
X0037521Y0032752D01*
X0037059Y0033388D01*
X0036502Y0033945D01*
X0035866Y0034408D01*
X0035164Y0034765D01*
X0034416Y0035008D01*
X0033638Y0035131D01*
X0033545Y0035131D01*
X0033545Y0030431D01*
X0032945Y0030431D01*
X0032945Y0029831D01*
X0028245Y0029831D01*
X0028245Y0029738D01*
X0028368Y0028960D01*
X0028611Y0028212D01*
X0028969Y0027511D01*
X0029431Y0026874D01*
X0029988Y0026317D01*
X0030624Y0025855D01*
X0031326Y0025497D01*
X0032074Y0025254D01*
X0032945Y0025240D02*
X0033545Y0025240D01*
X0033545Y0025839D02*
X0032945Y0025839D01*
X0032945Y0026437D02*
X0033545Y0026437D01*
X0033545Y0027036D02*
X0032945Y0027036D01*
X0032945Y0027634D02*
X0033545Y0027634D01*
X0033545Y0028233D02*
X0032945Y0028233D01*
X0032945Y0028832D02*
X0033545Y0028832D01*
X0033545Y0029430D02*
X0032945Y0029430D01*
X0032945Y0030029D02*
X0007500Y0030029D01*
X0007500Y0030627D02*
X0028261Y0030627D01*
X0028245Y0030525D02*
X0028245Y0030431D01*
X0032945Y0030431D01*
X0032945Y0035131D01*
X0032851Y0035131D01*
X0032074Y0035008D01*
X0031326Y0034765D01*
X0030624Y0034408D01*
X0029988Y0033945D01*
X0029431Y0033388D01*
X0028969Y0032752D01*
X0028611Y0032050D01*
X0028368Y0031302D01*
X0028245Y0030525D01*
X0028356Y0031226D02*
X0007500Y0031226D01*
X0007500Y0031824D02*
X0028538Y0031824D01*
X0028801Y0032423D02*
X0007500Y0032423D01*
X0007500Y0033021D02*
X0029164Y0033021D01*
X0029662Y0033620D02*
X0007500Y0033620D01*
X0007500Y0034218D02*
X0030364Y0034218D01*
X0031485Y0034817D02*
X0007500Y0034817D01*
X0007500Y0035415D02*
X0046700Y0035415D01*
X0046700Y0034817D02*
X0035005Y0034817D01*
X0036126Y0034218D02*
X0046700Y0034218D01*
X0046700Y0033620D02*
X0036828Y0033620D01*
X0037326Y0033021D02*
X0046700Y0033021D01*
X0046700Y0032423D02*
X0037689Y0032423D01*
X0037952Y0031824D02*
X0046700Y0031824D01*
X0046700Y0031226D02*
X0038134Y0031226D01*
X0038229Y0030627D02*
X0046700Y0030627D01*
X0046700Y0030029D02*
X0033545Y0030029D01*
X0033545Y0030627D02*
X0032945Y0030627D01*
X0032945Y0031226D02*
X0033545Y0031226D01*
X0033545Y0031824D02*
X0032945Y0031824D01*
X0032945Y0032423D02*
X0033545Y0032423D01*
X0033545Y0033021D02*
X0032945Y0033021D01*
X0032945Y0033620D02*
X0033545Y0033620D01*
X0033545Y0034218D02*
X0032945Y0034218D01*
X0032945Y0034817D02*
X0033545Y0034817D01*
X0038196Y0029430D02*
X0046700Y0029430D01*
X0046700Y0028832D02*
X0038080Y0028832D01*
X0037886Y0028233D02*
X0046700Y0028233D01*
X0046700Y0027634D02*
X0037584Y0027634D01*
X0037177Y0027036D02*
X0046690Y0027036D01*
X0046092Y0026437D02*
X0036622Y0026437D01*
X0035835Y0025839D02*
X0045493Y0025839D01*
X0044895Y0025240D02*
X0034329Y0025240D01*
X0030655Y0025839D02*
X0007500Y0025839D01*
X0007500Y0026437D02*
X0029868Y0026437D01*
X0029313Y0027036D02*
X0007500Y0027036D01*
X0007500Y0027634D02*
X0028905Y0027634D01*
X0028604Y0028233D02*
X0007500Y0028233D01*
X0007500Y0028832D02*
X0028410Y0028832D01*
X0028294Y0029430D02*
X0007500Y0029430D01*
X0007500Y0036014D02*
X0046700Y0036014D01*
X0046700Y0036612D02*
X0007500Y0036612D01*
X0007500Y0037211D02*
X0046700Y0037211D01*
X0046700Y0037809D02*
X0007500Y0037809D01*
X0007500Y0038408D02*
X0046700Y0038408D01*
X0046700Y0039006D02*
X0007500Y0039006D01*
X0007500Y0039605D02*
X0046700Y0039605D01*
X0046700Y0040203D02*
X0007500Y0040203D01*
X0007500Y0040802D02*
X0046700Y0040802D01*
X0046700Y0041400D02*
X0007500Y0041400D01*
X0007500Y0041999D02*
X0046700Y0041999D01*
X0046700Y0042597D02*
X0007500Y0042597D01*
X0007500Y0043196D02*
X0046700Y0043196D01*
X0046700Y0043794D02*
X0007500Y0043794D01*
X0007500Y0044393D02*
X0046700Y0044393D01*
X0046700Y0044991D02*
X0007500Y0044991D01*
X0007500Y0045590D02*
X0046700Y0045590D01*
X0046700Y0046188D02*
X0007500Y0046188D01*
X0007500Y0046787D02*
X0046700Y0046787D01*
X0046700Y0047385D02*
X0007500Y0047385D01*
X0007500Y0047984D02*
X0024483Y0047984D01*
X0024747Y0047721D02*
X0022345Y0050122D01*
X0022345Y0053519D01*
X0024747Y0055921D01*
X0028143Y0055921D01*
X0030545Y0053519D01*
X0030545Y0050122D01*
X0028143Y0047721D01*
X0024747Y0047721D01*
X0023885Y0048582D02*
X0007500Y0048582D01*
X0007500Y0049181D02*
X0023286Y0049181D01*
X0022688Y0049779D02*
X0007500Y0049779D01*
X0007500Y0050378D02*
X0022345Y0050378D01*
X0022345Y0050976D02*
X0007500Y0050976D01*
X0007500Y0051575D02*
X0022345Y0051575D01*
X0022345Y0052173D02*
X0007500Y0052173D01*
X0007500Y0052772D02*
X0022345Y0052772D01*
X0022345Y0053370D02*
X0007500Y0053370D01*
X0007500Y0053969D02*
X0022795Y0053969D01*
X0023394Y0054568D02*
X0007500Y0054568D01*
X0007500Y0055166D02*
X0023992Y0055166D01*
X0024591Y0055765D02*
X0007500Y0055765D01*
X0007500Y0056363D02*
X0046700Y0056363D01*
X0046700Y0055765D02*
X0028299Y0055765D01*
X0028898Y0055166D02*
X0046700Y0055166D01*
X0046700Y0054568D02*
X0029496Y0054568D01*
X0030095Y0053969D02*
X0046700Y0053969D01*
X0046700Y0053370D02*
X0030545Y0053370D01*
X0030545Y0052772D02*
X0046700Y0052772D01*
X0046700Y0052173D02*
X0030545Y0052173D01*
X0030545Y0051575D02*
X0046700Y0051575D01*
X0046700Y0050976D02*
X0030545Y0050976D01*
X0030545Y0050378D02*
X0046700Y0050378D01*
X0046700Y0049779D02*
X0030202Y0049779D01*
X0029604Y0049181D02*
X0046700Y0049181D01*
X0046700Y0048582D02*
X0029005Y0048582D01*
X0028406Y0047984D02*
X0046700Y0047984D01*
X0051000Y0051300D02*
X0056000Y0051300D01*
X0056445Y0051821D01*
X0053394Y0054568D02*
X0050300Y0054568D01*
X0050300Y0055166D02*
X0053992Y0055166D01*
X0054591Y0055765D02*
X0050300Y0055765D01*
X0050300Y0056363D02*
X0064067Y0056363D01*
X0062875Y0056962D02*
X0050300Y0056962D01*
X0050300Y0057560D02*
X0062277Y0057560D01*
X0061678Y0058159D02*
X0050300Y0058159D01*
X0050300Y0058757D02*
X0061380Y0058757D01*
X0061132Y0059356D02*
X0050300Y0059356D01*
X0050300Y0059954D02*
X0060884Y0059954D01*
X0060800Y0060553D02*
X0050300Y0060553D01*
X0050300Y0061151D02*
X0060800Y0061151D01*
X0060800Y0061750D02*
X0050300Y0061750D01*
X0050300Y0062348D02*
X0060851Y0062348D01*
X0061099Y0062947D02*
X0050300Y0062947D01*
X0050300Y0063545D02*
X0061347Y0063545D01*
X0061599Y0064144D02*
X0050300Y0064144D01*
X0050300Y0064742D02*
X0062198Y0064742D01*
X0062796Y0065341D02*
X0050300Y0065341D01*
X0050300Y0065939D02*
X0063876Y0065939D01*
X0067860Y0066538D02*
X0083984Y0066538D01*
X0083894Y0067136D02*
X0068926Y0067136D01*
X0069615Y0067735D02*
X0083888Y0067735D01*
X0083881Y0068333D02*
X0070104Y0068333D01*
X0070461Y0068932D02*
X0084107Y0068932D01*
X0084348Y0069530D02*
X0070718Y0069530D01*
X0070894Y0070129D02*
X0084730Y0070129D01*
X0086535Y0073720D02*
X0070323Y0073720D01*
X0069908Y0074318D02*
X0085372Y0074318D01*
X0084761Y0074917D02*
X0069345Y0074917D01*
X0068526Y0075515D02*
X0084315Y0075515D01*
X0084059Y0076114D02*
X0067332Y0076114D01*
X0068777Y0076712D02*
X0083804Y0076712D01*
X0083787Y0077311D02*
X0069474Y0077311D01*
X0070073Y0077909D02*
X0083781Y0077909D01*
X0083832Y0078508D02*
X0070517Y0078508D01*
X0070765Y0079106D02*
X0084073Y0079106D01*
X0084313Y0079705D02*
X0071013Y0079705D01*
X0071200Y0080303D02*
X0084797Y0080303D01*
X0085383Y0080902D02*
X0071200Y0080902D01*
X0071200Y0081501D02*
X0086588Y0081501D01*
X0086530Y0083895D02*
X0070508Y0083895D01*
X0070756Y0083296D02*
X0155450Y0083296D01*
X0154852Y0082698D02*
X0071004Y0082698D01*
X0071200Y0082099D02*
X0154253Y0082099D01*
X0153655Y0081501D02*
X0125279Y0081501D01*
X0125943Y0080902D02*
X0153056Y0080902D01*
X0152458Y0080303D02*
X0126542Y0080303D01*
X0126798Y0079705D02*
X0151859Y0079705D01*
X0151261Y0079106D02*
X0127053Y0079106D01*
X0127177Y0078508D02*
X0150662Y0078508D01*
X0150064Y0077909D02*
X0127183Y0077909D01*
X0127190Y0077311D02*
X0137809Y0077311D01*
X0136928Y0076712D02*
X0126998Y0076712D01*
X0126757Y0076114D02*
X0136330Y0076114D01*
X0138500Y0073800D02*
X0139650Y0073635D01*
X0138500Y0073800D02*
X0123500Y0073800D01*
X0121000Y0076300D01*
X0120483Y0077938D01*
X0120247Y0071835D02*
X0117563Y0071807D01*
X0116811Y0071649D01*
X0116104Y0071347D01*
X0115470Y0070914D01*
X0114932Y0070365D01*
X0114512Y0069722D01*
X0114226Y0069009D01*
X0114084Y0068254D01*
X0114085Y0068170D01*
X0120284Y0068235D01*
X0120247Y0071835D01*
X0120252Y0071326D02*
X0120852Y0071326D01*
X0120858Y0070727D02*
X0120258Y0070727D01*
X0120265Y0070129D02*
X0120865Y0070129D01*
X0120871Y0069530D02*
X0120271Y0069530D01*
X0120277Y0068932D02*
X0120877Y0068932D01*
X0120883Y0068333D02*
X0120283Y0068333D01*
X0120290Y0067735D02*
X0097288Y0067735D01*
X0097282Y0068333D02*
X0114099Y0068333D01*
X0114211Y0068932D02*
X0097100Y0068932D01*
X0096845Y0069530D02*
X0114435Y0069530D01*
X0114778Y0070129D02*
X0096519Y0070129D01*
X0095908Y0070727D02*
X0115287Y0070727D01*
X0116073Y0071326D02*
X0095040Y0071326D01*
X0097295Y0067136D02*
X0114165Y0067136D01*
X0114092Y0067486D02*
X0114250Y0066734D01*
X0114551Y0066027D01*
X0114984Y0065393D01*
X0115533Y0064856D01*
X0116177Y0064436D01*
X0116889Y0064149D01*
X0117644Y0064007D01*
X0120328Y0064035D01*
X0120291Y0067635D01*
X0114091Y0067570D01*
X0114092Y0067486D01*
X0114333Y0066538D02*
X0097160Y0066538D01*
X0096920Y0065939D02*
X0114611Y0065939D01*
X0115038Y0065341D02*
X0096665Y0065341D01*
X0096079Y0064742D02*
X0115707Y0064742D01*
X0116918Y0064144D02*
X0095416Y0064144D01*
X0094092Y0061750D02*
X0116641Y0061750D01*
X0115526Y0061151D02*
X0095580Y0061151D01*
X0095580Y0061152D02*
X0094066Y0061760D01*
X0087236Y0061688D01*
X0085735Y0061049D01*
X0084594Y0059883D01*
X0083986Y0058370D01*
X0084003Y0056739D01*
X0084643Y0055239D01*
X0085808Y0054097D01*
X0087321Y0053489D01*
X0094152Y0053560D01*
X0095652Y0054200D01*
X0095711Y0054260D01*
X0095711Y0053245D01*
X0096136Y0052220D01*
X0096920Y0051436D01*
X0097945Y0051011D01*
X0098743Y0051011D01*
X0101700Y0048054D01*
X0101700Y0030600D01*
X0096459Y0030600D01*
X0095894Y0031153D01*
X0094380Y0031762D01*
X0087550Y0031690D01*
X0086049Y0031050D01*
X0084908Y0029885D01*
X0084300Y0028371D01*
X0084317Y0026741D01*
X0084957Y0025240D01*
X0086122Y0024099D01*
X0087636Y0023491D01*
X0094466Y0023562D01*
X0095967Y0024202D01*
X0097108Y0025367D01*
X0097716Y0026881D01*
X0097715Y0027000D01*
X0104246Y0027000D01*
X0105300Y0028054D01*
X0105300Y0049546D01*
X0104246Y0050600D01*
X0101289Y0053557D01*
X0101289Y0054355D01*
X0100864Y0055380D01*
X0100080Y0056164D01*
X0099055Y0056589D01*
X0097945Y0056589D01*
X0097153Y0056261D01*
X0097402Y0056879D01*
X0097385Y0058510D01*
X0096745Y0060010D01*
X0095580Y0061152D01*
X0096191Y0060553D02*
X0114940Y0060553D01*
X0114495Y0059954D02*
X0096769Y0059954D01*
X0097024Y0059356D02*
X0114254Y0059356D01*
X0114013Y0058757D02*
X0097280Y0058757D01*
X0097389Y0058159D02*
X0113990Y0058159D01*
X0113996Y0057560D02*
X0097395Y0057560D01*
X0097401Y0056962D02*
X0114040Y0056962D01*
X0114295Y0056363D02*
X0099600Y0056363D01*
X0100480Y0055765D02*
X0114551Y0055765D01*
X0115036Y0055166D02*
X0100953Y0055166D01*
X0101201Y0054568D02*
X0115647Y0054568D01*
X0116907Y0053969D02*
X0101289Y0053969D01*
X0101475Y0053370D02*
X0123025Y0053370D01*
X0122426Y0052772D02*
X0102074Y0052772D01*
X0102672Y0052173D02*
X0121828Y0052173D01*
X0121000Y0048800D02*
X0120797Y0047939D01*
X0121000Y0048800D02*
X0136000Y0063800D01*
X0141000Y0063800D01*
X0173500Y0096300D01*
X0165027Y0092872D02*
X0014926Y0092872D01*
X0014328Y0092274D02*
X0164428Y0092274D01*
X0163830Y0091675D02*
X0124739Y0091675D01*
X0125659Y0091077D02*
X0163231Y0091077D01*
X0162633Y0090478D02*
X0126271Y0090478D01*
X0126618Y0089880D02*
X0162034Y0089880D01*
X0161436Y0089281D02*
X0126874Y0089281D01*
X0127071Y0088683D02*
X0160837Y0088683D01*
X0160239Y0088084D02*
X0127077Y0088084D01*
X0127083Y0087486D02*
X0159640Y0087486D01*
X0159042Y0086887D02*
X0126964Y0086887D01*
X0126723Y0086289D02*
X0158443Y0086289D01*
X0157845Y0085690D02*
X0126483Y0085690D01*
X0125903Y0085092D02*
X0157246Y0085092D01*
X0156647Y0084493D02*
X0125290Y0084493D01*
X0123887Y0083895D02*
X0156049Y0083895D01*
X0157057Y0077311D02*
X0157810Y0077311D01*
X0157211Y0076712D02*
X0156458Y0076712D01*
X0156613Y0076114D02*
X0155859Y0076114D01*
X0156014Y0075515D02*
X0155261Y0075515D01*
X0155750Y0074917D02*
X0154662Y0074917D01*
X0154064Y0074318D02*
X0155750Y0074318D01*
X0159350Y0074318D02*
X0159950Y0074318D01*
X0159950Y0074917D02*
X0159350Y0074917D01*
X0159350Y0075515D02*
X0159950Y0075515D01*
X0159950Y0076114D02*
X0159350Y0076114D01*
X0159350Y0076712D02*
X0159950Y0076712D01*
X0159950Y0077311D02*
X0159350Y0077311D01*
X0159350Y0072523D02*
X0159950Y0072523D01*
X0159950Y0071924D02*
X0159350Y0071924D01*
X0159350Y0071326D02*
X0159950Y0071326D01*
X0159950Y0070727D02*
X0159350Y0070727D01*
X0159350Y0070129D02*
X0159950Y0070129D01*
X0161658Y0070129D02*
X0179783Y0070129D01*
X0180382Y0070727D02*
X0162257Y0070727D01*
X0162855Y0071326D02*
X0180980Y0071326D01*
X0181579Y0071924D02*
X0163454Y0071924D01*
X0163550Y0072523D02*
X0182177Y0072523D01*
X0182776Y0073121D02*
X0163550Y0073121D01*
X0149465Y0077311D02*
X0141490Y0077311D01*
X0142371Y0076712D02*
X0148867Y0076712D01*
X0148268Y0076114D02*
X0142969Y0076114D01*
X0143309Y0075515D02*
X0147670Y0075515D01*
X0147071Y0074917D02*
X0143557Y0074917D01*
X0143750Y0074318D02*
X0146473Y0074318D01*
X0145874Y0073720D02*
X0143750Y0073720D01*
X0143750Y0073121D02*
X0145276Y0073121D01*
X0144677Y0072523D02*
X0143627Y0072523D01*
X0143379Y0071924D02*
X0144079Y0071924D01*
X0143480Y0071326D02*
X0143131Y0071326D01*
X0142882Y0070727D02*
X0142540Y0070727D01*
X0142283Y0070129D02*
X0141898Y0070129D01*
X0141685Y0069530D02*
X0126760Y0069530D01*
X0126969Y0068932D02*
X0141086Y0068932D01*
X0140488Y0068333D02*
X0127084Y0068333D01*
X0127090Y0067706D02*
X0120891Y0067641D01*
X0120928Y0064041D01*
X0123612Y0064070D01*
X0124364Y0064227D01*
X0125071Y0064529D01*
X0125705Y0064962D01*
X0126242Y0065511D01*
X0126663Y0066154D01*
X0126949Y0066867D01*
X0127091Y0067622D01*
X0127090Y0067706D01*
X0127000Y0067136D02*
X0131791Y0067136D01*
X0132389Y0067735D02*
X0120890Y0067735D01*
X0120896Y0067136D02*
X0120296Y0067136D01*
X0120302Y0066538D02*
X0120902Y0066538D01*
X0120908Y0065939D02*
X0120308Y0065939D01*
X0120315Y0065341D02*
X0120915Y0065341D01*
X0120921Y0064742D02*
X0120321Y0064742D01*
X0120327Y0064144D02*
X0120927Y0064144D01*
X0123966Y0064144D02*
X0128798Y0064144D01*
X0129397Y0064742D02*
X0125383Y0064742D01*
X0126076Y0065341D02*
X0129995Y0065341D01*
X0130594Y0065939D02*
X0126522Y0065939D01*
X0126817Y0066538D02*
X0131192Y0066538D01*
X0128200Y0063545D02*
X0092639Y0063545D01*
X0093077Y0061750D02*
X0071200Y0061750D01*
X0071200Y0061151D02*
X0085976Y0061151D01*
X0085250Y0060553D02*
X0071200Y0060553D01*
X0071116Y0059954D02*
X0084663Y0059954D01*
X0084382Y0059356D02*
X0070868Y0059356D01*
X0070620Y0058757D02*
X0084141Y0058757D01*
X0083988Y0058159D02*
X0070322Y0058159D01*
X0069723Y0057560D02*
X0083994Y0057560D01*
X0084000Y0056962D02*
X0069125Y0056962D01*
X0067933Y0056363D02*
X0084163Y0056363D01*
X0084418Y0055765D02*
X0058299Y0055765D01*
X0058898Y0055166D02*
X0084717Y0055166D01*
X0085328Y0054568D02*
X0059496Y0054568D01*
X0060095Y0053969D02*
X0086127Y0053969D01*
X0087073Y0051575D02*
X0060545Y0051575D01*
X0060545Y0052173D02*
X0096182Y0052173D01*
X0095907Y0052772D02*
X0060545Y0052772D01*
X0060545Y0053370D02*
X0095711Y0053370D01*
X0095711Y0053969D02*
X0095110Y0053969D01*
X0097195Y0056363D02*
X0097400Y0056363D01*
X0098500Y0053800D02*
X0103500Y0048800D01*
X0103500Y0028800D01*
X0093500Y0028800D01*
X0091008Y0027626D01*
X0086461Y0031226D02*
X0064925Y0031226D01*
X0064925Y0031195D02*
X0064925Y0031289D01*
X0064802Y0032066D01*
X0064559Y0032815D01*
X0064202Y0033516D01*
X0063739Y0034153D01*
X0063182Y0034709D01*
X0062546Y0035172D01*
X0061845Y0035529D01*
X0061096Y0035772D01*
X0060319Y0035895D01*
X0060225Y0035895D01*
X0060225Y0031195D01*
X0064925Y0031195D01*
X0064925Y0030595D02*
X0060225Y0030595D01*
X0060225Y0025895D01*
X0060319Y0025895D01*
X0061096Y0026018D01*
X0061845Y0026262D01*
X0062546Y0026619D01*
X0063182Y0027082D01*
X0063739Y0027638D01*
X0064202Y0028275D01*
X0064559Y0028976D01*
X0064802Y0029724D01*
X0064925Y0030502D01*
X0064925Y0030595D01*
X0064850Y0030029D02*
X0085049Y0030029D01*
X0084725Y0029430D02*
X0064706Y0029430D01*
X0064485Y0028832D02*
X0084485Y0028832D01*
X0084301Y0028233D02*
X0064171Y0028233D01*
X0063735Y0027634D02*
X0084308Y0027634D01*
X0084314Y0027036D02*
X0063120Y0027036D01*
X0062190Y0026437D02*
X0084446Y0026437D01*
X0084701Y0025839D02*
X0056507Y0025839D01*
X0055908Y0026437D02*
X0057661Y0026437D01*
X0058006Y0026262D02*
X0058754Y0026018D01*
X0059532Y0025895D01*
X0059625Y0025895D01*
X0059625Y0030595D01*
X0060225Y0030595D01*
X0060225Y0031195D01*
X0059625Y0031195D01*
X0059625Y0030595D01*
X0054925Y0030595D01*
X0054925Y0030502D01*
X0055048Y0029724D01*
X0055292Y0028976D01*
X0055649Y0028275D01*
X0056111Y0027638D01*
X0056668Y0027082D01*
X0057305Y0026619D01*
X0058006Y0026262D01*
X0056731Y0027036D02*
X0055310Y0027036D01*
X0054711Y0027634D02*
X0056115Y0027634D01*
X0055679Y0028233D02*
X0054113Y0028233D01*
X0053514Y0028832D02*
X0055365Y0028832D01*
X0055144Y0029430D02*
X0052916Y0029430D01*
X0052800Y0030029D02*
X0055000Y0030029D01*
X0054925Y0031195D02*
X0059625Y0031195D01*
X0059625Y0035895D01*
X0059532Y0035895D01*
X0058754Y0035772D01*
X0058006Y0035529D01*
X0057305Y0035172D01*
X0056668Y0034709D01*
X0056111Y0034153D01*
X0055649Y0033516D01*
X0055292Y0032815D01*
X0055048Y0032066D01*
X0054925Y0031289D01*
X0054925Y0031195D01*
X0054925Y0031226D02*
X0052800Y0031226D01*
X0052800Y0031824D02*
X0055010Y0031824D01*
X0055164Y0032423D02*
X0052800Y0032423D01*
X0052800Y0033021D02*
X0055397Y0033021D01*
X0055724Y0033620D02*
X0052800Y0033620D01*
X0052800Y0034218D02*
X0056177Y0034218D01*
X0056816Y0034817D02*
X0052800Y0034817D01*
X0052800Y0035415D02*
X0057782Y0035415D01*
X0059625Y0035415D02*
X0060225Y0035415D01*
X0060225Y0034817D02*
X0059625Y0034817D01*
X0059625Y0034218D02*
X0060225Y0034218D01*
X0060225Y0033620D02*
X0059625Y0033620D01*
X0059625Y0033021D02*
X0060225Y0033021D01*
X0060225Y0032423D02*
X0059625Y0032423D01*
X0059625Y0031824D02*
X0060225Y0031824D01*
X0060225Y0031226D02*
X0059625Y0031226D01*
X0059625Y0030627D02*
X0052800Y0030627D01*
X0051000Y0028800D02*
X0051000Y0051300D01*
X0050300Y0053370D02*
X0052345Y0053370D01*
X0052795Y0053969D02*
X0050300Y0053969D01*
X0046700Y0056962D02*
X0007500Y0056962D01*
X0007500Y0057560D02*
X0046700Y0057560D01*
X0046700Y0058159D02*
X0007500Y0058159D01*
X0007500Y0058757D02*
X0046700Y0058757D01*
X0046700Y0059356D02*
X0007500Y0059356D01*
X0007500Y0059954D02*
X0046700Y0059954D01*
X0046700Y0060553D02*
X0007500Y0060553D01*
X0007500Y0061151D02*
X0046700Y0061151D01*
X0046700Y0061750D02*
X0013083Y0061750D01*
X0012919Y0061666D02*
X0013621Y0062024D01*
X0014257Y0062486D01*
X0014814Y0063043D01*
X0015276Y0063679D01*
X0015634Y0064381D01*
X0015877Y0065129D01*
X0016000Y0065906D01*
X0016000Y0066000D01*
X0011300Y0066000D01*
X0011300Y0061300D01*
X0011394Y0061300D01*
X0012171Y0061423D01*
X0012919Y0061666D01*
X0014067Y0062348D02*
X0046700Y0062348D01*
X0046700Y0062947D02*
X0014718Y0062947D01*
X0015179Y0063545D02*
X0046700Y0063545D01*
X0046700Y0064144D02*
X0015513Y0064144D01*
X0015751Y0064742D02*
X0046700Y0064742D01*
X0046700Y0065341D02*
X0015910Y0065341D01*
X0016000Y0065939D02*
X0046700Y0065939D01*
X0046700Y0066538D02*
X0027645Y0066538D01*
X0027143Y0066035D02*
X0029545Y0068437D01*
X0029545Y0071834D01*
X0027143Y0074235D01*
X0023747Y0074235D01*
X0021345Y0071834D01*
X0021345Y0068437D01*
X0023747Y0066035D01*
X0027143Y0066035D01*
X0028244Y0067136D02*
X0046700Y0067136D01*
X0046700Y0067735D02*
X0028842Y0067735D01*
X0029441Y0068333D02*
X0046700Y0068333D01*
X0046700Y0068932D02*
X0029545Y0068932D01*
X0029545Y0069530D02*
X0046700Y0069530D01*
X0047283Y0070129D02*
X0029545Y0070129D01*
X0029545Y0070727D02*
X0051345Y0070727D01*
X0051345Y0071326D02*
X0029545Y0071326D01*
X0029454Y0071924D02*
X0051435Y0071924D01*
X0052034Y0072523D02*
X0028856Y0072523D01*
X0028257Y0073121D02*
X0052632Y0073121D01*
X0053231Y0073720D02*
X0027659Y0073720D01*
X0023231Y0073720D02*
X0015560Y0073720D01*
X0015808Y0074318D02*
X0062092Y0074318D01*
X0062655Y0074917D02*
X0016056Y0074917D01*
X0016200Y0075515D02*
X0063474Y0075515D01*
X0063223Y0076712D02*
X0016200Y0076712D01*
X0016200Y0076114D02*
X0064668Y0076114D01*
X0062526Y0077311D02*
X0016200Y0077311D01*
X0015962Y0077909D02*
X0061927Y0077909D01*
X0061483Y0078508D02*
X0015714Y0078508D01*
X0015466Y0079106D02*
X0061235Y0079106D01*
X0060987Y0079705D02*
X0014949Y0079705D01*
X0014350Y0080303D02*
X0060800Y0080303D01*
X0060800Y0080902D02*
X0013478Y0080902D01*
X0013001Y0081501D02*
X0060800Y0081501D01*
X0060800Y0082099D02*
X0014153Y0082099D01*
X0014751Y0082698D02*
X0060996Y0082698D01*
X0061244Y0083296D02*
X0015350Y0083296D01*
X0015632Y0083895D02*
X0061492Y0083895D01*
X0061949Y0084493D02*
X0015880Y0084493D01*
X0016128Y0085092D02*
X0062547Y0085092D01*
X0063274Y0085690D02*
X0016200Y0085690D01*
X0016200Y0086289D02*
X0064719Y0086289D01*
X0067281Y0086289D02*
X0084097Y0086289D01*
X0083944Y0086887D02*
X0016200Y0086887D01*
X0015175Y0073121D02*
X0022632Y0073121D01*
X0022034Y0072523D02*
X0014577Y0072523D01*
X0013978Y0071924D02*
X0021435Y0071924D01*
X0021345Y0071326D02*
X0012580Y0071326D01*
X0013324Y0070727D02*
X0021345Y0070727D01*
X0021345Y0070129D02*
X0014237Y0070129D01*
X0014833Y0069530D02*
X0021345Y0069530D01*
X0021345Y0068932D02*
X0015268Y0068932D01*
X0015576Y0068333D02*
X0021449Y0068333D01*
X0022047Y0067735D02*
X0015791Y0067735D01*
X0015930Y0067136D02*
X0022646Y0067136D01*
X0023244Y0066538D02*
X0011300Y0066538D01*
X0011300Y0065939D02*
X0010700Y0065939D01*
X0010700Y0065341D02*
X0011300Y0065341D01*
X0011300Y0064742D02*
X0010700Y0064742D01*
X0010700Y0064144D02*
X0011300Y0064144D01*
X0011300Y0063545D02*
X0010700Y0063545D01*
X0010700Y0062947D02*
X0011300Y0062947D01*
X0011300Y0062348D02*
X0010700Y0062348D01*
X0010700Y0061750D02*
X0011300Y0061750D01*
X0008917Y0061750D02*
X0007500Y0061750D01*
X0007500Y0062348D02*
X0007933Y0062348D01*
X0015101Y0103047D02*
X0134133Y0103047D01*
X0139004Y0103645D02*
X0155014Y0103645D01*
X0154416Y0103047D02*
X0139757Y0103047D01*
X0140355Y0102448D02*
X0153817Y0102448D01*
X0153219Y0101850D02*
X0140642Y0101850D01*
X0140889Y0101251D02*
X0153045Y0101251D01*
X0153045Y0100653D02*
X0141045Y0100653D01*
X0156645Y0100653D02*
X0157245Y0100653D01*
X0157245Y0101251D02*
X0156645Y0101251D01*
X0156645Y0101850D02*
X0157245Y0101850D01*
X0157245Y0102448D02*
X0156645Y0102448D01*
X0156645Y0103047D02*
X0157245Y0103047D01*
X0157245Y0103645D02*
X0156645Y0103645D01*
X0156645Y0098857D02*
X0157245Y0098857D01*
X0157245Y0098259D02*
X0156645Y0098259D01*
X0156645Y0097660D02*
X0157245Y0097660D01*
X0157245Y0097062D02*
X0156645Y0097062D01*
X0156645Y0096463D02*
X0157245Y0096463D01*
X0136760Y0070727D02*
X0125941Y0070727D01*
X0126433Y0070129D02*
X0137402Y0070129D01*
X0127601Y0062947D02*
X0070901Y0062947D01*
X0070653Y0063545D02*
X0087075Y0063545D01*
X0085655Y0064144D02*
X0070401Y0064144D01*
X0069802Y0064742D02*
X0085044Y0064742D01*
X0084494Y0065341D02*
X0069204Y0065341D01*
X0068124Y0065939D02*
X0084239Y0065939D01*
X0071149Y0062348D02*
X0127003Y0062348D01*
X0126404Y0061750D02*
X0124872Y0061750D01*
X0126000Y0058800D02*
X0121000Y0058800D01*
X0120692Y0057939D01*
X0116335Y0051575D02*
X0103271Y0051575D01*
X0103869Y0050976D02*
X0115460Y0050976D01*
X0114873Y0050378D02*
X0104468Y0050378D01*
X0105066Y0049779D02*
X0114529Y0049779D01*
X0114288Y0049181D02*
X0105300Y0049181D01*
X0105300Y0048582D02*
X0114090Y0048582D01*
X0114096Y0047984D02*
X0105300Y0047984D01*
X0105300Y0047385D02*
X0114102Y0047385D01*
X0114220Y0046787D02*
X0105300Y0046787D01*
X0105300Y0046188D02*
X0114475Y0046188D01*
X0114730Y0045590D02*
X0105300Y0045590D01*
X0105300Y0044991D02*
X0115320Y0044991D01*
X0115959Y0044393D02*
X0105300Y0044393D01*
X0105300Y0043794D02*
X0123449Y0043794D01*
X0122850Y0043196D02*
X0105300Y0043196D01*
X0101700Y0043196D02*
X0080446Y0043196D01*
X0080585Y0043335D02*
X0080585Y0044650D01*
X0076985Y0044650D01*
X0076985Y0041050D01*
X0078300Y0041050D01*
X0080585Y0043335D01*
X0080585Y0043794D02*
X0086668Y0043794D01*
X0085913Y0044098D02*
X0087426Y0043490D01*
X0094257Y0043561D01*
X0095757Y0044201D01*
X0096898Y0045366D01*
X0097507Y0046880D01*
X0097490Y0048511D01*
X0096850Y0050011D01*
X0095684Y0051152D01*
X0094171Y0051761D01*
X0087340Y0051689D01*
X0085840Y0051049D01*
X0084699Y0049884D01*
X0084090Y0048370D01*
X0084107Y0046739D01*
X0084747Y0045239D01*
X0085913Y0044098D01*
X0085612Y0044393D02*
X0080585Y0044393D01*
X0080585Y0045250D02*
X0080585Y0046566D01*
X0078300Y0048850D01*
X0076985Y0048850D01*
X0076985Y0045251D01*
X0076385Y0045251D01*
X0076385Y0048850D01*
X0075070Y0048850D01*
X0072785Y0046566D01*
X0072785Y0045250D01*
X0076385Y0045250D01*
X0076385Y0044650D01*
X0076985Y0044650D01*
X0076985Y0045250D01*
X0080585Y0045250D01*
X0080585Y0045590D02*
X0084598Y0045590D01*
X0084342Y0046188D02*
X0080585Y0046188D01*
X0080364Y0046787D02*
X0084107Y0046787D01*
X0084101Y0047385D02*
X0079766Y0047385D01*
X0079167Y0047984D02*
X0084094Y0047984D01*
X0084176Y0048582D02*
X0078569Y0048582D01*
X0076985Y0048582D02*
X0076385Y0048582D01*
X0076385Y0047984D02*
X0076985Y0047984D01*
X0076985Y0047385D02*
X0076385Y0047385D01*
X0076385Y0046787D02*
X0076985Y0046787D01*
X0076985Y0046188D02*
X0076385Y0046188D01*
X0076385Y0045590D02*
X0076985Y0045590D01*
X0076985Y0044991D02*
X0085000Y0044991D01*
X0086767Y0041400D02*
X0078650Y0041400D01*
X0079249Y0041999D02*
X0101700Y0041999D01*
X0101700Y0042597D02*
X0079847Y0042597D01*
X0076985Y0042597D02*
X0076385Y0042597D01*
X0076385Y0041999D02*
X0076985Y0041999D01*
X0076985Y0041400D02*
X0076385Y0041400D01*
X0076385Y0041050D02*
X0076385Y0044650D01*
X0072785Y0044650D01*
X0072785Y0043335D01*
X0075070Y0041050D01*
X0076385Y0041050D01*
X0074720Y0041400D02*
X0068933Y0041400D01*
X0068383Y0040850D02*
X0070785Y0043252D01*
X0070785Y0046649D01*
X0068383Y0049050D01*
X0064987Y0049050D01*
X0062585Y0046649D01*
X0062585Y0043252D01*
X0064987Y0040850D01*
X0068383Y0040850D01*
X0069532Y0041999D02*
X0074121Y0041999D01*
X0073523Y0042597D02*
X0070130Y0042597D01*
X0070729Y0043196D02*
X0072924Y0043196D01*
X0072785Y0043794D02*
X0070785Y0043794D01*
X0070785Y0044393D02*
X0072785Y0044393D01*
X0072785Y0045590D02*
X0070785Y0045590D01*
X0070785Y0046188D02*
X0072785Y0046188D01*
X0073006Y0046787D02*
X0070647Y0046787D01*
X0070048Y0047385D02*
X0073605Y0047385D01*
X0074203Y0047984D02*
X0069450Y0047984D01*
X0068851Y0048582D02*
X0074802Y0048582D01*
X0076385Y0044991D02*
X0070785Y0044991D01*
X0076385Y0044393D02*
X0076985Y0044393D01*
X0076985Y0043794D02*
X0076385Y0043794D01*
X0076385Y0043196D02*
X0076985Y0043196D01*
X0084803Y0039884D02*
X0084195Y0038371D01*
X0084212Y0036740D01*
X0084852Y0035240D01*
X0086017Y0034098D01*
X0087531Y0033490D01*
X0094362Y0033562D01*
X0095862Y0034201D01*
X0097003Y0035367D01*
X0097611Y0036880D01*
X0097594Y0038511D01*
X0096954Y0040012D01*
X0095789Y0041153D01*
X0094276Y0041761D01*
X0087445Y0041690D01*
X0085945Y0041050D01*
X0084803Y0039884D01*
X0084691Y0039605D02*
X0052800Y0039605D01*
X0052800Y0040203D02*
X0085116Y0040203D01*
X0085702Y0040802D02*
X0052800Y0040802D01*
X0052800Y0041400D02*
X0064437Y0041400D01*
X0063838Y0041999D02*
X0052800Y0041999D01*
X0052800Y0042597D02*
X0063240Y0042597D01*
X0062641Y0043196D02*
X0052800Y0043196D01*
X0052800Y0043794D02*
X0062585Y0043794D01*
X0062585Y0044393D02*
X0052800Y0044393D01*
X0052800Y0044991D02*
X0062585Y0044991D01*
X0062585Y0045590D02*
X0052800Y0045590D01*
X0052800Y0046188D02*
X0062585Y0046188D01*
X0062723Y0046787D02*
X0052800Y0046787D01*
X0052800Y0047385D02*
X0063322Y0047385D01*
X0063920Y0047984D02*
X0058406Y0047984D01*
X0059005Y0048582D02*
X0064519Y0048582D01*
X0060545Y0050378D02*
X0085183Y0050378D01*
X0084657Y0049779D02*
X0060202Y0049779D01*
X0059604Y0049181D02*
X0084416Y0049181D01*
X0085769Y0050976D02*
X0060545Y0050976D01*
X0054483Y0047984D02*
X0052800Y0047984D01*
X0052800Y0048582D02*
X0053885Y0048582D01*
X0053286Y0049181D02*
X0052800Y0049181D01*
X0052800Y0039006D02*
X0084450Y0039006D01*
X0084210Y0038408D02*
X0052800Y0038408D01*
X0052800Y0037809D02*
X0084201Y0037809D01*
X0084207Y0037211D02*
X0052800Y0037211D01*
X0052800Y0036612D02*
X0084267Y0036612D01*
X0084522Y0036014D02*
X0052800Y0036014D01*
X0059625Y0030029D02*
X0060225Y0030029D01*
X0060225Y0030627D02*
X0085635Y0030627D01*
X0087209Y0033620D02*
X0064126Y0033620D01*
X0064454Y0033021D02*
X0101700Y0033021D01*
X0101700Y0032423D02*
X0064686Y0032423D01*
X0064840Y0031824D02*
X0101700Y0031824D01*
X0101700Y0031226D02*
X0095714Y0031226D01*
X0096431Y0030627D02*
X0101700Y0030627D01*
X0101700Y0033620D02*
X0094498Y0033620D01*
X0095878Y0034218D02*
X0101700Y0034218D01*
X0101700Y0034817D02*
X0096464Y0034817D01*
X0097022Y0035415D02*
X0101700Y0035415D01*
X0101700Y0036014D02*
X0097263Y0036014D01*
X0097504Y0036612D02*
X0101700Y0036612D01*
X0101700Y0037211D02*
X0097608Y0037211D01*
X0097602Y0037809D02*
X0101700Y0037809D01*
X0101700Y0038408D02*
X0097595Y0038408D01*
X0097383Y0039006D02*
X0101700Y0039006D01*
X0101700Y0039605D02*
X0097128Y0039605D01*
X0096759Y0040203D02*
X0101700Y0040203D01*
X0101700Y0040802D02*
X0096147Y0040802D01*
X0095173Y0041400D02*
X0101700Y0041400D01*
X0101700Y0043794D02*
X0094804Y0043794D01*
X0095945Y0044393D02*
X0101700Y0044393D01*
X0101700Y0044991D02*
X0096531Y0044991D01*
X0096988Y0045590D02*
X0101700Y0045590D01*
X0101700Y0046188D02*
X0097229Y0046188D01*
X0097469Y0046787D02*
X0101700Y0046787D01*
X0101700Y0047385D02*
X0097501Y0047385D01*
X0097495Y0047984D02*
X0101700Y0047984D01*
X0101172Y0048582D02*
X0097459Y0048582D01*
X0097204Y0049181D02*
X0100573Y0049181D01*
X0099975Y0049779D02*
X0096948Y0049779D01*
X0096475Y0050378D02*
X0099376Y0050378D01*
X0098778Y0050976D02*
X0095864Y0050976D01*
X0096781Y0051575D02*
X0094633Y0051575D01*
X0084777Y0035415D02*
X0062068Y0035415D01*
X0063034Y0034817D02*
X0085284Y0034817D01*
X0085895Y0034218D02*
X0063673Y0034218D01*
X0060225Y0029430D02*
X0059625Y0029430D01*
X0059625Y0028832D02*
X0060225Y0028832D01*
X0060225Y0028233D02*
X0059625Y0028233D01*
X0059625Y0027634D02*
X0060225Y0027634D01*
X0060225Y0027036D02*
X0059625Y0027036D01*
X0059625Y0026437D02*
X0060225Y0026437D01*
X0062105Y0025240D02*
X0084957Y0025240D01*
X0085568Y0024642D02*
X0062704Y0024642D01*
X0062800Y0024043D02*
X0086260Y0024043D01*
X0095595Y0024043D02*
X0117040Y0024043D01*
X0117634Y0023805D02*
X0116121Y0024413D01*
X0114955Y0025554D01*
X0114315Y0027055D01*
X0114298Y0028686D01*
X0114907Y0030199D01*
X0116048Y0031364D01*
X0117548Y0032004D01*
X0124379Y0032076D01*
X0125892Y0031467D01*
X0127057Y0030326D01*
X0127697Y0028826D01*
X0127714Y0027195D01*
X0127106Y0025682D01*
X0125965Y0024516D01*
X0124465Y0023876D01*
X0117634Y0023805D01*
X0115887Y0024642D02*
X0096397Y0024642D01*
X0096983Y0025240D02*
X0115276Y0025240D01*
X0114834Y0025839D02*
X0097297Y0025839D01*
X0097538Y0026437D02*
X0114578Y0026437D01*
X0114323Y0027036D02*
X0104282Y0027036D01*
X0104880Y0027634D02*
X0114309Y0027634D01*
X0114303Y0028233D02*
X0105300Y0028233D01*
X0105300Y0028832D02*
X0114357Y0028832D01*
X0114597Y0029430D02*
X0105300Y0029430D01*
X0105300Y0030029D02*
X0114838Y0030029D01*
X0115326Y0030627D02*
X0105300Y0030627D01*
X0105300Y0031226D02*
X0115912Y0031226D01*
X0117126Y0031824D02*
X0105300Y0031824D01*
X0105300Y0032423D02*
X0201000Y0032423D01*
X0201000Y0033021D02*
X0105300Y0033021D01*
X0125005Y0031824D02*
X0178890Y0031824D01*
X0179172Y0032106D02*
X0176770Y0029704D01*
X0176770Y0026307D01*
X0179172Y0023906D01*
X0182568Y0023906D01*
X0184970Y0026307D01*
X0184970Y0029704D01*
X0182568Y0032106D01*
X0179172Y0032106D01*
X0178292Y0031226D02*
X0126139Y0031226D01*
X0126750Y0030627D02*
X0149063Y0030627D01*
X0149097Y0030661D02*
X0146695Y0028259D01*
X0146695Y0024862D01*
X0149097Y0022461D01*
X0152494Y0022461D01*
X0154895Y0024862D01*
X0154895Y0028259D01*
X0152494Y0030661D01*
X0149097Y0030661D01*
X0148465Y0030029D02*
X0127184Y0030029D01*
X0127440Y0029430D02*
X0147866Y0029430D01*
X0147268Y0028832D02*
X0127695Y0028832D01*
X0127704Y0028233D02*
X0146695Y0028233D01*
X0146695Y0027634D02*
X0127710Y0027634D01*
X0127651Y0027036D02*
X0146695Y0027036D01*
X0146695Y0026437D02*
X0127410Y0026437D01*
X0127169Y0025839D02*
X0146695Y0025839D01*
X0146695Y0025240D02*
X0126674Y0025240D01*
X0126088Y0024642D02*
X0146916Y0024642D01*
X0147514Y0024043D02*
X0124857Y0024043D01*
X0128857Y0018921D02*
X0126455Y0016519D01*
X0126455Y0013122D01*
X0128857Y0010721D01*
X0132253Y0010721D01*
X0134655Y0013122D01*
X0134655Y0016519D01*
X0132253Y0018921D01*
X0128857Y0018921D01*
X0128593Y0018657D02*
X0062800Y0018657D01*
X0062800Y0019255D02*
X0201000Y0019255D01*
X0201000Y0018657D02*
X0142517Y0018657D01*
X0142253Y0018921D02*
X0138857Y0018921D01*
X0136455Y0016519D01*
X0136455Y0013122D01*
X0138857Y0010721D01*
X0142253Y0010721D01*
X0144655Y0013122D01*
X0144655Y0016519D01*
X0142253Y0018921D01*
X0143116Y0018058D02*
X0201000Y0018058D01*
X0201000Y0017460D02*
X0143714Y0017460D01*
X0144313Y0016861D02*
X0159538Y0016861D01*
X0160042Y0017365D02*
X0157640Y0014964D01*
X0157640Y0011567D01*
X0160042Y0009165D01*
X0163438Y0009165D01*
X0165840Y0011567D01*
X0165840Y0014964D01*
X0163438Y0017365D01*
X0160042Y0017365D01*
X0158939Y0016263D02*
X0144655Y0016263D01*
X0144655Y0015664D02*
X0158341Y0015664D01*
X0157742Y0015066D02*
X0144655Y0015066D01*
X0144655Y0014467D02*
X0157640Y0014467D01*
X0157640Y0013869D02*
X0144655Y0013869D01*
X0144655Y0013270D02*
X0157640Y0013270D01*
X0157640Y0012672D02*
X0144205Y0012672D01*
X0143606Y0012073D02*
X0157640Y0012073D01*
X0157733Y0011475D02*
X0143008Y0011475D01*
X0142409Y0010876D02*
X0158331Y0010876D01*
X0158930Y0010278D02*
X0065125Y0010278D01*
X0065125Y0010876D02*
X0128701Y0010876D01*
X0128103Y0011475D02*
X0065125Y0011475D01*
X0065066Y0012073D02*
X0127504Y0012073D01*
X0126906Y0012672D02*
X0064818Y0012672D01*
X0064570Y0013270D02*
X0126455Y0013270D01*
X0126455Y0013869D02*
X0064306Y0013869D01*
X0063707Y0014467D02*
X0126455Y0014467D01*
X0126455Y0015066D02*
X0063109Y0015066D01*
X0062800Y0015664D02*
X0126455Y0015664D01*
X0126455Y0016263D02*
X0062800Y0016263D01*
X0062800Y0016861D02*
X0126798Y0016861D01*
X0127396Y0017460D02*
X0062800Y0017460D01*
X0062800Y0018058D02*
X0127995Y0018058D01*
X0132517Y0018657D02*
X0138593Y0018657D01*
X0137995Y0018058D02*
X0133116Y0018058D01*
X0133714Y0017460D02*
X0137396Y0017460D01*
X0136798Y0016861D02*
X0134313Y0016861D01*
X0134655Y0016263D02*
X0136455Y0016263D01*
X0136455Y0015664D02*
X0134655Y0015664D01*
X0134655Y0015066D02*
X0136455Y0015066D01*
X0136455Y0014467D02*
X0134655Y0014467D01*
X0134655Y0013869D02*
X0136455Y0013869D01*
X0136455Y0013270D02*
X0134655Y0013270D01*
X0134205Y0012672D02*
X0136906Y0012672D01*
X0137504Y0012073D02*
X0133606Y0012073D01*
X0133008Y0011475D02*
X0138103Y0011475D01*
X0138701Y0010876D02*
X0132409Y0010876D01*
X0148113Y0023445D02*
X0062800Y0023445D01*
X0062800Y0022846D02*
X0148711Y0022846D01*
X0152879Y0022846D02*
X0201000Y0022846D01*
X0201000Y0022248D02*
X0062800Y0022248D01*
X0062800Y0021649D02*
X0201000Y0021649D01*
X0201000Y0021051D02*
X0062800Y0021051D01*
X0062800Y0020452D02*
X0201000Y0020452D01*
X0201000Y0019854D02*
X0062800Y0019854D01*
X0059200Y0019854D02*
X0044599Y0019854D01*
X0044001Y0019255D02*
X0059200Y0019255D01*
X0059200Y0018657D02*
X0043402Y0018657D01*
X0042804Y0018058D02*
X0059200Y0018058D01*
X0059200Y0017460D02*
X0042205Y0017460D01*
X0041607Y0016861D02*
X0059200Y0016861D01*
X0059200Y0016263D02*
X0041008Y0016263D01*
X0040410Y0015664D02*
X0057850Y0015664D01*
X0056742Y0015066D02*
X0039811Y0015066D01*
X0039213Y0014467D02*
X0056143Y0014467D01*
X0055545Y0013869D02*
X0038614Y0013869D01*
X0038016Y0013270D02*
X0055280Y0013270D01*
X0055033Y0012672D02*
X0037821Y0012672D01*
X0038069Y0012073D02*
X0054785Y0012073D01*
X0054725Y0011475D02*
X0038317Y0011475D01*
X0038445Y0010876D02*
X0054725Y0010876D01*
X0054725Y0010278D02*
X0038445Y0010278D01*
X0038445Y0009679D02*
X0054801Y0009679D01*
X0055048Y0009081D02*
X0038438Y0009081D01*
X0038190Y0008482D02*
X0055296Y0008482D01*
X0055583Y0007884D02*
X0037942Y0007884D01*
X0037695Y0007285D02*
X0056181Y0007285D01*
X0056780Y0006687D02*
X0037154Y0006687D01*
X0036556Y0006088D02*
X0057943Y0006088D01*
X0061908Y0006088D02*
X0201000Y0006088D01*
X0201000Y0005490D02*
X0035627Y0005490D01*
X0030862Y0005490D02*
X0007500Y0005490D01*
X0007500Y0006088D02*
X0029934Y0006088D01*
X0029336Y0006687D02*
X0007500Y0006687D01*
X0007500Y0007285D02*
X0028795Y0007285D01*
X0028547Y0007884D02*
X0007500Y0007884D01*
X0007500Y0008482D02*
X0028300Y0008482D01*
X0028052Y0009081D02*
X0007500Y0009081D01*
X0007500Y0009679D02*
X0028045Y0009679D01*
X0028045Y0010278D02*
X0007500Y0010278D01*
X0007500Y0010876D02*
X0028045Y0010876D01*
X0028173Y0011475D02*
X0007500Y0011475D01*
X0007500Y0012073D02*
X0028421Y0012073D01*
X0028669Y0012672D02*
X0007500Y0012672D01*
X0007500Y0013270D02*
X0029030Y0013270D01*
X0045198Y0020452D02*
X0059200Y0020452D01*
X0059200Y0021051D02*
X0045796Y0021051D01*
X0046395Y0021649D02*
X0059200Y0021649D01*
X0061000Y0023800D02*
X0056000Y0023800D01*
X0051000Y0028800D01*
X0050817Y0026437D02*
X0050300Y0026437D01*
X0050300Y0025839D02*
X0051415Y0025839D01*
X0052014Y0025240D02*
X0049986Y0025240D01*
X0049388Y0024642D02*
X0052612Y0024642D01*
X0053211Y0024043D02*
X0048789Y0024043D01*
X0048190Y0023445D02*
X0053809Y0023445D01*
X0054408Y0022846D02*
X0047592Y0022846D01*
X0046993Y0022248D02*
X0055007Y0022248D01*
X0061000Y0023800D02*
X0061000Y0011300D01*
X0059925Y0010895D01*
X0063669Y0007285D02*
X0201000Y0007285D01*
X0201000Y0006687D02*
X0063070Y0006687D01*
X0064267Y0007884D02*
X0201000Y0007884D01*
X0201000Y0008482D02*
X0064554Y0008482D01*
X0064802Y0009081D02*
X0201000Y0009081D01*
X0201000Y0009679D02*
X0173952Y0009679D01*
X0173438Y0009165D02*
X0175840Y0011567D01*
X0175840Y0014964D01*
X0173438Y0017365D01*
X0170042Y0017365D01*
X0167640Y0014964D01*
X0167640Y0011567D01*
X0170042Y0009165D01*
X0173438Y0009165D01*
X0174551Y0010278D02*
X0201000Y0010278D01*
X0201000Y0010876D02*
X0175149Y0010876D01*
X0175748Y0011475D02*
X0201000Y0011475D01*
X0201000Y0012073D02*
X0175840Y0012073D01*
X0175840Y0012672D02*
X0201000Y0012672D01*
X0201000Y0013270D02*
X0175840Y0013270D01*
X0175840Y0013869D02*
X0201000Y0013869D01*
X0201000Y0014467D02*
X0175840Y0014467D01*
X0175738Y0015066D02*
X0201000Y0015066D01*
X0201000Y0015664D02*
X0175140Y0015664D01*
X0174541Y0016263D02*
X0201000Y0016263D01*
X0201000Y0016861D02*
X0173943Y0016861D01*
X0169538Y0016861D02*
X0163943Y0016861D01*
X0164541Y0016263D02*
X0168939Y0016263D01*
X0168341Y0015664D02*
X0165140Y0015664D01*
X0165738Y0015066D02*
X0167742Y0015066D01*
X0167640Y0014467D02*
X0165840Y0014467D01*
X0165840Y0013869D02*
X0167640Y0013869D01*
X0167640Y0013270D02*
X0165840Y0013270D01*
X0165840Y0012672D02*
X0167640Y0012672D01*
X0167640Y0012073D02*
X0165840Y0012073D01*
X0165748Y0011475D02*
X0167733Y0011475D01*
X0168331Y0010876D02*
X0165149Y0010876D01*
X0164551Y0010278D02*
X0168930Y0010278D01*
X0169528Y0009679D02*
X0163952Y0009679D01*
X0159528Y0009679D02*
X0065050Y0009679D01*
X0007500Y0004891D02*
X0201000Y0004891D01*
X0201000Y0004293D02*
X0007500Y0004293D01*
X0007500Y0003694D02*
X0201000Y0003694D01*
X0201000Y0003096D02*
X0007500Y0003096D01*
X0050300Y0066538D02*
X0053244Y0066538D01*
X0070051Y0084493D02*
X0085398Y0084493D01*
X0084767Y0085092D02*
X0069453Y0085092D01*
X0068726Y0085690D02*
X0084358Y0085690D01*
X0090100Y0085690D02*
X0090700Y0085690D01*
X0090706Y0085092D02*
X0090106Y0085092D01*
X0090112Y0084493D02*
X0090712Y0084493D01*
X0090719Y0083895D02*
X0090119Y0083895D01*
X0090094Y0086289D02*
X0090694Y0086289D01*
X0090687Y0086887D02*
X0090087Y0086887D01*
X0090069Y0088683D02*
X0090669Y0088683D01*
X0090662Y0089281D02*
X0090062Y0089281D01*
X0090056Y0089880D02*
X0090656Y0089880D01*
X0090650Y0090478D02*
X0090050Y0090478D01*
X0090044Y0091077D02*
X0090643Y0091077D01*
X0147094Y0062348D02*
X0195433Y0062348D01*
X0200583Y0061750D02*
X0201000Y0061750D01*
X0201000Y0053969D02*
X0153719Y0053969D01*
X0154318Y0054568D02*
X0178793Y0054568D01*
X0178194Y0055166D02*
X0154695Y0055166D01*
X0153120Y0053370D02*
X0201000Y0053370D01*
X0201000Y0052772D02*
X0152522Y0052772D01*
X0152527Y0030627D02*
X0177693Y0030627D01*
X0177095Y0030029D02*
X0153126Y0030029D01*
X0153724Y0029430D02*
X0176770Y0029430D01*
X0176770Y0028832D02*
X0154323Y0028832D01*
X0154895Y0028233D02*
X0176770Y0028233D01*
X0176770Y0027634D02*
X0154895Y0027634D01*
X0154895Y0027036D02*
X0176770Y0027036D01*
X0176770Y0026437D02*
X0154895Y0026437D01*
X0154895Y0025839D02*
X0177238Y0025839D01*
X0177837Y0025240D02*
X0154895Y0025240D01*
X0154675Y0024642D02*
X0178435Y0024642D01*
X0179034Y0024043D02*
X0154076Y0024043D01*
X0153478Y0023445D02*
X0201000Y0023445D01*
X0201000Y0024043D02*
X0182706Y0024043D01*
X0183305Y0024642D02*
X0201000Y0024642D01*
X0201000Y0025240D02*
X0183903Y0025240D01*
X0184502Y0025839D02*
X0201000Y0025839D01*
X0201000Y0026437D02*
X0184970Y0026437D01*
X0184970Y0027036D02*
X0201000Y0027036D01*
X0201000Y0027634D02*
X0184970Y0027634D01*
X0184970Y0028233D02*
X0201000Y0028233D01*
X0201000Y0028832D02*
X0184970Y0028832D01*
X0184970Y0029430D02*
X0201000Y0029430D01*
X0201000Y0030029D02*
X0184645Y0030029D01*
X0184047Y0030627D02*
X0201000Y0030627D01*
X0201000Y0031226D02*
X0183448Y0031226D01*
X0182850Y0031824D02*
X0201000Y0031824D01*
X0159299Y0124593D02*
X0157752Y0124593D01*
X0157154Y0125192D02*
X0158700Y0125192D01*
X0158102Y0125790D02*
X0156555Y0125790D01*
X0155957Y0126389D02*
X0157503Y0126389D01*
X0157085Y0126987D02*
X0155358Y0126987D01*
X0154760Y0127586D02*
X0157085Y0127586D01*
X0201000Y0195218D02*
X0007500Y0195218D01*
X0007500Y0195816D02*
X0201000Y0195816D01*
D19*
X0148500Y0168800D03*
X0098500Y0053800D03*
M02*
